# Alias OBJ Model File
# Exported from SketchUp, (c) 2000-2006 Google, Inc.
# File units = meters

mtllib ball.mtl

g Mesh1 Model

usemtl FrontColor
v 7.89591e-017 -0.5 -6.76792e-017
vt -3.37831e-015 -5.26195
vn -4.80062e-017 -1 1.08014e-017
v -0.25 -0.433013 -2.25597e-017
vt 2.54743 4.60421
vn -0.498231 -0.867044 1.63255e-016
v -0.216506 -0.433013 -0.125
vt -2.54743 4.60421
vn -0.431481 -0.867044 -0.249116
f 1/1/1 2/2/2 3/3/3

vt -1.76917e-015 -5.26195
vn -5.76074e-017 -1 1.80023e-017
v -0.216506 -0.433013 0.125
vt 2.54743 4.60421
vn -0.431481 -0.867044 0.249116
vt -2.54743 4.60421
f 1/4/4 4/5/5 2/6/2

vt 3.14018e-016 -5.26195
vn -6.2408e-017 -1 1.68022e-017
v -0.125 -0.433013 0.216506
vt 2.54743 4.60421
vn -0.249116 -0.867044 0.431481
vt -2.54743 4.60421
vn -0.431481 -0.867044 0.249116
f 1/7/6 5/8/7 4/9/8

vt 2.31307e-015 -5.26195
vn -5.04065e-017 -1 1.92025e-017
v 0 -0.433013 0.25
vt 2.54743 4.60421
vn 5.07904e-017 -0.867044 0.498231
vt -2.54743 4.60421
f 1/10/9 6/11/10 5/12/7

v 0.125 -0.433013 0.216506
vt 2.54743 4.60421
vn 0.249116 -0.867044 0.431481
vt -2.54743 4.60421
vn 4.71625e-017 -0.867044 0.498231
vt 3.69233e-015 -5.26195
vn -5.88076e-017 -1 1.92025e-017
f 7/13/11 6/14/12 1/15/13

vt 2.54743 -5.65661
v 0 -0.25 0.433013
vt -4.41228 4.36101
vn 1.03117e-016 -0.501714 0.865033
vt -2.54743 -5.65661
vn 4.35346e-017 -0.867044 0.498231
f 7/16/11 8/17/14 6/18/15

v 0.216506 -0.25 0.375
vt 4.41228 4.36101
vn 0.432517 -0.501714 0.749141
f 8/17/14 7/16/11 9/19/16

v 0.216506 -0.433013 0.125
vt 2.54743 -5.65661
vn 0.431481 -0.867044 0.249116
vt -4.41228 4.36101
f 10/20/17 9/21/16 7/18/11

v 0.375 -0.25 0.216506
vt 4.41228 4.36101
vn 0.749141 -0.501714 0.432517
f 9/21/16 10/20/17 11/22/18

v 0.25 -0.433013 1.35358e-016
vt 2.54743 -5.65661
vn 0.498231 -0.867044 7.25576e-018
vt -4.41228 4.36101
vt -2.54743 -5.65661
f 12/23/19 11/24/18 10/25/17

v 0.433013 -0.25 9.02389e-017
vt 4.41228 4.36101
vn 0.865033 -0.501714 -8.10206e-017
f 11/24/18 12/23/19 13/26/20

vt -2.54743 -5.65661
vn 0.498231 -0.867044 0
v 0.375 -0.25 -0.216506
vt 4.41228 4.36101
vn 0.749141 -0.501714 -0.432517
vt -4.41228 4.36101
vn 0.865033 -0.501714 -7.36551e-017
f 12/27/21 14/28/22 13/29/23

v 0.216506 -0.433013 -0.125
vt 2.54743 -5.65661
vn 0.431481 -0.867044 -0.249116
f 14/28/22 12/27/21 15/30/24

vt -2.54743 4.60421
vn 0.498231 -0.867044 0
vt 1.76917e-015 -5.26195
vn -5.28068e-017 -1 9.60123e-018
vt 2.54743 4.60421
vn 0.431481 -0.867044 -0.249116
f 12/31/25 1/32/26 15/33/27

vt 2.54743 4.60421
vn 0.498231 -0.867044 3.62788e-018
vt -2.54743 4.60421
vt 3.37831e-015 -5.26195
vn -5.28068e-017 -1 1.80023e-017
f 12/34/28 10/35/17 1/36/29

vt 2.54743 4.60421
vn 0.249116 -0.867044 0.431481
vt 4.08224e-015 -5.26195
vn -5.52071e-017 -1 1.68022e-017
f 10/37/17 7/14/30 1/38/31

vt -2.54743 4.60421
vt -3.14018e-016 -5.26195
vn -4.80062e-017 -1 1.44019e-017
v 0.125 -0.433013 -0.216506
vn 0.249116 -0.867044 -0.431481
f 15/39/24 1/40/32 16/5/33

vt -2.54743 4.60421
vn 0.249116 -0.867044 -0.431481
vt -2.31307e-015 -5.26195
vn -5.16066e-017 -1 1.92025e-017
v -9.02389e-017 -0.433013 -0.25
vt 2.54743 4.60421
vn -1.26976e-016 -0.867044 -0.498231
f 16/41/34 1/42/35 17/43/36

vt -3.69233e-015 -5.26195
vn -5.76074e-017 -1 1.92025e-017
v -0.125 -0.433013 -0.216506
vt 2.54743 4.60421
vn -0.249116 -0.867044 -0.431481
vt -2.54743 4.60421
vn -1.23348e-016 -0.867044 -0.498231
f 1/44/37 18/45/38 17/46/39

vt -4.08224e-015 -5.26195
vn -3.60046e-017 -1 1.68022e-017
vt 2.54743 4.60421
vt -2.54743 4.60421
vn -0.249116 -0.867044 -0.431481
f 1/47/40 3/48/3 18/49/41

vt 2.54743 -5.65661
v -0.216506 -0.25 -0.375
vt -4.41228 4.36101
vn -0.432517 -0.501714 -0.749141
vt -2.54743 -5.65661
f 3/50/3 19/51/42 18/52/38

v -0.375 -0.25 -0.216506
vt 4.41228 4.36101
vn -0.749141 -0.501714 -0.432517
f 19/51/42 3/50/3 20/53/43

vt 2.54743 -5.65661
vn -0.498231 -0.867044 1.59627e-016
vt -4.41228 4.36101
vt -2.54743 -5.65661
f 2/54/44 20/55/43 3/56/3

v -0.433013 -0.25 1.12799e-017
vt 4.41228 4.36101
vn -0.865033 -0.501714 2.87255e-016
f 20/55/43 2/54/44 21/57/45

vt -2.54743 -5.65661
vn -0.498231 -0.867044 1.59627e-016
v -0.375 -0.25 0.216506
vt 4.41228 4.36101
vn -0.749141 -0.501714 0.432517
vt -4.41228 4.36101
vn -0.865033 -0.501714 2.87255e-016
f 2/58/46 22/59/47 21/60/48

vt 2.54743 -5.65661
vn -0.431481 -0.867044 0.249116
f 22/59/47 2/58/46 4/61/49

vt -2.54743 -5.65661
v -0.216506 -0.25 0.375
vt 4.41228 4.36101
vn -0.432517 -0.501714 0.749141
vt -4.41228 4.36101
f 4/62/49 23/63/50 22/64/47

vt 2.54743 -5.65661
f 23/63/50 4/62/49 5/65/7

vt -2.54743 -5.65661
vn 1.10483e-016 -0.501714 0.865033
vt -4.41228 4.36101
f 5/66/7 8/19/51 23/67/50

vt 2.54743 -5.65661
f 8/19/51 5/66/7 6/68/10

v 4.51195e-017 -9.18455e-017 0.5
vt 5.09486 4.76427
vn 1.48408e-016 -3.71019e-016 1
vt -4.41228 -5.40256
vt 4.41228 -5.40256
vn 1.17848e-016 -0.501714 0.865033
f 24/69/52 23/70/50 8/71/53

v -0.25 -9.18455e-017 0.433013
vt -5.09486 4.76427
vn -0.5 -3.56178e-016 0.866025
f 23/70/50 24/69/52 25/72/54

v 0 0.25 0.433013
vt 4.41228 5.40256
vn 5.89241e-017 0.501714 0.865033
vt -5.09486 -4.76427
vn -0.5 -3.56178e-016 0.866025
vt 5.09486 -4.76427
vn 1.48408e-016 -3.41337e-016 1
f 26/73/55 25/74/56 24/75/57

v -0.216506 0.25 0.375
vt -4.41228 5.40256
vn -0.432517 0.501714 0.749141
f 25/74/56 26/73/55 27/76/58

v -4.51195e-017 0.433013 0.25
vt 2.54743 5.65661
vn 0 0.867044 0.498231
vt -4.41228 -4.36101
vn -0.432517 0.501714 0.749141
vt 4.41228 -4.36101
vn 5.89241e-017 0.501714 0.865033
f 28/77/59 27/78/60 26/79/61

v -0.125 0.433013 0.216506
vt -2.54743 5.65661
vn -0.249116 0.867044 0.431481
f 27/78/60 28/77/59 29/80/62

v 1.69198e-017 0.5 -6.76792e-017
vt -4.61966e-017 5.26195
vn -4.44057e-017 1 2.40031e-017
vt -2.54743 -4.60421
vt 2.54743 -4.60421
vn -3.62788e-018 0.867044 0.498231
f 30/81/63 29/82/62 28/83/64

vt -1.41308e-015 5.26195
vn -4.08052e-017 1 3.36043e-017
v -0.216506 0.433013 0.125
vn -0.431481 0.867044 0.249116
vt 2.54743 -4.60421
f 30/84/65 31/82/66 29/85/62

vt -2.40134e-015 5.26195
vn -4.32056e-017 1 3.1204e-017
v -0.25 0.433013 -2.25597e-017
vt -2.54743 -4.60421
vn -0.498231 0.867044 1.81394e-016
vt 2.54743 -4.60421
vn -0.431481 0.867044 0.249116
f 30/86/67 32/87/68 31/88/69

vt -2.74615e-015 5.26195
vn -4.32056e-017 1 2.64034e-017
v -0.216506 0.433013 -0.125
vt -2.54743 -4.60421
vn -0.431481 0.867044 -0.249116
vt 2.54743 -4.60421
vn -0.498231 0.867044 1.81394e-016
f 30/89/70 33/90/71 32/91/72

vt -2.35514e-015 5.26195
vn -3.84049e-017 1 2.64034e-017
v -0.125 0.433013 -0.216506
vt -2.54743 -4.60421
vn -0.249116 0.867044 -0.431481
vt 2.54743 -4.60421
vn -0.431481 0.867044 -0.249116
f 30/92/73 34/93/74 33/94/75

vt -1.33307e-015 5.26195
vn -5.16066e-017 1 2.40031e-017
v -4.51195e-017 0.433013 -0.25
vt -2.54743 -4.60421
vn -1.63255e-016 0.867044 -0.498231
vt 2.54743 -4.60421
vn -0.249116 0.867044 -0.431481
f 30/95/76 35/96/77 34/97/78

v 0.125 0.433013 -0.216506
vt -2.54743 -4.60421
vn 0.249116 0.867044 -0.431481
vt 2.54743 -4.60421
vn -1.66883e-016 0.867044 -0.498231
vt 4.61966e-017 5.26195
vn -5.52071e-017 1 2.88037e-017
f 36/98/79 35/99/80 30/100/81

v 0.216506 0.25 -0.375
vt -4.41228 -4.36101
vn 0.432517 0.501714 -0.749141
vt 2.54743 5.65661
vt -2.54743 5.65661
vn 0.249116 0.867044 -0.431481
f 37/101/82 35/102/80 36/103/83

v -1.35358e-016 0.25 -0.433013
vt 4.41228 -4.36101
vn -3.38813e-016 0.501714 -0.865033
f 35/102/80 37/101/82 38/104/84

v 0.25 -9.18455e-017 -0.433013
vt -5.09486 -4.76427
vn 0.5 -3.56178e-016 -0.866025
vt 4.41228 5.40256
vt -4.41228 5.40256
f 39/105/85 38/106/84 37/107/82

v -1.35358e-016 -9.18455e-017 -0.5
vt 5.09486 -4.76427
vn -3.8586e-016 -4.15541e-016 -1
f 38/106/84 39/105/85 40/108/86

v 0.216506 -0.25 -0.375
vt -4.41228 -5.40256
vn 0.432517 -0.501714 -0.749141
vt 5.09486 4.76427
vn -3.8586e-016 -4.007e-016 -1
vt -5.09486 4.76427
f 41/109/87 40/110/88 39/111/85

v -9.02389e-017 -0.25 -0.433013
vt 4.41228 -5.40256
vn -2.35696e-016 -0.501714 -0.865033
f 40/110/88 41/109/87 42/112/89

vt -4.41228 4.36101
vt 2.54743 -5.65661
vn -1.23348e-016 -0.867044 -0.498231
vn -2.43062e-016 -0.501714 -0.865033
f 41/113/87 17/114/90 42/53/91

vt -2.54743 -5.65661
f 17/114/90 41/113/87 16/115/34

vt 4.41228 4.36101
vn 0.432517 -0.501714 -0.749141
vt -2.54743 -5.65661
vt 2.54743 -5.65661
vn 0.249116 -0.867044 -0.431481
f 41/116/92 15/117/24 16/118/93

vt -4.41228 4.36101
vn 0.749141 -0.501714 -0.432517
f 15/117/24 41/116/92 14/119/94

vt 5.09486 4.76427
vn 0.5 -3.41337e-016 -0.866025
vt -4.41228 -5.40256
vt 4.41228 -5.40256
f 39/120/95 14/121/94 41/122/87

v 0.433013 -9.18455e-017 -0.25
vt -5.09486 4.76427
vn 0.866025 -3.56178e-016 -0.5
f 14/121/94 39/120/95 43/123/96

vt 4.41228 5.40256
vt -5.09486 -4.76427
vt 5.09486 -4.76427
vn 0.5 -3.71019e-016 -0.866025
f 37/124/82 43/125/96 39/126/97

v 0.375 0.25 -0.216506
vt -4.41228 5.40256
vn 0.749141 0.501714 -0.432517
f 43/125/96 37/124/82 44/127/98

vt 4.41228 -4.36101
v 0.216506 0.433013 -0.125
vt -2.54743 5.65661
vn 0.431481 0.867044 -0.249116
vt -4.41228 -4.36101
f 37/128/82 45/129/99 44/130/98

vt 2.54743 5.65661
vn 0.249116 0.867044 -0.431481
f 45/129/99 37/128/82 36/131/100

vt -2.54743 -4.60421
vn 0.431481 0.867044 -0.249116
vt 2.54743 -4.60421
vt 1.41308e-015 5.26195
vn -4.80062e-017 1 2.64034e-017
f 45/132/101 36/133/83 30/134/102

v 0.25 0.433013 1.80478e-016
vt -2.54743 -4.60421
vn 0.498231 0.867044 -7.25576e-018
vt 2.54743 -4.60421
vn 0.431481 0.867044 -0.249116
vt 2.40134e-015 5.26195
vn -4.32056e-017 1 3.36043e-017
f 46/135/103 45/136/104 30/137/105

v 0.433013 0.25 9.02389e-017
vt -4.41228 -4.36101
vn 0.865033 0.501714 -5.89241e-017
vt 2.54743 5.65661
vt -2.54743 5.65661
vn 0.498231 0.867044 -7.25576e-018
f 47/138/106 45/139/99 46/140/107

vt 4.41228 -4.36101
f 45/139/99 47/138/106 44/141/98

vt -4.41228 5.40256
vt 5.09486 -4.76427
vn 0.866025 -3.56178e-016 -0.5
vt 4.41228 5.40256
f 47/142/106 43/143/108 44/144/98

v 0.5 -9.18455e-017 9.02389e-017
vt -5.09486 -4.76427
vn 1 -3.56178e-016 -1.63248e-016
f 43/143/108 47/142/106 48/145/109

v 0.375 0.25 0.216506
vt -4.41228 5.40256
vn 0.749141 0.501714 0.432517
vt 5.09486 -4.76427
vn 1 -3.71019e-016 -1.48408e-016
vt 4.41228 5.40256
f 49/146/110 48/147/111 47/148/106

v 0.433013 -9.18455e-017 0.25
vt -5.09486 -4.76427
vn 0.866025 -3.8586e-016 0.5
f 48/147/111 49/146/110 50/149/112

v 0.216506 0.25 0.375
vt -4.41228 5.40256
vn 0.432517 0.501714 0.749141
vt 5.09486 -4.76427
vn 0.866025 -4.007e-016 0.5
vt 4.41228 5.40256
vn 0.749141 0.501714 0.432517
f 51/150/113 50/151/114 49/152/115

v 0.25 -9.18455e-017 0.433013
vt -5.09486 -4.76427
vn 0.5 -3.71019e-016 0.866025
f 50/151/114 51/150/113 52/153/116

vt 4.41228 5.40256
vt -5.09486 -4.76427
vn 1.33567e-016 -3.56178e-016 1
vt 5.09486 -4.76427
vn 0.5 -3.71019e-016 0.866025
f 51/154/113 24/155/117 52/156/118

vt -4.41228 5.40256
vn 5.89241e-017 0.501714 0.865033
f 24/155/117 51/154/113 26/157/119

v 0.125 0.433013 0.216506
vt 2.54743 5.65661
vn 0.249116 0.867044 0.431481
vt -4.41228 -4.36101
vt 4.41228 -4.36101
vn 0.432517 0.501714 0.749141
f 53/158/120 26/159/61 51/160/121

vt -2.54743 5.65661
vn 0 0.867044 0.498231
f 26/159/61 53/158/120 28/161/122

vt 2.54743 -4.60421
vn 0.249116 0.867044 0.431481
vt 1.33307e-015 5.26195
vn -3.48045e-017 1 3.36043e-017
vt -2.54743 -4.60421
f 53/162/123 30/163/124 28/164/64

v 0.216506 0.433013 0.125
vt 2.54743 -4.60421
vn 0.431481 0.867044 0.249116
vt 2.35514e-015 5.26195
vn -4.80062e-017 1 2.40031e-017
f 54/165/125 30/166/126 53/96/120

vt 2.54743 -4.60421
vn 0.498231 0.867044 -7.25576e-018
vt 2.74615e-015 5.26195
vn -3.36043e-017 1 2.88037e-017
vt -2.54743 -4.60421
f 46/167/127 30/168/128 54/169/125

vt 4.41228 -4.36101
vt 2.54743 5.65661
f 54/161/125 47/170/106 46/171/107

vt -4.41228 -4.36101
vn 0.749141 0.501714 0.432517
f 47/170/106 54/161/125 49/172/129

vt 2.54743 5.65661
vt -4.41228 -4.36101
vn 0.432517 0.501714 0.749141
vt 4.41228 -4.36101
f 54/173/125 51/174/130 49/175/110

vt -2.54743 5.65661
f 51/174/130 54/173/125 53/176/123

vt -4.41228 -5.40256
vt 5.09486 4.76427
vn 0.5 -3.56178e-016 0.866025
vt -5.09486 4.76427
f 8/177/14 52/178/131 24/179/117

vt 4.41228 -5.40256
f 52/178/131 8/177/14 9/180/16

vt -4.41228 -5.40256
vt 5.09486 4.76427
vt -5.09486 4.76427
f 9/181/16 50/182/114 52/183/116

vt 4.41228 -5.40256
vn 0.749141 -0.501714 0.432517
f 50/182/114 9/181/16 11/184/132

vt -4.41228 -5.40256
vt 5.09486 4.76427
vn 1 -3.41337e-016 -1.48408e-016
vt -5.09486 4.76427
f 11/185/18 48/186/133 50/187/112

vt 4.41228 -5.40256
f 48/186/133 11/185/18 13/188/23

vt 4.41228 -5.40256
vt -5.09486 4.76427
vn 1 -3.56178e-016 -1.63248e-016
vt -4.41228 -5.40256
f 14/189/22 48/190/134 13/191/23

vt 5.09486 4.76427
f 48/190/134 14/189/22 43/192/96

vt 2.54743 -5.65661
vt -4.41228 4.36101
vn -2.35696e-016 -0.501714 -0.865033
vt -2.54743 -5.65661
f 18/193/38 42/194/135 17/195/90

vn -0.432517 -0.501714 -0.749141
f 42/194/135 18/193/38 19/28/136

v -0.25 -9.18455e-017 -0.433013
vt 5.09486 4.76427
vn -0.5 -4.74904e-016 -0.866025
vt -4.41228 -5.40256
vt 4.41228 -5.40256
f 55/196/137 42/197/135 19/198/136

vt -5.09486 4.76427
f 42/197/135 55/196/137 40/199/88

v -0.216506 0.25 -0.375
vt 4.41228 5.40256
vn -0.432517 0.501714 -0.749141
vt -5.09486 -4.76427
vt 5.09486 -4.76427
vn -0.5 -4.74904e-016 -0.866025
f 56/200/138 40/201/88 55/202/139

vt -4.41228 5.40256
f 40/201/88 56/200/138 38/203/84

vn -0.249116 0.867044 -0.431481
vt -4.41228 -4.36101
vn -3.46179e-016 0.501714 -0.865033
vt 4.41228 -4.36101
f 34/139/140 38/204/141 56/205/138

vt -2.54743 5.65661
vn -1.66883e-016 0.867044 -0.498231
f 38/204/141 34/139/140 35/206/142

vt -4.41228 -4.36101
vn -0.432517 0.501714 -0.749141
vt 2.54743 5.65661
vt -2.54743 5.65661
f 56/207/143 33/208/71 34/209/74

v -0.375 0.25 -0.216506
vt 4.41228 -4.36101
vn -0.749141 0.501714 -0.432517
f 33/208/71 56/207/143 57/210/144

vt -4.41228 5.40256
v -0.433013 -9.18455e-017 -0.25
vt 5.09486 -4.76427
vn -0.866025 -4.30382e-016 -0.5
vt 4.41228 5.40256
f 56/211/143 58/212/145 57/213/144

vt -5.09486 -4.76427
vn -0.5 -4.74904e-016 -0.866025
f 58/212/145 56/211/143 55/214/146

vt -4.41228 -5.40256
vt 5.09486 4.76427
vn -0.866025 -4.30382e-016 -0.5
vt -5.09486 4.76427
f 19/215/42 58/216/147 55/217/137

vt 4.41228 -5.40256
f 58/216/147 19/215/42 20/218/43

vt 4.41228 -5.40256
vn -0.865033 -0.501714 2.9462e-016
vt -5.09486 4.76427
vn -0.866025 -4.45223e-016 -0.5
vt -4.41228 -5.40256
f 21/219/148 58/220/149 20/221/43

v -0.5 -9.18455e-017 5.07594e-017
vt 5.09486 4.76427
vn -1 -4.74904e-016 3.41337e-016
f 58/220/149 21/219/148 59/222/150

vt 4.41228 -5.40256
vn -0.749141 -0.501714 0.432517
vt -5.09486 4.76427
vt -4.41228 -5.40256
vn -0.865033 -0.501714 2.79889e-016
f 22/223/151 59/224/150 21/225/152

v -0.433013 -9.18455e-017 0.25
vt 5.09486 4.76427
vn -0.866025 -4.30382e-016 0.5
f 59/224/150 22/223/151 60/226/153

vt -4.41228 -5.40256
vn -0.749141 -0.501714 0.432517
vn -0.5 -3.71019e-016 0.866025
vt -5.09486 4.76427
vn -0.866025 -4.30382e-016 0.5
f 22/227/154 25/69/155 60/228/156

vt 4.41228 -5.40256
f 25/69/155 22/227/154 23/229/50

vt 4.41228 5.40256
vt -5.09486 -4.76427
vt 5.09486 -4.76427
vn -0.5 -3.41337e-016 0.866025
f 27/230/58 60/231/156 25/232/157

v -0.375 0.25 0.216506
vn -0.749141 0.501714 0.432517
f 60/231/156 27/230/58 61/76/158

vt 4.41228 -4.36101
vn -0.432517 0.501714 0.749141
vt -2.54743 5.65661
vn -0.431481 0.867044 0.249116
vt -4.41228 -4.36101
f 27/233/159 31/234/160 61/235/158

f 31/234/160 27/233/159 29/131/62

vt 2.54743 5.65661
v -0.433013 0.25 3.38396e-017
vt -4.41228 -4.36101
vn -0.865033 0.501714 3.24082e-016
vt 4.41228 -4.36101
vn -0.749141 0.501714 0.432517
f 31/236/160 62/237/161 61/238/162

vt -2.54743 5.65661
f 62/237/161 31/236/160 32/239/68

vt 2.54743 5.65661
vt -4.41228 -4.36101
vn -0.749141 0.501714 -0.432517
vt 4.41228 -4.36101
f 32/240/72 57/241/163 62/242/161

vt -2.54743 5.65661
f 57/241/163 32/240/72 33/243/71

vt -5.09486 -4.76427
vt 4.41228 5.40256
vt -4.41228 5.40256
f 58/244/149 62/245/161 57/246/163

vt 5.09486 -4.76427
vn -1 -4.60064e-016 3.41337e-016
f 62/245/161 58/244/149 59/247/164

vt -5.09486 -4.76427
vt 4.41228 5.40256
vn -0.749141 0.501714 0.432517
vt -4.41228 5.40256
f 59/248/164 61/249/165 62/250/161

vt 5.09486 -4.76427
vn -0.866025 -4.15541e-016 0.5
f 61/249/165 59/248/164 60/251/166

