# Alias OBJ Model File
# Exported from SketchUp, (c) 2000-2006 Google, Inc.
# File units = meters

mtllib bomb_block.mtl

g Mesh1 Model

usemtl WhiteMetal
v -0.79 -0.25 0.433013
vt 1.11013 15.9751
vn 1.725e-015 -0.5 0.866025
v -0.964766 0.25 0.433013
vt 0.999558 16.6078
vn 1.73661e-015 0.5 0.866025
v -0.964766 -0.25 0.433013
vt 0.999558 15.9751
f 1/1/1 2/2/2 3/3/1

v -0.79 0.25 0.433013
vt 1.11013 16.6078
f 2/2/2 1/1/1 4/4/2

usemtl GreyMetal
vt 0.129232 9.45924
vn -2.01153e-016 -0.5 0.866025
v 0.33 0.25 0.433013
vt -0.757795 9.9722
vn -2.21424e-016 0.5 0.866025
vt 0.128518 9.97428
f 1/5/3 5/6/4 4/7/4

v 0.33 -0.25 0.433013
vt -0.757081 9.45716
f 5/6/4 1/5/3 6/8/3

v 0.33 -0.5 6.76792e-017
vt -0.756724 9.19964
vn -1.37495e-017 -1 3.20494e-016
f 1/5/3 7/9/5 6/8/3

v -0.79 -0.5 -1.24407e-016
vt 0.129589 9.20172
f 7/9/5 1/5/3 8/10/5

usemtl WhiteMetal
vt 1.11013 15.6588
vn -1.16093e-017 -1 3.52543e-016
f 3/3/1 8/11/6 1/1/1

v -0.964766 -0.5 3.00706e-016
vt 0.999558 15.6588
f 8/11/6 3/3/1 9/12/6

usemtl RedMetal
v -1.16819 -0.142343 0.246545
vt -0.927487 12.9251
vn -0.87222 -0.244557 0.423585
vt -0.758623 12.3313
vn -0.726901 -0.686743 2.09003e-016
vt -0.758623 12.7464
vn -0.726901 -0.343371 0.594737
f 10/13/7 9/14/8 3/15/9

v -1.16819 -0.284686 1.80478e-016
vt -0.927487 12.6888
vn -0.87222 -0.489114 1.78793e-016
f 9/14/8 10/13/7 11/16/10

v -1.25 0 9.02389e-017
vt -0.995404 13.1614
vn -1 5.84878e-017 3.41179e-017
vn -0.87222 -0.489114 1.71343e-016
vn -0.87222 -0.244557 0.423585
f 12/17/11 11/16/12 10/13/13

v -1.16819 -0.142343 -0.246545
vn -0.87222 -0.244557 -0.423585
vn -0.87222 -0.489114 1.63893e-016
vn -1 5.84878e-017 3.89919e-017
f 13/13/14 11/16/15 12/17/16

v -0.964766 -0.25 -0.433013
vn -0.726901 -0.343371 -0.594737
vn -0.87222 -0.489114 1.63893e-016
vn -0.87222 -0.244557 -0.423585
f 14/15/17 11/16/18 13/13/19

f 11/16/18 14/15/17 9/14/8

usemtl WhiteMetal
v -0.79 -0.25 -0.433013
vn -1.73661e-015 -0.5 -0.866025
f 15/1/20 9/12/6 14/3/20

f 9/12/6 15/1/20 8/11/6

usemtl GreyMetal
v 0.33 -0.25 -0.433013
vn 1.64145e-016 -0.5 -0.866025
f 16/8/21 8/10/5 15/5/21

f 8/10/5 16/8/21 7/9/5

usemtl WhiteMetal
v 0.62 -0.120283 -0.214774
vt 2.00225 16.1393
vn 0.658218 -0.495311 -0.566936
vt 1.81877 15.6588
vn 0.670765 -0.728094 -0.141257
vt 1.81877 15.9751
vn 0.658657 -0.375216 -0.652215
f 17/18/22 7/19/23 16/20/24

v 0.62 -0.227023 -0.0207846
vt 2.00225 16.0042
vn 0.679165 -0.721718 0.133633
f 18/21/25 7/19/23 17/18/22

vn 0.697103 -0.477223 0.535075
f 18/21/25 6/20/26 7/19/23

v 0.62 -0.120283 0.173205
vn 0.706411 -0.366583 0.605475
f 19/18/27 6/20/26 18/21/25

vt 1.81877 16.6078
vn 0.72287 0.343745 0.599415
vn 0.697103 -0.477223 0.535075
f 19/18/27 5/22/28 6/20/29

v 0.62 0.0931992 0.173205
vt 2.00225 16.4094
vn 0.722132 0.454534 0.521464
f 5/22/28 19/18/27 20/23/30

usemtl GreyMetal
v 0.9 -0.104186 0.132612
vt -1.20836 9.6063
vn 0.152237 -0.503759 0.850324
vt -0.987063 9.81014
vn 0.166889 0.501692 0.848795
vt -0.986758 9.59024
vn 0.144865 -0.659286 0.737805
f 21/24/31 20/25/32 19/26/33

v 0.9 0.0687347 0.132612
vt -1.20861 9.78442
vn 0.164094 0.656644 0.736133
f 20/25/32 21/24/31 22/27/34

usemtl WhiteMetal
v 0.9 0.154691 0.278019
vt -0.89414 -2.57297
vn -1 -4.68957e-016 5.88999e-017
vt -0.954861 -2.64476
vt -0.954861 -2.78918
f 23/28/35 22/29/35 21/30/35

v 0.9 0.308144 -0.000864165
vt -1.0106 -2.44481
f 22/29/35 23/28/35 24/31/35

vt 1.88204 16.4872
vn 2.51422e-017 0.508881 0.860837
v 0.9 0.32116 -0.0245197
vt 1.88204 16.6979
vn 4.32867e-017 0.876127 0.48208
vt 1.88204 16.6814
f 23/32/36 25/33/37 24/34/37

v 1.25 0.154691 0.278019
vt 2.10349 16.4872
f 25/33/37 23/32/36 26/35/36

v 0.9 -0.190142 0.278019
vt 1.88204 16.0509
vn -9.9487e-017 -0.508881 0.860837
f 27/36/38 26/35/36 23/32/36

v 1.25 -0.190142 0.278019
vt 2.10349 16.0509
f 26/35/36 27/36/38 28/37/38

v 1.25 -0.356611 -0.0245197
vt 2.10349 15.8402
vn -1.78823e-016 -1 9.50395e-017
f 27/36/38 29/38/39 28/37/38

v 0.9 -0.356611 -0.0245197
vt 1.88204 15.8402
f 29/38/39 27/36/38 30/39/39

vt -0.89414 -2.86097
vt -1.02048 -3
f 27/40/35 21/30/35 30/41/35

f 21/30/35 27/40/35 23/28/35

v 0.9 -0.190646 -0.0245197
vt -1.02048 -2.86139
f 30/41/35 21/30/35 31/42/35

usemtl GreyMetal
vt -1.20824 9.51724
vn 0.129109 -0.975421 0.17856
f 21/24/31 19/26/33 31/43/40

vt -0.986606 9.48028
vn 0.124396 -0.975891 -0.179336
f 31/43/40 19/26/33 18/44/41

v 0.9 -0.104186 -0.181651
vn 0.125533 -0.660668 -0.740107
f 31/43/40 18/44/41 32/24/42

vn 0.129973 -0.504871 -0.853354
f 32/24/42 18/44/41 17/26/43

v 0.62 0.0931992 -0.214774
vn 0.1449 0.658327 -0.738653
vn 0.125533 -0.660668 -0.740107
f 33/25/44 32/24/45 17/26/43

v 0.9 0.0687347 -0.181651
vn 0.144748 0.503045 -0.852053
f 32/24/45 33/25/44 34/27/46

v 0.9 0.155195 -0.0245197
vt -1.20873 9.87348
vn 0.152938 0.971947 -0.178688
f 34/27/46 33/25/44 35/45/47

v 0.62 0.19994 -0.0207846
vt -0.987215 9.92009
vn 0.157601 0.971375 0.177743
f 35/45/47 33/25/44 36/46/48

usemtl WhiteMetal
vn 0.677814 0.366475 -0.637388
v 0.33 0.25 -0.433013
vn 0.680634 0.477163 -0.555925
vt 2.00225 16.5445
vn 0.702245 0.697806 -0.141134
f 33/23/49 37/22/50 36/47/51

f 17/18/22 37/22/50 33/23/49

f 37/22/50 17/18/22 16/20/24

usemtl GreyMetal
vn 2.32146e-016 0.5 -0.866025
f 15/5/21 37/6/52 16/8/21

v -0.79 0.25 -0.433013
f 37/6/52 15/5/21 38/7/52

usemtl WhiteMetal
v -0.964766 0.25 -0.433013
vn -1.59657e-015 0.5 -0.866025
f 15/1/20 39/2/53 38/4/53

f 39/2/53 15/1/20 14/3/20

usemtl RedMetal
vn -0.87222 -0.244557 -0.423585
vt -0.758622 13.5765
vn -0.726901 0.343371 -0.594737
f 13/13/54 39/48/55 14/15/17

v -1.16819 0.142343 -0.246545
vt -0.927487 13.3978
vn -0.87222 0.244557 -0.423585
f 39/48/55 13/13/54 40/49/56

vn -1 5.84878e-017 2.92439e-017
f 13/13/14 12/17/57 40/49/56

vn -1 5.84878e-017 4.87399e-017
v -1.16819 0.284686 1.01519e-016
vt -0.927487 13.6341
vn -0.87222 0.489114 8.93963e-017
f 40/49/56 12/17/58 41/50/59

v -1.16819 0.142343 0.246545
vn -0.87222 0.244557 0.423585
f 12/17/16 42/49/60 41/50/59

vn -1 5.65231e-017 3.89919e-017
vn -0.87222 0.244557 0.423585
f 12/17/61 10/13/13 42/49/62

vn -0.726901 0.343371 0.594737
f 10/13/13 2/48/63 42/49/62

f 2/48/63 10/13/13 3/15/9

v -0.964766 0.5 1.20228e-016
vt -0.758622 13.9916
vn -0.726901 0.686743 1.49288e-016
vn -0.87222 0.244557 0.423585
f 43/51/64 42/49/65 2/48/63

f 42/49/65 43/51/64 41/50/59

f 39/48/55 41/50/59 43/51/64

vn -0.87222 0.244557 -0.423585
f 41/50/59 39/48/55 40/49/66

usemtl WhiteMetal
v -0.79 0.5 -3.49676e-016
vt 1.11013 16.9242
vn 1.40033e-016 1 0
vt 0.999558 16.9242
f 44/52/67 39/2/53 43/53/67

f 39/2/53 44/52/67 38/4/53

usemtl GreyMetal
v 0.33 0.5 0
vt -0.758152 10.2297
vn 3.39801e-017 1 -2.24346e-016
vt 0.128161 10.2318
f 45/54/68 38/7/52 44/55/68

f 38/7/52 45/54/68 37/6/52

usemtl WhiteMetal
vt 1.81877 16.9242
vn 0.715961 0.687545 0.12117
f 36/47/51 37/22/50 45/56/69

vn 0.702245 0.697806 -0.141134
vn 0.722132 0.454534 0.521464
f 36/47/70 45/56/69 20/23/71

f 45/56/69 5/22/28 20/23/71

usemtl GreyMetal
f 44/55/68 5/6/4 45/54/68

f 5/6/4 44/55/68 4/7/4

usemtl WhiteMetal
f 43/53/67 4/4/2 44/52/67

f 4/4/2 43/53/67 2/2/2

usemtl GreyMetal
vn 0.164094 0.656644 0.736133
f 22/27/72 36/46/48 20/25/32

f 35/45/47 36/46/48 22/27/72

usemtl WhiteMetal
vt -1.02048 -2.57255
f 22/29/35 24/31/35 35/57/35

vt -1.02048 -2.43393
f 35/57/35 24/31/35 25/58/35

vt -1.0861 -2.64476
f 35/57/35 25/58/35 34/59/35

v 0.9 0.154691 -0.327058
vt -1.14682 -2.57297
f 34/59/35 25/58/35 46/60/35

v 1.25 0.32116 -0.0245197
vt 2.10349 16.6979
vn 1.22173e-016 0.876127 -0.48208
vn 1.92262e-016 0.508881 -0.860837
f 47/61/73 46/32/74 25/33/73

v 1.25 0.154691 -0.327058
f 46/32/74 47/61/73 48/35/74

vt -1 -2.43393
vn 1 0 0
v 1.25 -0.190142 -0.327058
vt -0.873662 -2.86097
vt -0.873662 -2.57297
f 47/62/75 49/63/75 48/64/75

vt -1 -3
f 47/62/75 29/65/75 49/63/75

v 1.25 0.308144 -0.000864165
vt -1.00988 -2.44481
f 50/66/75 29/65/75 47/62/75

vt -1.12634 -2.57297
f 26/67/75 29/65/75 50/66/75

vt -1.12634 -2.86097
f 29/65/75 26/67/75 28/68/75

vt 2.10349 16.6814
f 47/61/37 26/35/36 50/69/37

f 25/33/37 26/35/36 47/61/37

vn -1.42059e-016 -0.876127 -0.48208
f 30/39/39 49/37/76 29/38/39

v 0.9 -0.190142 -0.327058
f 49/37/76 30/39/39 51/36/76

vt -1.14682 -2.86097
f 30/41/35 31/42/35 51/70/35

vt -1.0861 -2.78918
f 51/70/35 31/42/35 32/71/35

f 51/70/35 32/71/35 34/59/35

f 34/59/35 46/60/35 51/70/35

vn 2.08839e-016 -1.58976e-015 -1
f 48/35/74 51/36/77 46/32/74

f 51/36/77 48/35/74 49/37/77

