# Alias OBJ Model File
# Exported from SketchUp, (c) 2000-2006 Google, Inc.
# File units = meters

mtllib collateral_block.mtl

g Mesh1 Model

usemtl CollateralBlockMetal
v 0.8 0.499592 0.288911
vt -3.69741 6.53697
vn 0 1 0.000707292
v -0.8 0.5 -0.288204
vt -4.33526 6.9964
v -0.8 0.499592 0.288911
vt -4.33515 6.53634
f 1/1/1 2/2/1 3/3/1

v 0.8 0.5 -0.288204
vt -3.69752 6.99704
f 2/2/1 1/1/1 4/4/1

vt 10.1483 12.9381
vn 0.743158 0.669115 0.00047326
vt 10.1483 12.9377
v 1.25 0 1.80478e-016
vt 9.93842 12.4718
f 4/5/2 1/6/2 5/7/2

vn 0.743158 0.334148 0.579708
v 0.8 -0.000408188 0.577115
vt 10.1483 12.4714
f 5/7/3 1/6/3 6/8/3

vn 0 0.499387 0.866379
v -0.8 -0.000408188 0.577115
vt 10.8944 12.4714
vn -0.457231 -0.000629028 0.889348
vn 0 -0.000707292 1
f 1/6/4 7/9/5 6/8/6

vt 10.8944 12.9377
vn -0.580326 0.586703 0.564803
f 7/9/5 1/6/4 3/10/7

v -1.25 0 9.02389e-017
vt 11.1042 12.4718
vn -1 -7.46963e-017 0
vn -0.457231 -0.000629028 0.889348
vn -0.580326 0.586703 0.564803
f 8/11/8 7/9/9 3/10/10

vn -1 -1.24494e-017 0
v -0.8 -0.5 0.288204
vt 10.8944 12.0055
vn -0.580326 -0.587501 0.563972
vn -0.457231 -0.000629028 0.889348
f 8/11/11 9/12/12 7/9/13

v -0.8 -0.499592 -0.288911
vt 10.8944 12.0059
vn -0.580326 -0.586703 -0.564803
vn -1 -4.97975e-017 -6.26116e-018
f 10/13/14 9/12/12 8/11/15

v 0.8 -0.499592 -0.288911
vn 0 -1 -0.000707292
f 11/2/16 9/1/16 10/4/16

v 0.8 -0.5 0.288204
f 9/1/16 11/2/16 12/3/16

vt 10.1483 12.0059
vn 0.743158 -0.669115 -0.00047326
vt 10.1483 12.0055
f 11/14/17 5/7/17 12/15/17

v 0.8 0.000408188 -0.577115
vt 10.1483 12.4722
vn 0.743158 -0.334148 -0.579708
f 13/16/18 5/7/18 11/14/18

vn 0.743158 0.334968 -0.579234
f 13/16/19 4/5/19 5/7/19

vn 0 0.000707292 -1
vt 10.8944 12.9381
vn 0 0.500612 -0.865672
f 13/16/20 2/17/21 4/5/21

v -0.8 0.000408188 -0.577115
vt 10.8944 12.4722
vn -0.457231 0.000629028 -0.889348
f 2/17/21 13/16/20 14/18/22

vn 0 -0.499387 -0.866379
f 11/14/23 14/18/22 13/16/20

f 14/18/22 11/14/23 10/13/14

vn -1 -6.22469e-017 0
f 14/18/22 10/13/14 8/11/24

vn -1 -8.71456e-017 0
vn -0.788601 0.53274 -0.307076
f 14/18/22 8/11/25 2/17/26

vn -1 -7.46963e-017 -1.69842e-017
f 2/17/26 8/11/27 3/10/10

vn 0.743158 -0.334968 0.579234
f 5/7/28 6/8/28 12/15/28

vn 0 -0.500612 0.865672
f 6/8/6 9/12/12 12/15/29

f 9/12/12 6/8/6 7/9/13

