# Alias OBJ Model File
# Exported from SketchUp, (c) 2000-2006 Google, Inc.
# File units = meters

mtllib deco_block.mtl

g Mesh1 Model

usemtl DecoBlockMaterial
v 1.25 0.5 -0.65
vt 6.01119 -2.60848
vn 0 -2.04079e-007 -1
v 1.25 -0.5 -0.65
vt 6.01119 -2.99019
v -1.25 -0.5 -0.65
vt 6.98858 -2.99019
f 1/1/1 2/2/1 3/3/1

v 1.25 0.5 0.687454
vt -1.97368 6.36839
vn 1 0 0
vt -1.56826 6.01677
vt -1.56826 6.36839
f 4/4/2 2/5/2 1/6/2

v 1.25 -0.5 0.687454
vt -1.97368 6.01677
f 2/5/2 4/4/2 5/7/2

v -1.25 0.5 0.687454
vt 5.41172 -3.00059
vn 0 0 1
vt 4.99745 -3.59242
vt 5.40918 -3.59301
f 6/8/3 5/9/3 4/10/3

v -1.25 -0.5 0.687454
vt 5 -3
f 6/8/3 7/11/3 5/9/3

vt -1.95687 6.02014
vn -1 0 0
vt -1.55146 6.02014
vt -1.55146 6.37177
f 3/12/4 7/13/4 6/14/4

v 1.25 -0.5 0.707454
vt 5.01159 -2.99593
vn 1.59088e-008 -1 1.11228e-007
vt 5.98688 -2.99227
vt 5.988 -2.61051
f 8/15/5 7/16/5 3/17/5

v -1.25 -0.5 0.707454
vt 5.98687 -2.99798
f 7/16/5 8/15/5 9/18/5

v -0.75 -0.5 0.821199
vt 4.86572 -3.47375
vn 1.12229e-008 -1 1.56186e-007
vt 4.91204 -3.5923
vt 4.91459 -2.99988
f 10/19/6 9/20/6 8/21/6

v -1.25 -0.5 0.821199
vt 4.86521 -3.59223
f 9/20/6 10/19/6 11/22/6

v -1.2008 -0.334383 0.821199
vt 5.06814 -3.01176
vn -7.21911e-016 2.14458e-016 1
vt 5 -3
vt 4.99949 -3.11848
f 12/23/7 11/24/7 10/25/7

v -1.2008 -0.334383 0.707454
vt 7.92159 -3.57135
vn -0.958596 0.28477 -1.77887e-015
vt 7.9571 -3.58254
vt 7.9571 -3.57135
f 13/26/8 11/27/8 12/28/8

vt 7.92159 -3.58254
f 11/27/8 13/26/8 9/29/8

vn -0.911555 0.411178 -2.01623e-015
v -1.12976 -0.176892 0.821199
vt 7.9571 -3.5552
f 13/26/9 12/28/9 14/30/9

vt 5.13291 -3.02868
vn 1.02096e-007 2.77901e-007 1
vt 5.06814 -3.01176
vt 4.99949 -3.11848
f 14/31/10 12/32/10 10/33/10

vt -10.3601 0.865668
vn -0.648012 -0.76163 1.87626e-007
v -1.12976 -0.176892 0.871199
vt -10.5059 0.875852
vt -10.5059 0.865668
f 10/34/11 15/35/11 14/36/11

v -0.75 -0.5 0.871199
vt -10.3601 0.875852
f 15/35/11 10/34/11 16/37/11

vt 4.84513 -3.47372
f 10/19/6 8/21/6 16/38/6

v 0.75 -0.5 0.821199
vt 4.86725 -3.1183
f 16/38/6 8/21/6 17/39/6

v 1.25 -0.5 0.821199
vt 4.86776 -2.99981
f 17/39/6 8/21/6 18/40/6

vt 7.92159 -3.01406
vn 0.958596 0.28477 1.48592e-015
v 1.2008 -0.334383 0.821199
vt 7.9571 -3.02525
vt 7.9571 -3.01406
f 8/41/12 19/42/12 18/43/12

v 1.2008 -0.334383 0.707454
vt 7.92159 -3.02525
vn 0.958596 0.284771 -9.55039e-008
f 20/44/13 19/42/13 8/41/13

vn 0.911555 0.411178 -1.37897e-007
v 1.12976 -0.176892 0.821199
vt 7.9571 -3.0414
f 20/44/14 21/45/14 19/42/14

v 1.12976 -0.176892 0.707454
vt 7.92159 -3.0414
vn 0.911555 0.411178 -1.37897e-007
f 22/46/15 21/45/15 20/44/15

vn 0.847956 0.530067 -1.77769e-007
v 1.03818 -0.03039 0.821199
vt 7.9571 -3.06223
f 22/46/16 23/47/16 21/45/16

v 1.03818 -0.03039 0.707454
vt 7.92159 -3.06223
vn 0.847956 0.530066 4.90987e-007
f 24/48/17 23/47/17 22/46/17

v 0.927718 0.102458 0.707454
vt 7.92159 -3.08735
vn 0.768917 0.639349 4.21937e-007
f 25/49/18 23/47/18 24/48/18

vn 0.768917 0.639348 -1.60814e-007
v 0.927718 0.102458 0.821199
vt 7.9571 -3.08735
f 25/49/19 26/50/19 23/47/19

vn 0.675922 0.736973 -1.8537e-007
v 0.864054 0.160848 0.707454
vt 7.92159 -3.10182
f 25/49/20 27/51/20 26/50/20

vn 0.675925 0.736971 -2.59665e-006
v 0.800391 0.219238 0.821199
vt 7.9571 -3.1163
f 26/50/21 27/51/21 28/52/21

vn 0.675927 0.736968 -1.23579e-007
v 0.800391 0.219238 0.707454
vt 7.92159 -3.1163
f 27/51/22 29/53/22 28/52/22

vn 0.570626 0.82121 -1.37705e-007
v 0.658509 0.317826 0.821199
vt 7.9571 -3.14856
f 29/53/23 30/54/23 28/52/23

vn 0.570626 0.82121 -1.37705e-007
v 0.658509 0.317826 0.707454
vt 7.92159 -3.14856
f 29/53/24 31/55/24 30/54/24

vn 0.454948 0.890518 -1.49327e-007
v 0.504653 0.396428 0.821199
vt 7.9571 -3.18355
f 31/55/25 32/56/25 30/54/25

vn 0.454948 0.890518 -2.98654e-007
v 0.504653 0.396428 0.707454
vt 7.92159 -3.18355
f 31/55/26 33/57/26 32/56/26

vn 0.331011 0.943627 -3.16466e-007
v 0.341622 0.453617 0.821199
vt 7.9571 -3.22062
f 32/56/27 33/57/27 34/58/27

vn 0.331011 0.943627 -6.32931e-007
v 0.341622 0.453617 0.707454
vt 7.92159 -3.22062
f 33/57/28 35/59/28 34/58/28

vn 0.20104 0.979583 -6.57048e-007
v 0.172378 0.488351 0.821199
vt 7.9571 -3.2591
f 35/59/29 36/60/29 34/58/29

vn 0.20104 0.979583 -6.57048e-007
v 0.172378 0.488351 0.707454
vt 7.92159 -3.2591
f 35/59/30 37/61/30 36/60/30

vn 0.0674248 0.997724 -6.69217e-007
v -6.53067e-008 0.5 0.707454
vt 7.92159 -3.2983
f 37/61/31 38/62/31 36/60/31

vn 0.0674248 0.997724 -6.69217e-007
v -6.53067e-008 0.5 0.821199
vt 7.9571 -3.2983
f 36/60/32 38/62/32 39/63/32

vn -0.0674248 0.997724 -6.69217e-007
v -0.172378 0.488351 0.821199
vt 7.9571 -3.3375
f 39/63/33 38/62/33 40/64/33

vn -0.0674248 0.997724 -6.69217e-007
v -0.172378 0.488351 0.707454
vt 7.92159 -3.3375
f 38/62/34 41/65/34 40/64/34

vn -0.20104 0.979583 -6.57048e-007
v -0.341622 0.453617 0.707454
vt 7.92159 -3.37598
f 41/65/35 42/66/35 40/64/35

vn -0.20104 0.979583 -9.85573e-007
v -0.341622 0.453617 0.821199
vt 7.9571 -3.37598
f 40/64/36 42/66/36 43/67/36

vn -0.331011 0.943627 -9.49397e-007
v -0.504653 0.396428 0.707454
vt 7.92159 -3.41305
f 42/66/37 44/68/37 43/67/37

vn -0.331011 0.943627 -3.16466e-007
v -0.504653 0.396428 0.821199
vt 7.9571 -3.41305
f 43/67/38 44/68/38 45/69/38

vn -0.454948 0.890518 -2.98654e-007
v -0.658509 0.317826 0.821199
vt 7.9571 -3.44804
f 44/68/39 46/70/39 45/69/39

vn -0.454948 0.890518 -1.49327e-007
v -0.658509 0.317826 0.707454
vt 7.92159 -3.44804
f 44/68/40 47/71/40 46/70/40

vn -0.570626 0.82121 -1.37705e-007
v -0.800391 0.219238 0.707454
vt 7.92159 -3.4803
f 47/71/41 48/72/41 46/70/41

vn -0.570626 0.82121 2.45038e-007
v -0.800391 0.219238 0.821199
vt 7.9571 -3.4803
f 46/70/42 48/72/42 49/73/42

vn -0.675927 0.736968 3.29794e-007
v -0.864054 0.160848 0.707454
vt 7.92159 -3.49478
f 49/73/43 48/72/43 50/74/43

vn -0.675925 0.736971 -2.33907e-006
v -0.927718 0.102458 0.821199
vt 7.9571 -3.50925
f 49/73/44 50/74/44 51/75/44

vn -0.675922 0.736973 -1.2358e-007
v -0.927718 0.102458 0.707454
vt 7.92159 -3.50925
vn -0.724067 0.68973 -1.15658e-007
f 50/74/45 52/76/46 51/75/46

v -1.03818 -0.03039 0.707454
vt 7.92159 -3.53437
vn -0.768917 0.639349 -1.0721e-007
f 52/76/46 53/77/47 51/75/46

vn -0.768917 0.639348 -4.02036e-008
v -1.03818 -0.0303899 0.821199
vt 7.9571 -3.53437
f 53/77/48 54/78/48 51/75/48

vn -0.847956 0.530067 -3.33317e-008
f 53/77/49 14/30/49 54/78/49

vn -0.847956 0.530067 -8.88846e-008
v -1.12976 -0.176892 0.707454
vt 7.92159 -3.5552
vn -0.881761 0.471696 -7.90966e-008
f 53/77/50 55/79/51 14/30/51

vn -0.911555 0.411178 -6.89487e-008
f 55/79/51 13/26/52 14/30/51

vt 5.19313 -3.05047
vn 6.42796e-008 3.08072e-007 1
vt 5.13291 -3.02868
v -0.61702 -0.283876 0.821199
vt 5.08834 -3.15012
f 54/80/53 14/81/53 56/82/53

vt -10.2401 0.469464
vn 0.204253 0.978918 -2.12618e-007
vt -10.2188 0.576892
vt -10.2501 0.47245
f 15/83/54 56/84/54 14/85/54

v -0.61702 -0.283876 0.871199
vt -10.2089 0.573906
f 56/84/54 15/83/54 57/86/54

vt -10.1417 0.545625
vn -1.91574e-009 2.14106e-007 1
vt -10.2049 0.572712
vt -10.2362 0.46827
f 16/87/55 57/88/55 15/89/55

v 0.75 -0.5 0.871199
vt -10.1417 0.851165
f 57/88/55 16/87/55 58/90/55

vt 4.84666 -3.11827
f 16/38/6 17/39/6 58/91/6

vt -10.3601 0.531122
vn 0.648012 -0.76163 1.87626e-007
v 1.12976 -0.176892 0.871199
vt -10.5059 0.520937
vt -10.3601 0.520937
f 17/92/56 59/93/56 58/94/56

vt -10.5059 0.531122
f 59/93/56 17/92/56 21/95/56

vt 5.13061 -3.56412
vn -1.02096e-007 2.77901e-007 1
vt 4.99796 -3.47394
vt 5.06569 -3.58086
f 21/96/57 17/97/57 19/98/57

vt 5.06569 -3.58086
vn 7.21911e-016 2.14459e-016 1
vt 4.99796 -3.47394
vt 4.99745 -3.59242
f 19/99/58 17/100/58 18/101/58

v 0.61702 -0.283876 0.821199
vt -10.2188 0.819898
vn -0.204253 0.978918 -2.18398e-007
vt -10.2401 0.927325
vt -10.2501 0.924339
f 60/102/59 59/103/59 21/104/59

v 0.61702 -0.283876 0.871199
vt -10.2089 0.822883
f 59/103/59 60/102/59 61/105/59

vt -10.2717 0.531122
vn 0.939541 -0.342436 1.06499e-007
v 0.800391 0.219238 0.871199
vt -10.4282 0.520937
vt -10.2717 0.520937
f 60/106/60 62/107/60 61/108/60

vt -10.4282 0.531122
f 62/107/60 60/106/60 28/109/60

vt 5.29404 -3.4863
vn -1.60898e-007 2.61459e-007 1
vt 5.08708 -3.44255
vt 5.24583 -3.5164
f 28/110/61 60/111/61 26/112/61

vt 5.24583 -3.5164
vn 8.07363e-008 6.71316e-008 1
vt 5.08708 -3.44255
vt 5.19102 -3.5425
f 26/113/62 60/114/62 23/115/62

vt 5.19102 -3.5425
vn -6.42796e-008 3.08072e-007 1
vt 5.08708 -3.44255
vt 5.13061 -3.56412
f 23/116/63 60/117/63 21/118/63

vt -10.3636 0.849528
vn -0.581536 0.81352 -1.62889e-007
v 0.36713 -0.090474 0.871199
vt -10.2647 0.769776
vt -10.3553 0.858029
f 28/119/64 63/120/64 62/121/64

v 0.36713 -0.090474 0.821199
vt -10.273 0.761275
f 63/120/64 28/119/64 64/122/64

vt 5.33477 -3.45274
vn 5.80443e-008 8.3534e-008 1
vt 5.16696 -3.38345
vt 5.29404 -3.4863
f 30/123/65 64/124/65 28/125/65

vt 5.36729 -3.41632
vn -1.96228e-007 2.64993e-007 1
vt 5.16696 -3.38345
vt 5.33477 -3.45274
f 32/126/66 64/127/66 30/128/66

vt 5.391 -3.37772
vn 6.6887e-008 1.90677e-007 1
vt 5.16696 -3.38345
vt 5.36729 -3.41632
f 34/129/67 64/130/67 32/131/67

v 0.341622 0.453617 0.871199
vt -10.4157 0.520937
vn 0.998903 0.0468304 -4.78726e-008
vt -10.2564 0.531122
vt -10.4157 0.531122
f 65/132/68 64/133/68 34/134/68

vt -10.2564 0.520937
f 64/133/68 65/132/68 63/135/68

v -6.86037e-008 -0.00249595 0.871199
vt -10.2871 0.698395
vt -10.2614 0.773177
vt -10.4205 0.767981
f 66/136/55 63/137/55 65/138/55

v -0.36713 -0.090474 0.871199
vt -10.2614 0.623613
f 63/137/55 66/136/55 67/139/55

v -0.341622 0.453617 0.871199
vt -10.4205 0.628809
f 68/140/55 67/139/55 66/136/55

vt -10.4157 0.875852
vn -0.998903 0.0468304 2.36825e-009
v -0.36713 -0.090474 0.821199
vt -10.2564 0.865668
vt -10.2564 0.875852
f 68/141/69 69/142/69 67/143/69

vt -10.4157 0.865668
f 69/142/69 68/141/69 43/144/69

vt -10.4539 0.520937
vn 0.80039 0.59948 -7.73251e-008
v -6.63311e-008 -0.00249596 0.821199
vt -10.2873 0.531122
vt -10.4539 0.531122
f 68/145/70 70/146/70 43/147/70

vt -10.2873 0.520937
f 70/146/70 68/145/70 66/148/70

vt -10.4229 0.763301
vn -0.80039 0.59948 -1.16178e-007
vt -10.2957 0.682015
vt -10.2896 0.693715
f 65/149/71 70/150/71 66/151/71

vt -10.429 0.751601
f 70/150/71 65/149/71 34/152/71

vt 5.40548 -3.33764
vn 3.97959e-008 1.93909e-007 1
vt 5.20356 -3.2965
vt 5.391 -3.37772
f 36/153/72 70/154/72 34/155/72

vt 5.41045 -3.2968
vn 1.37229e-008 2.03066e-007 1
vt 5.20356 -3.2965
vt 5.40548 -3.33764
f 39/156/73 70/157/73 36/158/73

vt 5.41045 -3.2968
vn -1.37229e-008 2.03066e-007 1
vt 5.40583 -3.25594
vt 5.20356 -3.2965
f 39/159/74 40/160/74 70/161/74

vt 5.40583 -3.25594
vn -3.97959e-008 1.93909e-007 1
vt 5.3917 -3.21582
vt 5.20356 -3.2965
f 40/162/75 43/163/75 70/164/75

vt 5.3917 -3.21582
vn -6.6887e-008 1.90677e-007 1
vt 5.36832 -3.17715
vt 5.16771 -3.20945
f 43/165/76 45/166/76 69/167/76

vt 5.36832 -3.17715
vn 1.96228e-007 2.64993e-007 1
vt 5.33611 -3.14064
vt 5.16771 -3.20945
f 45/168/77 46/169/77 69/170/77

vt 5.33611 -3.14064
vn -5.80443e-008 8.35339e-008 1
vt 5.29567 -3.10696
vt 5.16771 -3.20945
f 46/171/78 49/172/78 69/173/78

v -0.800391 0.219238 0.871199
vt -10.3553 0.538761
vn 0.581536 0.81352 -2.1121e-007
vt -10.273 0.635514
vt -10.3636 0.547262
f 71/174/79 69/175/79 49/176/79

vt -10.2647 0.627013
f 69/175/79 71/174/79 67/177/79

vt -10.352 0.53536
f 57/88/55 67/139/55 71/178/55

vt -10.2049 0.824078
f 67/139/55 57/88/55 61/179/55

f 58/90/55 61/179/55 57/88/55

vt -10.2362 0.928519
f 61/179/55 58/90/55 59/180/55

f 67/139/55 61/179/55 63/137/55

vt -10.352 0.861429
f 62/181/55 63/137/55 61/179/55

vt -10.4282 0.875852
vn -0.939541 -0.342436 1.11448e-007
vt -10.2717 0.865668
vt -10.2717 0.875852
f 71/182/80 56/183/80 57/184/80

vt -10.4282 0.865668
f 56/183/80 71/182/80 49/185/80

vt 5.29567 -3.10696
vn 1.60898e-007 2.61459e-007 1
vt 5.24772 -3.07672
vt 5.08834 -3.15012
f 49/186/81 51/187/81 56/188/81

vt 5.24772 -3.07672
vn -8.07363e-008 6.71316e-008 1
vt 5.19313 -3.05047
vt 5.08834 -3.15012
f 51/189/82 54/190/82 56/191/82

vt 5.988 -2.61051
vn -1.215e-011 -1 1.39035e-007
vt 5.0116 -2.99022
vt 5.01159 -2.99593
f 3/192/83 5/193/83 8/194/83

vt 5.01271 -2.60847
f 5/193/83 3/192/83 2/195/83

v -1.25 0.5 -0.65
vt -1.95687 6.37177
f 72/196/4 3/12/4 6/14/4

vn 1.10906e-023 -2.04079e-007 -1
vt 6.98858 -2.60848
f 1/1/84 3/3/84 72/197/84

vt 6.99291 -2.60792
vn -6.2001e-024 1 -1.14088e-007
vt 6.00837 -2.60792
vt 6.00837 -2.99158
f 1/198/85 72/199/85 6/200/85

vn 0 1 -1.14088e-007
vt 6.99291 -2.99158
f 1/198/86 6/200/86 4/201/86

