# Alias OBJ Model File
# Exported from SketchUp, (c) 2000-2006 Google, Inc.
# File units = meters

mtllib paddle_sticky_attachment.mtl

g Mesh1 Model

usemtl FrontColor
v 2.48157e-016 0.75 0.2
vt -0.22488 17.3018
vn -0.0381746 0.903571 0.426733
v -0.5 0.65 0.3
vt -20.0143 12.1174
vn -0.0608363 0.901839 0.427768
v 2.70717e-016 0.4 0.5
vt -0.5622 -0.843753
vn 0.00723061 0.642157 0.766539
f 1/1/1 2/2/2 3/3/3

vt 7.87402 5.79083
vn -0.0381746 0.903571 0.426733
v -0.5 0.65 -0.3
vt -11.811 -14.284
vn -0.089419 0.911069 -0.40244
vt 11.811 -14.284
f 1/4/4 4/5/5 2/6/2

vt 7.87402 5.79083
v 1.80478e-016 0.75 -0.2
vt -7.87402 5.79083
vn 0.0381746 0.903571 -0.426733
f 1/7/4 5/8/6 4/5/5

v 0.5 0.65 0.3
vt -11.811 -14.284
vn 0.089419 0.911069 0.40244
vt 7.87402 5.79083
vn 0.0381746 0.903571 -0.426733
vt -7.87402 5.79083
vn -0.0381746 0.903571 0.426733
f 6/9/7 5/10/8 1/11/9

v 0.5 0.65 -0.3
vt 11.811 -14.284
vn 0.0608363 0.901839 -0.427768
vt 7.87402 5.79083
vt -11.811 -14.284
f 7/12/10 5/13/6 6/14/7

vt -0.22488 17.3018
vn 0.0381746 0.903571 -0.426733
vt -20.0143 12.1174
vn 0.0608363 0.901839 -0.427768
v 1.80478e-016 0.4 -0.5
vt -0.5622 -0.843753
vn -0.00723061 0.642157 -0.766539
f 5/15/11 7/16/12 8/17/13

vt -19.685 12.6046
vn 0.0608363 0.901839 -0.427768
v 0.5 0.4 -0.5
vt -19.685 5.32907e-014
vn 0.0518048 0.674867 -0.736119
vt -6.39004e-015 5.50671e-014
f 7/18/14 9/19/15 8/20/13

v 1 0.65 -0.2
vt -37.0613 10.6034
vn 0.417245 0.807004 -0.417912
vt -15.4422 -1.90623
vt -16.9864 10.6034
f 10/21/16 9/22/15 7/23/10

v 1 0.4 -0.5
vt -39.3701 -5.04082
vn 0.33654 0.72341 -0.602842
vt -19.685 -5.04082
vt -39.3701 10.3337
f 11/24/17 9/25/15 10/26/16

vt -8.72566 -12.9698
vt -18.033 -0.732598
v 1.375 -3.60956e-016 -0.5
vt -17.8149 -32.5492
vn 0.550205 0.569394 -0.61079
f 11/27/17 10/28/16 12/29/18

vt -28.9371 5.01501
vn 0.417245 0.807004 -0.417912
v 1.37 0.305 -0.25
vt -40.1526 -11.5613
vn 0.701756 0.635874 -0.321253
vt -35.0192 -26.2157
f 10/30/19 13/31/20 12/32/18

vt 9.84252 -31.2597
vn 0.701756 0.635874 -0.321253
vt 7.87402 -11.3428
v 1.37 0.305 0.25
vt -9.84252 -31.2597
vn 0.680147 0.661961 0.314972
f 13/33/21 10/34/16 14/35/22

vt -9.84252 -31.2597
vt 7.87402 -11.3428
vn 0.417245 0.807004 -0.417912
v 1 0.65 0.2
vt -7.87402 -11.3428
vn 0.352359 0.871716 0.340522
f 14/36/22 10/37/23 15/38/24

vt 39.3701 7.87402
vt 19.685 11.811
vn 0.0608363 0.901839 -0.427768
vt 39.3701 -7.87402
f 10/39/23 7/40/25 15/41/24

vt 19.685 -11.811
vn 0.089419 0.911069 0.40244
f 15/41/24 7/40/25 6/42/26

vt 37.0613 4.80485
vt 16.9864 4.80485
v 1 0.4 0.5
vt 34.745 -10.3942
vn 0.266423 0.693671 0.669208
f 15/43/24 6/44/7 16/45/27

vt 19.685 12.6046
vn 0.089419 0.911069 0.40244
v 0.5 0.4 0.5
vt 19.685 1.95399e-014
vn -0.010409 0.633442 0.77372
vt 39.3701 1.95399e-014
f 6/46/28 17/47/29 16/48/27

vt 0.314709 18.1518
vt 20.4561 0.510903
vt 20.1414 13.1115
f 1/49/4 17/50/29 6/51/7

vt 8.01799e-015 17.2947
vt 6.27821e-015 -0.854057
vt 19.685 -0.854057
f 1/52/1 3/53/3 17/54/29

vt 18.033 -0.732598
vt 8.72566 -12.9698
vn 0.266423 0.693671 0.669208
v 1.375 -9.02389e-017 0.5
vt 17.8149 -32.5492
vn 0.550205 0.569394 0.61079
f 15/55/24 16/56/30 18/57/31

vt 28.9371 5.01501
vn 0.352359 0.871716 0.340522
vt 35.0192 -26.2157
vt 40.1526 -11.5613
vn 0.680147 0.661961 0.314972
f 15/58/32 18/59/31 14/60/33

vt 33.7502 -12.6631
vt 27.3541 -26.8121
vn 0.550205 0.569394 0.61079
v 1.75 -0.4 0.5
vt 38.3833 -45.3682
vn 0.839451 0.363324 0.404125
f 14/61/33 18/62/34 19/63/35

v 1.77 -0.18 0.207911
vt 30.9971 -40.0801
vn 0.897403 0.434974 0.0739232
vt 21.0482 -17.3564
vt 20.9158 -50.3877
f 20/64/36 14/65/33 19/66/35

vt 9.84252 -25.0545
vn 0.701756 0.635874 -0.321253
vt -9.84252 -25.0545
vn 0.680147 0.661961 0.314972
vt -8.18546 -49.8052
f 13/67/37 14/68/38 20/69/36

v 1.75 -0.4 -0.5
vt 4.42134 -50.4016
vn 0.885566 0.352709 -0.302274
vt -1.97672 -17.9956
vn 0.701756 0.635874 -0.321253
vt -22.9674 -40.2891
vn 0.897403 0.434974 0.0739232
f 21/70/39 13/71/40 20/72/41

vt -33.7502 -12.6631
vn 0.701756 0.635874 -0.321253
vt -38.3833 -45.3682
vt -27.3541 -26.8121
vn 0.550205 0.569394 -0.61079
f 13/73/42 21/74/39 12/75/43

vt 19.685 -9.44566
vn 0.885566 0.352709 -0.302274
vt -8.18546 -0.748524
vt -19.685 -9.44566
f 21/76/44 20/77/36 19/78/35

vt -5.93744e-015 17.2947
vt -4.18547e-015 -0.854057
v -0.5 0.4 -0.5
vt 19.685 -0.854057
vn 0.010409 0.633442 -0.77372
f 5/79/8 8/80/13 22/81/45

vt 0.314709 18.1518
vn 0.0381746 0.903571 -0.426733
vt 20.4561 0.510903
vt 20.1414 13.1115
f 5/82/46 22/83/45 4/84/5

vt 19.685 12.6046
vt 19.685 3.55271e-014
vn 0.010409 0.633442 -0.77372
v -1 0.4 -0.5
vt 39.3701 3.73035e-014
vn -0.266423 0.693671 -0.669208
f 4/85/5 22/86/47 23/87/48

vt 16.9864 4.80485
vt 34.745 -10.3942
v -1 0.65 -0.2
vt 37.0613 4.80485
vn -0.382151 0.873487 -0.301631
f 4/88/5 23/89/48 24/90/49

v -1.375 1.35358e-016 -0.5
vt 17.8149 -32.5492
vn -0.517461 0.551803 -0.654024
vt 18.033 -0.732598
vn -0.382151 0.873487 -0.301631
vt 8.72566 -12.9698
f 25/91/50 24/92/51 23/93/48

vt 31.0921 6.9246
vt 38.6012 -23.994
v -1.495 0.242809 -0.25
vt 47.3865 -12.4443
vn -0.66991 0.629667 -0.393369
f 24/94/49 25/95/50 26/96/52

vt 42.0382 -11.9509
vt 32.4561 -22.8486
v -1.75 -0.4 -0.5
vt 44.4423 -40.8014
vn -0.787666 0.305869 -0.534814
f 26/97/52 25/98/50 27/99/53

vt 39.4901 -13.2515
vt 41.0802 -42.1583
v -1.79 -0.164382 -0.3
vt 47.2659 -31.5627
vn -0.944723 0.277308 -0.174926
f 26/100/52 27/101/53 28/102/54

vt -19.685 -3.99437
vn -0.787666 0.305869 -0.534814
v -1.75 -0.4 0.5
vt 19.685 -3.99437
vn -0.864214 0.246519 0.438592
vt -11.811 5.41464
f 27/103/55 29/104/56 28/105/54

vt -16.9033 -11.8191
vt 14.6239 -21.1232
v -1.74 -0.0838194 0.3
vt 6.79936 -8.63781
vn -0.854579 0.473957 0.212271
f 28/106/54 29/107/56 30/108/57

v -1.47 0.28309 0.25
vt -41.6382 -9.70349
vn -0.627054 0.66993 0.397488
vt -49.1934 -26.0881
vt -44.9796 -40.2073
vn -0.864214 0.246519 0.438592
f 31/109/58 30/110/57 29/111/59

vt -9.30161 -27.1934
vn -0.66991 0.629667 -0.393369
vt 12.4396 -43.1496
vn -0.854579 0.473957 0.212271
vt 10.3736 -25.2256
vn -0.627054 0.66993 0.397488
f 26/112/60 30/113/61 31/114/62

vt -10.8109 -46.7387
vt 12.7809 -42.8189
vn -0.854579 0.473957 0.212271
vt -9.0072 -26.9269
f 28/115/54 30/116/63 26/117/52

vt -5.96094 -14.4877
vt -6.98473 -39.7783
vt 12.6297 -37.2764
vn -0.627054 0.66993 0.397488
f 24/118/49 26/119/60 31/120/64

v -1 0.65 0.2
vt 7.87402 -15.2862
vn -0.326558 0.804454 0.4962
vt -7.87402 -15.2862
vt 9.84252 -38.7609
vn -0.627054 0.66993 0.397488
f 32/121/65 24/122/49 31/123/66

vt -19.685 -11.811
vt -39.3701 7.87402
vt -39.3701 -7.87402
f 2/124/2 24/125/49 32/126/65

vt -19.685 11.811
vn -0.089419 0.911069 -0.40244
f 4/127/67 24/125/49 2/124/2

vt -37.0613 10.6034
vn -0.326558 0.804454 0.4962
v -0.5 0.4 0.5
vt -15.4422 -1.90623
vn -0.0518048 0.674867 0.736119
vt -16.9864 10.6034
vn -0.0608363 0.901839 0.427768
f 32/128/68 33/129/69 2/130/70

vt -19.685 -5.04082
vt -39.3701 10.3337
v -1 0.4 0.5
vt -39.3701 -5.04082
vn -0.33654 0.72341 0.602842
f 33/131/69 32/132/65 34/133/71

vt -18.033 -0.732598
v -1.375 4.51195e-017 0.5
vt -17.8149 -32.5492
vn -0.502985 0.547138 0.669064
vt -8.72566 -12.9698
f 32/134/68 35/135/72 34/136/71

vt -32.4379 8.30298
vt -48.4102 -9.01237
vt -40.8869 -22.3721
f 32/137/65 31/138/66 35/139/72

vt -41.9431 -9.52753
vt -45.3908 -40.0195
vt -33.26 -22.1642
vn -0.502985 0.547138 0.669064
f 31/140/62 29/141/59 35/142/73

vt -19.685 12.6046
vt -19.685 1.24345e-014
vt 4.93503e-015 8.88178e-015
f 2/143/70 33/144/69 3/145/3

