# Alias OBJ Model File
# Exported from SketchUp, (c) 2000-2006 Google, Inc.
# File units = meters

mtllib paddle_beam_attachment.mtl

g Mesh1 Model

usemtl Metal
v 1 0.4 -0.7
vt -5.50557 10.2472
vn 1 0 0
v 1 0.75 -0.5
vt -5.25613 9.37416
v 1 0.24 -0.5
vt -5.25613 10.6463
f 1/1/1 2/2/1 3/3/1

v 1 0.75 -0.7
vt -5.50557 9.37416
f 2/2/1 1/1/1 4/4/1

vt -5.50557 10.2472
vn -4.94198e-016 2.78119e-016 -1
v 0.7 0.55 -0.7
vt -5.87973 9.87305
vt -5.50557 9.37416
f 1/5/2 5/6/2 4/7/2

v 0.4 0.55 -0.7
vt -6.2539 9.87305
f 5/6/2 1/5/2 6/8/2

v 0.4 0.4 -0.7
vt -6.2539 10.2472
f 7/9/2 6/8/2 1/5/2

v 0.2 0.7 -0.7
vt -6.50334 9.49889
f 6/8/2 7/9/2 8/10/2

vt -5.97651 10.3959
vn -0.76053 -0.50702 -0.405616
v 0.4 0.24 -0.5
vt -6.26933 10.7842
vt -5.99576 9.40746
f 7/11/3 9/12/3 8/13/3

vt -5.50557 7.96201
vn -1.78981e-017 -0.780869 -0.624695
vt -6.2539 8.60089
vt -6.2539 7.96201
f 1/14/4 9/15/4 7/16/4

vt -5.50557 8.60089
f 9/15/4 1/14/4 3/17/4

vt -5.50557 9.87305
vn 1.08324e-016 -3.75321e-016 1
vt -6.2539 8.60089
vt -5.50557 8.60089
f 2/18/5 9/19/5 3/20/5

v 0.7 0.55 -0.5
vt -5.87973 9.37416
f 9/19/5 2/18/5 10/21/5

v 0.7 0.85 -0.5
vt -5.87973 10.1225
f 10/21/5 2/18/5 11/22/5

vt -5.51425 9.87362
vn 0.316228 0.948683 2.71806e-017
v 0.7 0.85 -0.7
vt -5.24152 10.6973
vt -5.50549 10.7083
f 2/23/6 12/24/6 11/25/6

vt -5.25029 9.86253
f 12/24/6 2/23/6 4/26/6

vt -5.87973 9.12472
f 4/7/2 5/6/2 12/27/2

vt -6.12918 9.87305
vn -1 0 0
vt -5.87973 9.12472
vt -5.87973 9.87305
f 10/28/7 12/29/7 5/30/7

vt -6.12918 9.12472
f 12/29/7 10/28/7 11/31/7

vt -6.2539 9.87305
vn 0 1 0
vt -5.87973 9.37416
vt -5.87973 9.87305
f 6/32/8 10/33/8 5/34/8

v 0.4 0.55 -0.5
vt -6.2539 9.37416
f 10/33/8 6/32/8 13/35/8

vt -6.5657 9.87305
vn 0.6 0.8 1.03143e-016
vt -6.2539 9.37416
vt -6.2539 9.87305
f 8/36/9 13/37/9 6/38/9

v 0.2 0.7 -0.5
vt -6.5657 9.37416
f 13/37/9 8/36/9 14/39/9

vt -5.99576 9.40746
vn -0.91707 -0.398726 -2.46101e-016
vt -6.26933 10.7842
vt -6.27011 9.40808
f 8/40/10 9/41/10 14/42/10

vt -6.2539 9.37416
vt -6.50334 9.74833
f 9/19/5 13/43/5 14/44/5

f 13/43/5 9/19/5 10/21/5

g Mesh2 Model

v -0.4 0.55 -0.5
vt -7.25167 9.37417
vn 3.00796e-016 1 -1.62861e-033
v -0.7 0.55 -0.7
vt -7.62583 9.87305
v -0.7 0.55 -0.5
vt -7.62583 9.37417
f 15/45/11 16/46/11 17/47/11

v -0.4 0.55 -0.7
vt -7.25167 9.87305
f 16/46/11 15/45/11 18/48/11

v -0.2 0.7 -0.5
vt -6.93986 9.37416
vn -0.6 0.8 -3.25723e-031
vt -7.25167 9.87305
vt -7.25167 9.37417
f 19/49/12 18/50/12 15/51/12

v -0.2 0.7 -0.7
vt -6.93986 9.87305
f 18/50/12 19/49/12 20/52/12

vt -7.52743 10.2781
vn 0.917857 -0.396911 0
vt -7.24925 10.2761
v -0.4 0.2375 -0.5
vt -7.24674 11.6778
f 20/53/13 19/54/13 21/55/13

vt -7.25167 9.37417
vn -5.65255e-017 -7.98768e-017 1
vt -7.25167 8.59465
vt -7.00223 9.74833
f 15/56/14 21/57/14 19/58/14

v -1 0.2375 -0.5
vt -8 8.59465
f 21/57/14 15/56/14 22/59/14

vt -7.62583 9.37417
f 17/60/14 22/59/14 15/56/14

v -1 0.75 -0.5
vt -8 9.87305
f 22/59/14 17/60/14 23/61/14

v -0.7 0.85 -0.5
vt -7.62583 10.1225
f 23/61/14 17/60/14 24/62/14

vt -7.62583 9.87305
vt -7.37639 9.12472
vt -7.37639 9.87305
f 16/63/1 24/64/1 17/65/1

v -0.7 0.85 -0.7
vt -7.62583 9.12472
f 24/64/1 16/63/1 25/66/1

vt -7.62583 9.87305
vn 2.55275e-016 -3.59508e-017 -1
v -1 0.75 -0.7
vt -8 9.37417
vt -7.62583 9.12472
f 16/67/15 26/68/15 25/69/15

v -1 0.4 -0.7
vt -8 10.2472
f 16/67/15 27/70/15 26/68/15

f 27/70/15 16/67/15 18/48/15

v -0.4 0.4 -0.7
vt -7.25167 10.2472
f 18/48/15 28/71/15 27/70/15

vt -7.00223 9.49889
f 28/71/15 18/48/15 20/72/15

vt -7.52743 10.2781
vn 0.758567 -0.505712 -0.410891
vt -7.24674 11.6778
vt -7.54507 11.2804
f 20/73/16 21/74/16 28/75/16

vt -8 10.89
vn 8.52393e-017 -0.776114 -0.630593
vt -7.25167 10.2472
vt -7.25167 10.89
f 22/76/17 28/77/17 21/78/17

f 28/77/17 22/76/17 27/70/17

vt -8.00533 8.59242
vt -8.25477 9.87082
vt -8.25477 8.99776
f 22/79/7 26/80/7 27/81/7

vt -8.00533 9.87082
f 26/80/7 22/79/7 23/82/7

vt -6.99936 10.8924
vn -0.316228 0.948683 1.32906e-031
vt -7.25869 10.0575
vt -6.996 10.0617
f 24/83/18 26/84/18 23/85/18

vt -7.26205 10.8882
f 26/84/18 24/83/18 25/86/18

g Mesh3 Model

v 0.5 0.5625 0.5
vt -3.64905 8.24225
vn 0 1 3.96543e-016
v 0.25 0.5625 0.4
vt -3.8961 8.43989
v 0.25 0.5625 0.5
vt -3.8961 8.24225
f 29/87/19 30/88/19 31/89/19

v 0.5 0.5625 0.4
vt -3.64905 8.43989
f 30/88/19 29/87/19 32/90/19

vt -3.64905 8.24225
vn -1 5.55316e-016 -1.01678e-017
v 0.5 0.725 0.4
vt -3.74787 8.4893
vt -3.74787 8.24225
f 29/91/20 33/92/20 32/93/20

v 0.5 0.725 0.5
vt -3.64905 8.4893
f 33/92/20 29/91/20 34/94/20

vn 9.02389e-017 -2.37993e-016 1
v 0.75 0.4 0.5
vt -3.40199 7.99519
vt -3.64905 8.4893
f 29/87/21 35/95/21 34/96/21

v 0.2 0.4 0.5
vt -3.94551 7.99519
f 35/95/21 29/87/21 36/97/21

v 2.70717e-016 0.4 0.5
vt -4.14316 7.99519
f 36/97/21 29/87/21 37/98/21

vt -3.8961 8.24225
f 31/99/21 37/98/21 29/87/21

vt -3.81827 8.24225
vn -0.544988 0.838444 7.00472e-017
v 2.70717e-016 0.4 0.25
vt -4.09448 8.73636
vt -4.09448 8.24225
f 31/100/22 38/101/22 37/102/22

vt -3.81827 8.43989
f 38/101/22 31/100/22 30/103/22

vt -3.85458 8.2738
vn 8.29154e-018 0.67828 -0.734803
v 0.75 0.4 0.25
vt -3.48781 9.01647
vt -4.15073 8.35355
f 30/104/23 39/105/23 38/106/23

vt -3.63361 8.49477
f 39/105/23 30/104/23 32/107/23

vt -3.86477 8.19501
vn -0.514496 2.95033e-016 -0.857493
vt -3.71756 8.89465
vt -3.92001 8.41598
f 33/108/24 39/109/24 32/110/24

vt -3.74787 8.08916
vn 0.792624 0.609711 3.13464e-016
vt -3.64905 8.78793
vt -3.8961 8.78793
f 33/111/25 35/112/25 39/113/25

vt -3.64905 8.08916
f 35/112/25 33/111/25 34/114/25

v -0.25 0.5625 0.4
vt -4.41564 8.48864
vn 0.544988 0.838444 7.00472e-017
vt -4.21278 8.06481
vt -4.10229 8.50676
f 40/115/26 37/116/26 38/117/26

v -0.25 0.5625 0.5
vt -4.45983 8.31187
f 37/116/26 40/115/26 41/118/26

v -0.5 0.5625 0.4
vt -4.63727 8.43989
vn 4.69242e-016 1 3.56889e-016
vt -4.39021 8.24225
vt -4.39021 8.43989
f 42/119/27 41/120/27 40/121/27

v -0.5 0.5625 0.5
vt -4.63727 8.24225
f 41/120/27 42/119/27 43/122/27

vt -4.53845 8.24225
vn 1 -4.51706e-032 -8.13421e-017
v -0.5 0.725 0.5
vt -4.63727 8.4893
vt -4.63727 8.24225
f 42/123/28 44/124/28 43/125/28

v -0.5 0.725 0.4
vt -4.53845 8.4893
f 44/124/28 42/123/28 45/126/28

vt -4.36348 8.19284
vn 0.514496 0 -0.857493
vt -4.36348 8.43989
v -0.75 0.4 0.25
vt -4.65159 8.68695
f 45/127/29 42/128/29 46/129/29

vt -4.39021 8.2542
vn -4.87128e-017 0.67828 -0.734803
vt -4.88432 8.59042
vt -4.63727 8.2542
f 40/130/30 46/131/30 42/132/30

vt -4.14316 8.59042
f 46/131/30 40/130/30 38/133/30

v -0.75 0.4 0.5
vt -4.74176 8.44527
vn -0.792624 0.609711 -1.56732e-016
vt -4.88432 9.45336
vt -5.09817 8.44527
f 47/134/31 45/135/31 46/136/31

vt -4.74176 9.45336
f 45/135/31 47/134/31 44/137/31

vt -4.88432 7.99519
vt -4.63727 8.24225
vt -4.63727 8.4893
f 47/138/21 43/139/21 44/140/21

vt -4.39021 8.24225
f 47/138/21 41/141/21 43/139/21

v -0.2 0.4 0.5
vt -4.3408 7.99519
f 48/142/21 41/141/21 47/138/21

f 41/141/21 48/142/21 37/98/21

vt -4.88432 7.99519
vn 8.98306e-017 1 -2.14368e-016
v -0.25 0.4 0.7
vt -4.39021 7.5999
vt -4.3408 7.99519
f 47/143/32 49/144/32 48/145/32

v -0.75 0.4 0.7
vt -4.88432 7.5999
f 49/144/32 47/143/32 50/146/32

vt -5.11825 7.70622
vn -0.789352 0.613941 2.21346e-016
v -1.1 -0.05 0.7
vt -5.15217 6.75897
vt -4.97402 7.58122
f 47/147/33 51/148/33 50/149/33

vt -5.2302 7.31104
vn 0 0 1
vt -4.39021 7.99519
f 51/150/34 49/151/34 50/138/34

v -0.65 -0.05 0.7
vt -4.7855 7.31104
f 49/151/34 51/150/34 52/152/34

vt -4.24502 7.774
vn 0.734694 -0.653061 0.183673
vt -4.3789 8.01983
vt -4.7962 7.36376
f 48/153/35 49/154/35 52/155/35

v 0.25 0.4 0.7
vt -3.8961 7.5999
vt -3.40199 7.99519
vt -3.94551 7.99519
f 53/156/8 35/157/8 36/158/8

v 0.75 0.4 0.7
vt -3.40199 7.5999
f 35/157/8 53/156/8 54/159/8

v 0.65 -0.05 0.7
vt -3.50081 7.31104
vt -3.40199 7.99519
vt -3.8961 7.99519
f 55/160/34 54/161/34 53/162/34

v 1.1 -0.05 0.7
vt -3.05611 7.31104
f 54/161/34 55/160/34 56/163/34

vt -3.24996 7.16704
vn 0.789352 0.613941 -1.10673e-016
vt -3.40199 7.16704
vt -3.40199 6.30031
f 35/164/36 54/165/36 56/166/36

vt -4.04129 7.774
vn -0.734694 -0.653061 0.183673
vt -3.49012 7.36376
vt -3.90741 8.01983
f 36/167/37 55/168/37 53/169/37

