# This file uses centimeters as units for non-parametric coordinates.

mtllib tesla_block_base.mtl
v 0.987021 0.000000 -0.380216
v -1.020181 0.000000 -0.380216
v 0.000000 -0.141615 -0.380216
v 0.564133 -0.234645 -0.380216
v -0.580731 0.093177 -0.380216
v -0.871096 0.100303 -0.380216
v 0.838259 -0.188391 -0.380216
v 0.863689 0.060025 -0.518986
v -1.124856 0.089336 -0.518986
v 1.110352 -0.060025 -0.518986
v -0.915507 -0.089336 -0.518986
v 0.000000 -0.002845 -0.518986
v 0.000000 -0.280384 -0.518986
v 0.583137 -0.097222 -0.518986
v 0.545129 -0.372069 -0.518986
v -0.595902 0.231090 -0.518986
v -0.565559 -0.044736 -0.518986
v -0.921691 0.229232 -0.518986
v -0.820502 -0.028625 -0.518986
v 0.778697 -0.063468 -0.518986
v 0.897822 -0.313314 -0.518986
v 0.835417 0.042783 -0.183429
v 1.160951 -0.083736 -0.184747
v 0.836275 0.044437 -0.130440
v 1.164270 -0.077333 0.020273
v 0.957649 0.262356 -0.139211
v 0.956791 0.260701 -0.192199
v 1.260447 0.076409 0.013915
v 1.257128 0.070006 -0.191106
v 0.958861 0.427777 -0.524701
v 0.958861 0.427777 -0.185930
v 1.343060 0.118315 -0.524701
v 1.343060 0.118315 -0.185930
v 1.150407 -0.158520 -0.523024
v 1.150407 -0.158520 -0.187607
v 0.774230 0.051105 -0.185930
v 0.774230 0.051105 -0.524701
v 1.114356 0.060675 -0.205883
v 1.191019 -0.015696 -0.047106
v 0.687316 0.166191 0.057067
v 0.763978 0.089820 0.215844
v 1.134969 0.111332 -0.191760
v 0.707928 0.216849 0.071190
v 1.211632 0.034961 -0.032983
v 0.784591 0.140478 0.229968
v 0.477008 -0.039498 0.353293
v 0.600415 0.026317 0.167280
v 0.625625 -0.044048 0.328722
v 0.724292 -0.017059 0.264057
v 0.608090 0.039869 0.367663
v 0.582134 0.110840 0.207497
v 0.698425 0.105060 0.320984
v 0.799758 0.187481 0.288482
v 0.701303 0.117012 0.342961
v 0.839868 -0.005707 0.199025
v 0.733427 -0.037958 0.271239
v 0.689586 0.282079 0.031258
v 0.729410 0.090969 -0.057251
v 0.588164 0.014677 0.155042
v 0.565758 0.122425 0.204868
v -1.164270 0.077333 0.020273
v -0.836275 -0.044437 -0.130440
v -1.260447 -0.076409 0.013915
v -0.957649 -0.262356 -0.139211
v -0.835417 -0.042783 -0.183429
v -1.160951 0.083736 -0.184747
v -0.956791 -0.260701 -0.192199
v -1.257128 -0.070006 -0.191106
v -1.343060 -0.118315 -0.185930
v -0.958861 -0.427777 -0.185930
v -1.343060 -0.118315 -0.524701
v -0.958861 -0.427777 -0.524701
v -1.150407 0.158520 -0.187607
v -1.150407 0.158520 -0.523024
v -0.774230 -0.051105 -0.524701
v -0.774230 -0.051105 -0.185930
v -1.191019 0.015696 -0.047106
v -1.114356 -0.060675 -0.205883
v -0.763978 -0.089820 0.215844
v -0.687316 -0.166191 0.057067
v -1.211632 -0.034961 -0.032983
v -1.134969 -0.111332 -0.191760
v -0.784591 -0.140478 0.229968
v -0.707928 -0.216849 0.071190
v -0.477008 0.039498 0.353293
v -0.625625 0.044048 0.328722
v -0.608090 -0.039869 0.367663
v -0.600415 -0.026317 0.167280
v -0.724292 0.017059 0.264057
v -0.698425 -0.105060 0.320984
v -0.582134 -0.110840 0.207497
v -0.733427 0.037958 0.271239
v -0.701303 -0.117012 0.342961
v -0.839868 0.005707 0.199025
v -0.799758 -0.187481 0.288482
v -0.729410 -0.090969 -0.057251
v -0.588164 -0.014677 0.155042
v -0.689586 -0.282079 0.031258
v -0.565758 -0.122425 0.204868
vt 0.788834 0.176016
vt 0.711134 0.176353
vt 0.788497 0.098317
vt 0.710797 0.098654
vt 0.011503 0.101683
vt 0.011166 0.023984
vt 0.089203 0.101346
vt 0.088866 0.023647
vt 0.399663 0.022301
vt 0.400000 0.100000
vt 0.244265 0.022974
vt 0.244601 0.100673
vt 0.555399 0.099327
vt 0.555062 0.021627
vt 0.710461 0.020954
vt 0.788160 0.020618
vt 0.089539 0.179046
vt 0.011840 0.179382
vt 0.400337 0.177699
vt 0.555735 0.177026
vt 0.244938 0.178373
vt 0.230720 0.446877
vt 0.105915 0.447887
vt 0.230566 0.427929
vt 0.105321 0.374579
vt 0.514971 0.278487
vt 0.553657 0.278483
vt 0.514974 0.397325
vt 0.553657 0.397323
vt 0.254929 0.342127
vt 0.120107 0.311442
vt 0.266058 0.326793
vt 0.163170 0.252113
vt 0.048727 0.294726
vt 0.033942 0.357863
vt 0.095324 0.577272
vt 0.254858 0.577272
vt 0.095324 0.809590
vt 0.254857 0.809590
vt 0.244473 0.968785
vt 0.403015 0.978335
vt 0.413296 0.820716
vt 0.447540 0.620830
vt 0.604676 0.648380
vt 0.568877 0.847993
vt 0.290034 0.421665
vt 0.482716 0.465223
vt 0.512080 0.343593
vt 0.509780 0.393958
vt 0.289971 0.341186
vt 0.287672 0.391550
vt 0.512297 0.328783
vt 0.290191 0.326375
vt 0.512984 0.278401
vt 0.290877 0.275993
vt 0.287016 0.406357
vt 0.509124 0.408764
vt 0.991860 0.167528
vt 0.884170 0.306346
vt 0.887709 0.188777
vt 0.806750 0.206745
vt 0.887267 0.128587
vt 0.900071 0.009445
vt 0.811098 0.099805
vt 0.946771 0.336307
vt 0.867476 0.632579
vt 0.874286 0.594398
vt 0.930757 0.633157
vt 0.925041 0.594845
vt 0.867114 0.718863
vt 0.929724 0.719424
vt 0.993183 0.674505
vt 0.968343 0.623789
vt 0.829988 0.622640
vt 0.804256 0.672992
vt 0.880348 0.795545
vt 0.915636 0.795884
vt 0.917987 0.538815
vt 0.882699 0.538482
vt 0.230720 0.446877
vt 0.105915 0.447887
vt 0.230566 0.427929
vt 0.105321 0.374579
vt 0.514971 0.278487
vt 0.553657 0.278483
vt 0.514974 0.397325
vt 0.553657 0.397323
vt 0.254929 0.342127
vt 0.120107 0.311442
vt 0.266058 0.326793
vt 0.163170 0.252113
vt 0.048727 0.294726
vt 0.033942 0.357863
vt 0.095324 0.577272
vt 0.254858 0.577272
vt 0.095324 0.809590
vt 0.254857 0.809590
vt 0.244473 0.968785
vt 0.403015 0.978335
vt 0.413296 0.820716
vt 0.447540 0.620830
vt 0.604676 0.648380
vt 0.568877 0.847993
vt 0.290034 0.421665
vt 0.482716 0.465223
vt 0.512080 0.343593
vt 0.509780 0.393958
vt 0.289971 0.341186
vt 0.287672 0.391550
vt 0.512297 0.328783
vt 0.290191 0.326375
vt 0.512984 0.278401
vt 0.290877 0.275993
vt 0.287016 0.406357
vt 0.509124 0.408764
vt 0.991860 0.167528
vt 0.884170 0.306346
vt 0.887709 0.188777
vt 0.806750 0.206745
vt 0.887267 0.128587
vt 0.900071 0.009445
vt 0.811098 0.099805
vt 0.946771 0.336307
vt 0.867476 0.632579
vt 0.874286 0.594398
vt 0.930757 0.633157
vt 0.925041 0.594845
vt 0.867114 0.718863
vt 0.929724 0.719424
vt 0.993183 0.674505
vt 0.968343 0.623789
vt 0.829988 0.622640
vt 0.804256 0.672992
vt 0.880348 0.795545
vt 0.915636 0.795884
vt 0.917987 0.538815
vt 0.882699 0.538482
vn -0.589121 0.405453 0.698960
vn -0.447171 0.544229 0.709826
vn -0.278327 0.192494 0.941000
vn 0.102466 0.061087 0.992859
vn 0.002774 -0.004123 0.999988
vn 0.403656 -0.599972 0.690721
vn -0.008465 -0.002368 0.999961
vn 0.184353 -0.673744 0.715600
vn -0.197117 -0.693236 0.693231
vn 0.001525 0.005888 0.999982
vn -0.161001 -0.700221 0.695535
vn -0.007663 0.005493 0.999956
vn -0.000700 -0.000619 1.000000
vn 0.001162 -0.712978 0.701186
vn 0.365652 -0.609395 0.703518
vn 0.584875 -0.461844 0.666800
vn -0.195834 0.668042 0.717892
vn -0.399804 0.594247 0.697873
vn 0.199306 0.701660 0.684069
vn -0.002144 0.711990 0.702186
vn 0.150738 0.709379 0.688519
vn -0.361909 -0.931558 0.034938
vn -0.361908 -0.931559 0.034945
vn -0.361908 -0.931559 0.034945
vn -0.361907 -0.931559 0.034952
vn -0.873650 0.486553 -0.001051
vn -0.873650 0.486554 -0.001046
vn -0.873650 0.486554 -0.001046
vn -0.873649 0.486556 -0.001041
vn -0.336856 0.224423 0.914419
vn -0.327685 0.230817 0.916158
vn -0.327685 0.230817 0.916158
vn -0.318472 0.237182 0.917780
vn 0.535780 0.843631 -0.035025
vn 0.535780 0.843631 -0.035023
vn 0.535780 0.843631 -0.035023
vn 0.535781 0.843631 -0.035021
vn 0.847829 -0.530262 0.002835
vn 0.847829 -0.530262 0.002835
vn 0.847829 -0.530262 0.002835
vn 0.847829 -0.530263 0.002835
vn 0.627291 0.778785 0.000000
vn 0.627291 0.778785 0.000000
vn 0.627291 0.778785 0.000000
vn 0.627291 0.778785 0.000000
vn 0.820805 -0.571209 0.000000
vn 0.820805 -0.571209 0.000000
vn 0.820805 -0.571209 0.000000
vn 0.820805 -0.571208 0.000000
vn -0.486774 -0.873528 0.000000
vn -0.486774 -0.873528 0.000000
vn -0.486774 -0.873528 0.000000
vn -0.486774 -0.873528 0.000000
vn -0.897932 0.440134 0.000000
vn -0.897932 0.440134 0.000000
vn -0.897932 0.440134 0.000000
vn -0.897932 0.440134 0.000000
vn 0.000000 0.000000 1.000000
vn 0.000390 -0.003300 0.999994
vn 0.000390 -0.003300 0.999994
vn 0.000780 -0.006600 0.999978
vn -0.374088 -0.893323 -0.249062
vn -0.374088 -0.893323 -0.249063
vn -0.374088 -0.893323 -0.249063
vn -0.374088 -0.893323 -0.249064
vn 0.374089 0.893323 0.249061
vn 0.374089 0.893323 0.249061
vn 0.374089 0.893323 0.249061
vn 0.374089 0.893323 0.249060
vn -0.408695 0.395592 -0.822481
vn -0.408693 0.395598 -0.822479
vn -0.408693 0.395598 -0.822479
vn -0.408692 0.395605 -0.822477
vn 0.408689 -0.395610 0.822476
vn 0.408690 -0.395608 0.822476
vn 0.408690 -0.395608 0.822476
vn 0.408690 -0.395606 0.822477
vn -0.091885 -0.918009 -0.385769
vn -0.051027 -0.918411 -0.392324
vn -0.051027 -0.918411 -0.392324
vn -0.010081 -0.917240 -0.398207
vn -0.503789 0.756573 0.416887
vn -0.440312 0.792269 0.422417
vn -0.440312 0.792269 0.422417
vn -0.374487 0.823738 0.425694
vn -0.842645 0.071678 -0.533677
vn -0.842645 0.071678 -0.533677
vn -0.842645 0.071678 -0.533677
vn 0.138270 -0.392967 0.909098
vn 0.138270 -0.392967 0.909098
vn 0.138270 -0.392967 0.909098
vn 0.577267 -0.241361 0.780069
vn 0.577267 -0.241361 0.780069
vn 0.577267 -0.241361 0.780069
vn 0.577267 -0.241361 0.780069
vn 0.593374 -0.233502 0.770314
vn 0.593371 -0.233507 0.770316
vn 0.593371 -0.233507 0.770316
vn 0.593367 -0.233512 0.770317
vn 0.908801 0.315246 -0.273314
vn 0.908829 0.315454 -0.272981
vn 0.908829 0.315454 -0.272981
vn 0.908856 0.315663 -0.272649
vn -0.015278 -0.937688 -0.347143
vn -0.008712 -0.925354 -0.379003
vn -0.008712 -0.925354 -0.379003
vn -0.002135 -0.911901 -0.410405
vn -0.375681 0.835266 0.401490
vn -0.381334 0.817916 0.430811
vn -0.381334 0.817916 0.430811
vn -0.386532 0.799590 0.459617
vn -0.842140 0.072022 -0.534427
vn -0.842141 0.072017 -0.534427
vn -0.842141 0.072017 -0.534427
vn -0.842142 0.072012 -0.534427
vn -0.654303 -0.425240 0.625347
vn -0.654271 -0.425175 0.625425
vn -0.654271 -0.425175 0.625425
vn -0.654238 -0.425109 0.625503
vn 0.361909 0.931558 0.034938
vn 0.361908 0.931559 0.034945
vn 0.361908 0.931559 0.034945
vn 0.361907 0.931559 0.034952
vn 0.873650 -0.486553 -0.001051
vn 0.873650 -0.486554 -0.001046
vn 0.873650 -0.486554 -0.001046
vn 0.873649 -0.486556 -0.001041
vn 0.336856 -0.224423 0.914419
vn 0.327685 -0.230817 0.916158
vn 0.327685 -0.230817 0.916158
vn 0.318472 -0.237182 0.917780
vn -0.535780 -0.843631 -0.035025
vn -0.535780 -0.843631 -0.035023
vn -0.535780 -0.843631 -0.035023
vn -0.535781 -0.843631 -0.035021
vn -0.847829 0.530262 0.002835
vn -0.847829 0.530262 0.002835
vn -0.847829 0.530262 0.002835
vn -0.847829 0.530263 0.002835
vn -0.627291 -0.778785 0.000000
vn -0.627291 -0.778785 0.000000
vn -0.627291 -0.778785 0.000000
vn -0.627291 -0.778785 0.000000
vn -0.820805 0.571209 0.000000
vn -0.820805 0.571209 0.000000
vn -0.820805 0.571209 0.000000
vn -0.820805 0.571208 0.000000
vn 0.486774 0.873528 0.000000
vn 0.486774 0.873528 0.000000
vn 0.486774 0.873528 0.000000
vn 0.486774 0.873528 0.000000
vn 0.897932 -0.440134 0.000000
vn 0.897932 -0.440134 0.000000
vn 0.897932 -0.440134 0.000000
vn 0.897932 -0.440134 0.000000
vn -0.000000 0.000000 1.000000
vn -0.000390 0.003300 0.999994
vn -0.000390 0.003300 0.999994
vn -0.000780 0.006600 0.999978
vn 0.374088 0.893323 -0.249062
vn 0.374088 0.893323 -0.249063
vn 0.374088 0.893323 -0.249063
vn 0.374088 0.893323 -0.249064
vn -0.374089 -0.893323 0.249061
vn -0.374089 -0.893323 0.249061
vn -0.374089 -0.893323 0.249061
vn -0.374089 -0.893323 0.249060
vn 0.408695 -0.395592 -0.822481
vn 0.408693 -0.395598 -0.822479
vn 0.408693 -0.395598 -0.822479
vn 0.408692 -0.395605 -0.822477
vn -0.408689 0.395610 0.822476
vn -0.408690 0.395608 0.822476
vn -0.408690 0.395608 0.822476
vn -0.408690 0.395606 0.822477
vn 0.091885 0.918009 -0.385769
vn 0.051027 0.918411 -0.392324
vn 0.051027 0.918411 -0.392324
vn 0.010081 0.917240 -0.398207
vn 0.503789 -0.756573 0.416887
vn 0.440312 -0.792269 0.422417
vn 0.440312 -0.792269 0.422417
vn 0.374487 -0.823738 0.425694
vn 0.842645 -0.071678 -0.533677
vn 0.842645 -0.071678 -0.533677
vn 0.842645 -0.071678 -0.533677
vn -0.138270 0.392967 0.909098
vn -0.138270 0.392967 0.909098
vn -0.138270 0.392967 0.909098
vn -0.577267 0.241361 0.780069
vn -0.577267 0.241361 0.780069
vn -0.577267 0.241361 0.780069
vn -0.577267 0.241361 0.780069
vn -0.593374 0.233502 0.770314
vn -0.593371 0.233507 0.770316
vn -0.593371 0.233507 0.770316
vn -0.593367 0.233512 0.770317
vn -0.908801 -0.315246 -0.273314
vn -0.908829 -0.315454 -0.272981
vn -0.908829 -0.315454 -0.272981
vn -0.908856 -0.315663 -0.272649
vn 0.015278 0.937688 -0.347143
vn 0.008712 0.925354 -0.379003
vn 0.008712 0.925354 -0.379003
vn 0.002135 0.911901 -0.410405
vn 0.375681 -0.835266 0.401490
vn 0.381334 -0.817916 0.430811
vn 0.381334 -0.817916 0.430811
vn 0.386532 -0.799590 0.459617
vn 0.842140 -0.072022 -0.534427
vn 0.842141 -0.072017 -0.534427
vn 0.842141 -0.072017 -0.534427
vn 0.842142 -0.072012 -0.534427
vn 0.654303 0.425240 0.625347
vn 0.654271 0.425175 0.625425
vn 0.654271 0.425175 0.625425
vn 0.654238 0.425109 0.625503
g teslaBlock_base
usemtl teslaBlock_coilMatSG
f 8/1/1 20/2/2 1/3/3
f 1/3/3 20/2/2 7/4/4
f 2/5/5 11/6/6 6/7/7
f 6/7/7 11/6/6 19/8/8
f 13/9/9 3/10/10 17/11/11
f 17/11/11 3/10/10 5/12/12
f 3/10/10 13/9/9 4/13/13
f 4/13/13 13/9/9 15/14/14
f 7/4/4 4/13/13 21/15/15
f 21/15/15 4/13/13 15/14/14
f 17/11/11 5/12/12 19/8/8
f 19/8/8 5/12/12 6/7/7
f 1/3/3 7/4/4 10/16/16
f 10/16/16 7/4/4 21/15/15
f 6/7/7 18/17/17 2/5/5
f 2/5/5 18/17/17 9/18/18
f 12/19/19 3/10/10 14/20/20
f 14/20/20 3/10/10 4/13/13
f 4/13/13 7/4/4 14/20/20
f 14/20/20 7/4/4 20/2/2
f 16/21/21 5/12/12 12/19/19
f 12/19/19 5/12/12 3/10/10
f 5/12/12 16/21/21 6/7/7
f 6/7/7 16/21/21 18/17/17
f 22/22/22 23/23/23 24/24/24
f 24/24/24 23/23/23 25/25/25
f 26/26/26 27/27/27 24/28/28
f 24/28/28 27/27/27 22/29/29
f 24/24/30 25/25/31 26/30/32
f 26/30/32 25/25/31 28/31/33
f 27/32/34 26/30/35 29/33/36
f 29/33/36 26/30/35 28/31/37
f 29/34/38 28/31/39 23/35/40
f 23/35/40 28/31/39 25/25/41
f 30/36/42 31/37/43 32/38/44
f 32/38/44 31/37/43 33/39/45
f 32/40/46 33/39/47 34/41/48
f 34/41/48 33/39/47 35/42/49
f 36/43/50 37/44/51 35/42/52
f 35/42/52 37/44/51 34/45/53
f 31/37/54 30/46/55 36/43/56
f 36/43/56 30/46/55 37/47/57
f 31/37/58 36/43/59 33/39/60
f 33/39/60 36/43/59 35/42/61
f 38/48/62 39/49/63 40/50/64
f 40/50/64 39/49/63 41/51/65
f 42/52/66 43/53/67 44/54/68
f 44/54/68 43/53/67 45/55/69
f 43/53/70 42/52/71 40/50/72
f 40/50/72 42/52/71 38/48/73
f 45/56/74 41/51/75 44/57/76
f 44/57/76 41/51/75 39/49/77
f 46/58/78 47/59/79 48/60/80
f 48/60/80 47/59/79 49/61/81
f 46/58/82 50/62/83 51/63/84
f 51/63/84 50/62/83 52/64/85
f 46/58/86 51/65/87 47/59/88
f 50/62/89 46/58/90 48/60/91
f 52/64/92 50/62/93 49/61/94
f 49/61/94 50/62/93 48/60/95
f 53/66/96 54/67/97 55/68/98
f 55/68/98 54/67/97 56/69/99
f 53/66/100 55/68/101 57/70/102
f 57/70/102 55/68/101 58/71/103
f 58/71/104 55/68/105 59/72/106
f 59/72/106 55/68/105 56/73/107
f 54/74/108 53/66/109 60/75/110
f 60/75/110 53/66/109 57/70/111
f 57/70/112 58/71/113 60/76/114
f 60/76/114 58/71/113 59/77/115
f 59/78/116 56/69/117 60/79/118
f 60/79/118 56/69/117 54/67/119
f 65/80/120 66/81/121 62/82/122
f 62/82/122 66/81/121 61/83/123
f 64/84/124 67/85/125 62/86/126
f 62/86/126 67/85/125 65/87/127
f 62/82/128 61/83/129 64/88/130
f 64/88/130 61/83/129 63/89/131
f 67/90/132 64/88/133 68/91/134
f 68/91/134 64/88/133 63/89/135
f 68/92/136 63/89/137 66/93/138
f 66/93/138 63/89/137 61/83/139
f 72/94/140 70/95/141 71/96/142
f 71/96/142 70/95/141 69/97/143
f 71/98/144 69/97/145 74/99/146
f 74/99/146 69/97/145 73/100/147
f 76/101/148 75/102/149 73/100/150
f 73/100/150 75/102/149 74/103/151
f 70/95/152 72/104/153 76/101/154
f 76/101/154 72/104/153 75/105/155
f 70/95/156 76/101/157 69/97/158
f 69/97/158 76/101/157 73/100/159
f 78/106/160 77/107/161 80/108/162
f 80/108/162 77/107/161 79/109/163
f 82/110/164 84/111/165 81/112/166
f 81/112/166 84/111/165 83/113/167
f 84/111/168 82/110/169 80/108/170
f 80/108/170 82/110/169 78/106/171
f 83/114/172 79/109/173 81/115/174
f 81/115/174 79/109/173 77/107/175
f 85/116/176 88/117/177 86/118/178
f 86/118/178 88/117/177 89/119/179
f 85/116/180 87/120/181 91/121/182
f 91/121/182 87/120/181 90/122/183
f 85/116/184 91/123/185 88/117/186
f 87/120/187 85/116/188 86/118/189
f 90/122/190 87/120/191 89/119/192
f 89/119/192 87/120/191 86/118/193
f 95/124/194 93/125/195 94/126/196
f 94/126/196 93/125/195 92/127/197
f 95/124/198 94/126/199 98/128/200
f 98/128/200 94/126/199 96/129/201
f 96/129/202 94/126/203 97/130/204
f 97/130/204 94/126/203 92/131/205
f 93/132/206 95/124/207 99/133/208
f 99/133/208 95/124/207 98/128/209
f 98/128/210 96/129/211 99/134/212
f 99/134/212 96/129/211 97/135/213
f 97/136/214 92/127/215 99/137/216
f 99/137/216 92/127/215 93/125/217
