# This file uses centimeters as units for non-parametric coordinates.

mtllib tesla_block_base.mtl
v 0.987021 0.000000 -0.380216
v -1.020181 0.000000 -0.380216
v 0.000000 -0.141615 -0.380216
v 0.564133 -0.234645 -0.380216
v -0.580731 0.093177 -0.380216
v -0.871096 0.100303 -0.380216
v 0.838259 -0.188391 -0.380216
v 0.863689 0.060025 -0.518986
v -1.124856 0.089336 -0.518986
v 1.110352 -0.060025 -0.518986
v -0.915507 -0.089336 -0.518986
v 0.000000 -0.002845 -0.518986
v 0.000000 -0.280384 -0.518986
v 0.583137 -0.097222 -0.518986
v 0.545129 -0.372069 -0.518986
v -0.595902 0.231090 -0.518986
v -0.565559 -0.044736 -0.518986
v -0.921691 0.229232 -0.518986
v -0.820502 -0.028625 -0.518986
v 0.778697 -0.063468 -0.518986
v 0.897822 -0.313314 -0.518986
v -1.164270 0.077333 0.020273
v -0.836275 -0.044437 -0.130440
v -1.260447 -0.076409 0.013915
v -0.957649 -0.262356 -0.139211
v -1.191019 0.015696 -0.047106
v -1.114356 -0.060675 -0.205883
v -0.763978 -0.089820 0.215844
v -0.687316 -0.166191 0.057067
v -1.211632 -0.034961 -0.032983
v -1.134969 -0.111332 -0.191760
v -0.784591 -0.140478 0.229968
v -0.707928 -0.216849 0.071190
v -0.477008 0.039498 0.353293
v -0.625625 0.044048 0.328722
v -0.608090 -0.039869 0.367663
v -0.835417 -0.042783 -0.183429
v -1.160951 0.083736 -0.184747
v -0.956791 -0.260701 -0.192199
v -1.257128 -0.070006 -0.191106
v -1.343060 -0.118315 -0.185930
v -0.958861 -0.427777 -0.185930
v -1.343060 -0.118315 -0.524701
v -0.958861 -0.427777 -0.524701
v -1.150407 0.158520 -0.187607
v -1.150407 0.158520 -0.523024
v -0.774230 -0.051105 -0.524701
v -0.774230 -0.051105 -0.185930
v -0.600415 -0.026317 0.167280
v -0.724292 0.017059 0.264057
v -0.698425 -0.105060 0.320984
v -0.582134 -0.110840 0.207497
v -0.733427 0.037958 0.271239
v -0.701303 -0.117012 0.342961
v -0.839868 0.005707 0.199025
v -0.799758 -0.187481 0.288482
v -0.729410 -0.090969 -0.057251
v -0.588164 -0.014677 0.155042
v -0.689586 -0.282079 0.031258
v -0.565758 -0.122425 0.204868
v 1.164270 -0.077333 0.020273
v 0.836275 0.044437 -0.130440
v 1.260447 0.076409 0.013915
v 0.957649 0.262356 -0.139211
v 1.191019 -0.015696 -0.047106
v 1.114356 0.060675 -0.205883
v 0.763978 0.089820 0.215844
v 0.687316 0.166191 0.057067
v 1.211632 0.034961 -0.032983
v 1.134969 0.111332 -0.191760
v 0.784591 0.140478 0.229968
v 0.707928 0.216849 0.071190
v 0.477008 -0.039498 0.353293
v 0.625625 -0.044048 0.328722
v 0.608090 0.039869 0.367663
v 0.835417 0.042783 -0.183429
v 1.160951 -0.083736 -0.184747
v 0.956791 0.260701 -0.192199
v 1.257128 0.070006 -0.191106
v 1.340244 0.119514 -0.187607
v 0.959849 0.425912 -0.187607
v 1.340244 0.119514 -0.523024
v 0.959849 0.425912 -0.523024
v 1.150407 -0.158520 -0.187607
v 1.150407 -0.158520 -0.523024
v 0.777046 0.052970 -0.523024
v 0.777046 0.052970 -0.187607
v 0.600415 0.026317 0.167280
v 0.724292 -0.017059 0.264057
v 0.698425 0.105060 0.320984
v 0.582134 0.110840 0.207497
v 0.733427 -0.037958 0.271239
v 0.701303 0.117012 0.342961
v 0.839868 -0.005707 0.199025
v 0.799758 0.187481 0.288482
v 0.729410 0.090969 -0.057251
v 0.588164 0.014677 0.155042
v 0.689586 0.282079 0.031258
v 0.565758 0.122425 0.204868
vt 0.941285 0.697442
vt 0.905335 0.708399
vt 0.861507 0.564600
vt 0.897457 0.553643
vt 0.645809 0.630342
vt 0.609859 0.641299
vt 0.601980 0.486543
vt 0.709830 0.453672
vt 0.753658 0.597471
vt 0.681758 0.619385
vt 0.637930 0.475586
vt 0.781729 0.431758
vt 0.825557 0.575557
vt 0.817679 0.420801
vt 0.853628 0.409844
vt 0.689637 0.774141
vt 0.653687 0.785098
vt 0.797486 0.741270
vt 0.869385 0.719356
vt 0.725586 0.763184
vt 0.096647 0.731100
vt 0.103268 0.729452
vt 0.112898 0.770247
vt 0.087277 0.776624
vt 0.116491 0.782126
vt 0.090871 0.788503
vt 0.204170 0.948102
vt 0.210996 0.948037
vt 0.211012 0.976119
vt 0.204186 0.976184
vt 0.707471 0.826741
vt 0.705049 0.871725
vt 0.681960 0.875208
vt 0.675510 0.829912
vt 0.529297 0.719468
vt 0.528376 0.784035
vt 0.505827 0.781399
vt 0.506748 0.716832
vt 0.214517 0.724986
vt 0.213597 0.660419
vt 0.236146 0.657784
vt 0.237066 0.722351
vt 0.584564 0.741912
vt 0.584437 0.798551
vt 0.577471 0.797524
vt 0.577597 0.740885
vt 0.283482 0.721934
vt 0.283356 0.665295
vt 0.290322 0.664267
vt 0.290448 0.720906
vt 0.453038 0.938723
vt 0.460187 0.920693
vt 0.472525 0.946653
vt 0.453626 0.953901
vt 0.700740 0.928984
vt 0.705817 0.945186
vt 0.702168 0.957760
vt 0.684937 0.945892
vt 0.629669 0.918089
vt 0.632477 0.898559
vt 0.640497 0.915943
vt 0.626490 0.932077
vt 0.642265 0.928995
vt 0.022755 0.875270
vt 0.021290 0.840012
vt 0.048680 0.841099
vt 0.049852 0.876348
vt 0.026976 0.830051
vt 0.048946 0.830920
vt 0.021290 0.579750
vt 0.064910 0.579750
vt 0.064694 0.628186
vt 0.021505 0.628186
vt 0.064910 0.652992
vt 0.021290 0.652992
vt 0.845195 0.781530
vt 0.888815 0.781530
vt 0.888815 0.830030
vt 0.845195 0.830030
vt 0.201199 0.879412
vt 0.178609 0.903238
vt 0.170233 0.868296
vt 0.185326 0.861476
vt 0.339099 0.905736
vt 0.324834 0.903202
vt 0.327536 0.867273
vt 0.349857 0.883263
vt 0.416870 0.638678
vt 0.468374 0.654951
vt 0.454474 0.708630
vt 0.411560 0.701977
vt 0.423863 0.808538
vt 0.417241 0.810186
vt 0.407612 0.769391
vt 0.433232 0.763015
vt 0.404018 0.757512
vt 0.429639 0.751135
vt 0.158221 0.977166
vt 0.151396 0.977231
vt 0.151380 0.949149
vt 0.158206 0.949084
vt 0.764123 0.849773
vt 0.766546 0.804789
vt 0.789635 0.801306
vt 0.796084 0.846602
vt 0.338031 0.727346
vt 0.338951 0.662779
vt 0.361500 0.665415
vt 0.360580 0.729982
vt 0.043839 0.697314
vt 0.044759 0.761881
vt 0.022210 0.764516
vt 0.021290 0.699949
vt 0.933808 0.810887
vt 0.933935 0.754248
vt 0.940901 0.755275
vt 0.940775 0.811914
vt 0.171544 0.737431
vt 0.171670 0.794070
vt 0.164704 0.795097
vt 0.164577 0.738458
vt 0.102994 0.940174
vt 0.095844 0.958204
vt 0.083507 0.932244
vt 0.102405 0.924995
vt 0.388357 0.970877
vt 0.383280 0.954674
vt 0.386929 0.942101
vt 0.404160 0.953968
vt 0.033886 0.931837
vt 0.031078 0.951367
vt 0.023058 0.933983
vt 0.037064 0.917850
vt 0.021290 0.920931
vt 0.121916 0.836836
vt 0.123381 0.872094
vt 0.095991 0.871006
vt 0.094819 0.835758
vt 0.117696 0.882054
vt 0.095725 0.881186
vt 0.560328 0.673771
vt 0.517139 0.673771
vt 0.517139 0.625697
vt 0.560328 0.625697
vt 0.517139 0.601253
vt 0.560328 0.601253
vt 0.513194 0.876353
vt 0.470006 0.876353
vt 0.470006 0.828333
vt 0.513194 0.828333
vt 0.247533 0.889831
vt 0.270123 0.866005
vt 0.278499 0.900947
vt 0.263407 0.907768
vt 0.848412 0.872578
vt 0.862677 0.875112
vt 0.859975 0.911041
vt 0.837654 0.895050
vt 0.162560 0.694350
vt 0.111787 0.677556
vt 0.125980 0.624159
vt 0.168658 0.631753
vt 0.538038 0.942723
vt 0.525237 0.957027
vt 0.520910 0.935068
vt 0.529068 0.925953
vt 0.217368 0.767936
vt 0.260988 0.767936
vt 0.260988 0.817405
vt 0.217368 0.817405
vt 0.878238 0.953181
vt 0.880421 0.976701
vt 0.871591 0.969918
vt 0.570768 0.843895
vt 0.577203 0.846167
vt 0.583513 0.889399
vt 0.558617 0.880608
vt 0.768068 0.904398
vt 0.761784 0.929643
vt 0.747155 0.909202
vt 0.759825 0.892871
vt 0.300324 0.963342
vt 0.306619 0.949413
vt 0.321533 0.956295
vt 0.312484 0.976333
vt 0.349168 0.821876
vt 0.305980 0.821876
vt 0.305980 0.772896
vt 0.349168 0.772896
vt 0.928450 0.977622
vt 0.926267 0.954103
vt 0.935097 0.960886
vt 0.409221 0.897370
vt 0.402787 0.895098
vt 0.396477 0.851866
vt 0.421372 0.860657
vt 0.907413 0.899937
vt 0.913697 0.874691
vt 0.928326 0.895132
vt 0.915655 0.911463
vt 0.826811 0.963954
vt 0.820516 0.977883
vt 0.805602 0.971001
vt 0.814651 0.950962
vn -0.589121 0.405453 0.698960
vn -0.447171 0.544229 0.709826
vn -0.278327 0.192494 0.941000
vn 0.102466 0.061087 0.992859
vn 0.002774 -0.004123 0.999988
vn 0.403656 -0.599972 0.690721
vn -0.008465 -0.002368 0.999961
vn 0.184353 -0.673744 0.715600
vn -0.197117 -0.693236 0.693231
vn 0.001525 0.005888 0.999982
vn -0.161001 -0.700221 0.695535
vn -0.007663 0.005493 0.999956
vn -0.000700 -0.000619 1.000000
vn 0.001162 -0.712978 0.701186
vn 0.365652 -0.609395 0.703518
vn 0.584875 -0.461844 0.666800
vn -0.195834 0.668042 0.717892
vn -0.399804 0.594247 0.697873
vn 0.199306 0.701660 0.684069
vn -0.002144 0.711990 0.702186
vn 0.150738 0.709379 0.688519
vn 0.361909 0.931558 0.034938
vn 0.361908 0.931559 0.034945
vn 0.361908 0.931559 0.034945
vn 0.361907 0.931559 0.034952
vn -0.627291 -0.778785 0.000000
vn -0.627291 -0.778785 0.000000
vn -0.627291 -0.778785 0.000000
vn -0.627291 -0.778785 0.000000
vn 0.873650 -0.486553 -0.001051
vn 0.873650 -0.486554 -0.001046
vn 0.873650 -0.486554 -0.001046
vn 0.873649 -0.486556 -0.001041
vn 0.336856 -0.224423 0.914419
vn 0.327685 -0.230817 0.916158
vn 0.327685 -0.230817 0.916158
vn 0.318472 -0.237182 0.917780
vn -0.820805 0.571209 0.000000
vn -0.820805 0.571209 0.000000
vn -0.820805 0.571209 0.000000
vn -0.820805 0.571208 0.000000
vn 0.374088 0.893323 -0.249062
vn 0.374088 0.893323 -0.249063
vn 0.374088 0.893323 -0.249063
vn 0.374088 0.893323 -0.249064
vn -0.374089 -0.893323 0.249061
vn -0.374089 -0.893323 0.249061
vn -0.374089 -0.893323 0.249061
vn -0.374089 -0.893323 0.249060
vn 0.408695 -0.395592 -0.822481
vn 0.408693 -0.395598 -0.822479
vn 0.408693 -0.395598 -0.822479
vn 0.408692 -0.395605 -0.822477
vn -0.408689 0.395610 0.822476
vn -0.408690 0.395608 0.822476
vn -0.408690 0.395608 0.822476
vn -0.408690 0.395606 0.822477
vn 0.091885 0.918009 -0.385769
vn 0.051027 0.918411 -0.392324
vn 0.051027 0.918411 -0.392324
vn 0.010081 0.917240 -0.398207
vn 0.503789 -0.756573 0.416887
vn 0.440312 -0.792269 0.422417
vn 0.440312 -0.792269 0.422417
vn 0.374487 -0.823738 0.425694
vn 0.842645 -0.071678 -0.533677
vn 0.842645 -0.071678 -0.533677
vn 0.842645 -0.071678 -0.533677
vn -0.138270 0.392967 0.909098
vn -0.138270 0.392967 0.909098
vn -0.138270 0.392967 0.909098
vn -0.593374 0.233502 0.770314
vn -0.593371 0.233507 0.770316
vn -0.593371 0.233507 0.770316
vn -0.593367 0.233512 0.770317
vn -0.908801 -0.315246 -0.273314
vn -0.908829 -0.315454 -0.272981
vn -0.908829 -0.315454 -0.272981
vn -0.908856 -0.315663 -0.272649
vn 0.486774 0.873528 0.000000
vn 0.486774 0.873528 0.000000
vn 0.486774 0.873528 0.000000
vn 0.486774 0.873528 0.000000
vn -0.535780 -0.843631 -0.035025
vn -0.535780 -0.843631 -0.035023
vn -0.535780 -0.843631 -0.035023
vn -0.535781 -0.843631 -0.035021
vn 0.897932 -0.440134 0.000000
vn 0.897932 -0.440134 0.000000
vn 0.897932 -0.440134 0.000000
vn 0.897932 -0.440134 0.000000
vn -0.847829 0.530262 0.002835
vn -0.847829 0.530262 0.002835
vn -0.847829 0.530262 0.002835
vn -0.847829 0.530263 0.002835
vn 0.015278 0.937688 -0.347143
vn 0.008712 0.925354 -0.379003
vn 0.008712 0.925354 -0.379003
vn 0.002135 0.911901 -0.410405
vn 0.375681 -0.835266 0.401490
vn 0.381334 -0.817916 0.430811
vn 0.381334 -0.817916 0.430811
vn 0.386532 -0.799590 0.459617
vn 0.842140 -0.072022 -0.534427
vn 0.842141 -0.072017 -0.534427
vn 0.842141 -0.072017 -0.534427
vn 0.842142 -0.072012 -0.534427
vn -0.577267 0.241361 0.780069
vn -0.577267 0.241361 0.780069
vn -0.577267 0.241361 0.780069
vn -0.577267 0.241361 0.780069
vn -0.000000 0.000000 1.000000
vn -0.000390 0.003300 0.999994
vn -0.000390 0.003300 0.999994
vn -0.000780 0.006600 0.999978
vn 0.654303 0.425240 0.625347
vn 0.654271 0.425175 0.625425
vn 0.654271 0.425175 0.625425
vn 0.654238 0.425109 0.625503
vn -0.361909 -0.931558 0.034938
vn -0.361908 -0.931559 0.034945
vn -0.361908 -0.931559 0.034945
vn -0.361907 -0.931559 0.034952
vn 0.627290 0.778786 0.000000
vn 0.627291 0.778785 0.000000
vn 0.627291 0.778785 0.000000
vn 0.627291 0.778785 0.000000
vn -0.873650 0.486553 -0.001051
vn -0.873650 0.486554 -0.001046
vn -0.873650 0.486554 -0.001046
vn -0.873649 0.486556 -0.001041
vn -0.336856 0.224423 0.914419
vn -0.327685 0.230817 0.916158
vn -0.327685 0.230817 0.916158
vn -0.318472 0.237182 0.917780
vn 0.825856 -0.563881 0.000000
vn 0.825856 -0.563881 0.000000
vn 0.825856 -0.563881 0.000000
vn 0.825856 -0.563882 0.000000
vn -0.374088 -0.893323 -0.249062
vn -0.374088 -0.893323 -0.249063
vn -0.374088 -0.893323 -0.249063
vn -0.374088 -0.893323 -0.249064
vn 0.374089 0.893323 0.249061
vn 0.374089 0.893323 0.249061
vn 0.374089 0.893323 0.249061
vn 0.374089 0.893323 0.249060
vn -0.408695 0.395592 -0.822481
vn -0.408693 0.395598 -0.822479
vn -0.408693 0.395598 -0.822479
vn -0.408692 0.395605 -0.822477
vn 0.408689 -0.395610 0.822476
vn 0.408690 -0.395608 0.822476
vn 0.408690 -0.395608 0.822476
vn 0.408690 -0.395606 0.822477
vn -0.091885 -0.918009 -0.385769
vn -0.051027 -0.918411 -0.392324
vn -0.051027 -0.918411 -0.392324
vn -0.010081 -0.917240 -0.398207
vn -0.503789 0.756573 0.416887
vn -0.440312 0.792269 0.422417
vn -0.440312 0.792269 0.422417
vn -0.374487 0.823738 0.425694
vn -0.842645 0.071678 -0.533677
vn -0.842645 0.071678 -0.533677
vn -0.842645 0.071678 -0.533677
vn 0.138270 -0.392967 0.909098
vn 0.138270 -0.392967 0.909098
vn 0.138270 -0.392967 0.909098
vn 0.593374 -0.233502 0.770314
vn 0.593371 -0.233507 0.770316
vn 0.593371 -0.233507 0.770316
vn 0.593367 -0.233512 0.770317
vn 0.908801 0.315246 -0.273314
vn 0.908829 0.315454 -0.272981
vn 0.908829 0.315454 -0.272981
vn 0.908856 0.315663 -0.272649
vn -0.492869 -0.870103 0.000000
vn -0.492869 -0.870103 0.000000
vn -0.492869 -0.870103 0.000000
vn -0.492869 -0.870103 0.000000
vn 0.535780 0.843631 -0.035025
vn 0.535780 0.843631 -0.035023
vn 0.535780 0.843631 -0.035023
vn 0.535781 0.843631 -0.035021
vn -0.897932 0.440134 0.000000
vn -0.897932 0.440134 0.000000
vn -0.897932 0.440134 0.000000
vn -0.897932 0.440134 0.000000
vn 0.847829 -0.530262 0.002835
vn 0.847829 -0.530262 0.002835
vn 0.847829 -0.530262 0.002835
vn 0.847829 -0.530263 0.002835
vn -0.015278 -0.937688 -0.347143
vn -0.008712 -0.925354 -0.379003
vn -0.008712 -0.925354 -0.379003
vn -0.002135 -0.911901 -0.410405
vn -0.375681 0.835266 0.401490
vn -0.381334 0.817916 0.430811
vn -0.381334 0.817916 0.430811
vn -0.386532 0.799590 0.459617
vn -0.842140 0.072022 -0.534427
vn -0.842141 0.072017 -0.534427
vn -0.842141 0.072017 -0.534427
vn -0.842142 0.072012 -0.534427
vn 0.577267 -0.241361 0.780069
vn 0.577267 -0.241361 0.780069
vn 0.577267 -0.241361 0.780069
vn 0.577267 -0.241361 0.780069
vn -0.000000 0.000000 1.000000
vn -0.000000 0.000000 1.000000
vn -0.000000 0.000000 1.000000
vn 0.000000 0.000000 1.000000
vn -0.654303 -0.425240 0.625347
vn -0.654271 -0.425175 0.625425
vn -0.654271 -0.425175 0.625425
vn -0.654238 -0.425109 0.625503
g teslaBlock_Base
usemtl teslaBlock_baseMatSG
f 8/1/1 20/2/2 1/4/3
f 1/4/3 20/2/2 7/3/4
f 2/164/5 11/165/6 6/163/7
f 6/163/7 11/165/6 19/166/8
f 13/8/9 3/9/10 17/11/11
f 17/11/11 3/9/10 5/10/12
f 3/9/10 13/8/9 4/13/13
f 4/13/13 13/8/9 15/12/14
f 7/3/4 4/13/13 21/14/15
f 21/14/15 4/13/13 15/12/14
f 17/11/11 5/10/12 19/7/8
f 19/7/8 5/10/12 6/5/7
f 1/4/3 7/3/4 10/15/16
f 10/15/16 7/3/4 21/14/15
f 6/5/7 18/16/17 2/6/5
f 2/6/5 18/16/17 9/17/18
f 12/18/19 3/9/10 14/19/20
f 14/19/20 3/9/10 4/13/13
f 4/13/13 7/3/4 14/19/20
f 14/19/20 7/3/4 20/2/2
f 16/20/21 5/10/12 12/18/19
f 12/18/19 5/10/12 3/9/10
f 5/10/12 16/20/21 6/5/7
f 6/5/7 16/20/21 18/16/17
f 37/22/22 38/23/23 23/21/24
f 23/21/24 38/23/23 22/24/25
f 44/167/26 42/168/27 43/170/28
f 43/170/28 42/168/27 41/169/29
f 25/27/30 39/28/31 23/30/32
f 23/30/32 39/28/31 37/29/33
f 23/31/34 22/32/35 25/34/36
f 25/34/36 22/32/35 24/33/37
f 43/74/38 41/75/39 46/72/40
f 46/72/40 41/75/39 45/73/41
f 27/36/42 26/37/43 29/35/44
f 29/35/44 26/37/43 28/38/45
f 31/39/46 33/40/47 30/42/48
f 30/42/48 33/40/47 32/41/49
f 33/43/50 31/44/51 29/46/52
f 29/46/52 31/44/51 27/45/53
f 32/48/54 28/49/55 30/47/56
f 30/47/56 28/49/55 26/50/57
f 34/52/58 49/53/59 35/51/60
f 35/51/60 49/53/59 50/54/61
f 34/55/62 36/56/63 52/58/64
f 52/58/64 36/56/63 51/57/65
f 34/171/66 52/172/67 49/173/68
f 36/59/69 34/60/70 35/61/71
f 56/65/72 54/68/73 55/66/74
f 55/66/74 54/68/73 53/69/75
f 56/65/76 55/66/77 59/64/78
f 59/64/78 55/66/77 57/67/79
f 48/70/80 47/71/81 45/73/82
f 45/73/82 47/71/81 46/72/83
f 39/174/84 25/175/85 40/177/86
f 40/177/86 25/175/85 24/176/87
f 42/76/88 44/77/89 48/79/90
f 48/79/90 44/77/89 47/78/91
f 40/25/92 24/26/93 38/23/94
f 38/23/94 24/26/93 22/24/95
f 57/81/96 55/82/97 58/80/98
f 58/80/98 55/82/97 53/83/99
f 54/84/100 56/85/101 60/87/102
f 60/87/102 56/85/101 59/86/103
f 59/179/104 57/180/105 60/178/106
f 60/178/106 57/180/105 58/181/107
f 51/62/108 36/59/109 50/63/110
f 50/63/110 36/59/109 35/61/111
f 42/88/112 48/89/113 41/91/114
f 41/91/114 48/89/113 45/90/115
f 58/183/116 53/184/117 60/182/118
f 60/182/118 53/184/117 54/185/119
f 76/93/120 77/94/121 62/92/122
f 62/92/122 77/94/121 61/95/123
f 83/186/124 81/187/125 82/189/126
f 82/189/126 81/187/125 80/188/127
f 64/98/128 78/99/129 62/101/130
f 62/101/130 78/99/129 76/100/131
f 62/102/132 61/103/133 64/105/134
f 64/105/134 61/103/133 63/104/135
f 82/145/136 80/146/137 85/143/138
f 85/143/138 80/146/137 84/144/139
f 66/107/140 65/108/141 68/106/142
f 68/106/142 65/108/141 67/109/143
f 70/110/144 72/111/145 69/113/146
f 69/113/146 72/111/145 71/112/147
f 72/114/148 70/115/149 68/117/150
f 68/117/150 70/115/149 66/116/151
f 71/119/152 67/120/153 69/118/154
f 69/118/154 67/120/153 65/121/155
f 73/123/156 88/124/157 74/122/158
f 74/122/158 88/124/157 89/125/159
f 73/126/160 75/127/161 91/129/162
f 91/129/162 75/127/161 90/128/163
f 73/190/164 91/191/165 88/192/166
f 75/130/167 73/131/168 74/132/169
f 95/136/170 93/139/171 94/137/172
f 94/137/172 93/139/171 92/140/173
f 95/136/174 94/137/175 98/135/176
f 98/135/176 94/137/175 96/138/177
f 87/141/178 86/142/179 84/144/180
f 84/144/180 86/142/179 85/143/181
f 78/193/182 64/194/183 79/196/184
f 79/196/184 64/194/183 63/195/185
f 81/147/186 83/148/187 87/150/188
f 87/150/188 83/148/187 86/149/189
f 79/96/190 63/97/191 77/94/192
f 77/94/192 63/97/191 61/95/193
f 96/152/194 94/153/195 97/151/196
f 97/151/196 94/153/195 92/154/197
f 93/155/198 95/156/199 99/158/200
f 99/158/200 95/156/199 98/157/201
f 98/198/202 96/199/203 99/197/204
f 99/197/204 96/199/203 97/200/205
f 90/133/206 75/130/207 89/134/208
f 89/134/208 75/130/207 74/132/209
f 81/159/210 87/160/211 80/162/212
f 80/162/212 87/160/211 84/161/213
f 97/202/214 92/203/215 99/201/216
f 99/201/216 92/203/215 93/204/217
