mtllib tesla_block_coil.mtl
o tesla_block_coil
v 0.218152 -0.030301 0.413234
v 0.192687 -0.096177 0.364996
v 0.130636 0.024220 0.247456
v 0.164182 0.096178 0.311001
v 0.208102 0.049121 0.394196
v -0.063807 -0.030301 0.444452
v -0.055902 -0.096177 0.389391
v -0.037014 0.024220 0.257825
v -0.046519 0.096178 0.324034
v -0.060374 0.049121 0.420542
v 0.402982 -0.030301 0.198027
v 0.353058 -0.096177 0.173494
v 0.233768 0.024220 0.114875
v 0.293799 0.096178 0.144375
v 0.381302 0.049121 0.187374
v 0.442417 -0.030301 -0.076659
v 0.387607 -0.096177 -0.067162
v 0.256644 0.024220 -0.044470
v 0.322550 0.096178 -0.055889
v 0.418616 0.049121 -0.072535
v 0.312863 -0.030301 -0.322065
v 0.274104 -0.096177 -0.282165
v 0.181491 0.024220 -0.186829
v 0.228097 0.096178 -0.234805
v 0.296032 0.049121 -0.304738
v 0.063807 -0.030301 -0.444452
v 0.055902 -0.096177 -0.389391
v 0.037014 0.024220 -0.257825
v 0.046519 0.096178 -0.324034
v 0.060374 0.049121 -0.420542
v -0.209621 -0.030301 -0.397074
v -0.183652 -0.096177 -0.347882
v -0.121601 0.024220 -0.230341
v -0.152827 0.096178 -0.289492
v -0.198344 0.049121 -0.375713
v -0.402982 -0.030301 -0.198027
v -0.353058 -0.096177 -0.173494
v -0.233768 0.024220 -0.114875
v -0.293799 0.096178 -0.144374
v -0.381302 0.049121 -0.187374
v -0.442417 -0.030301 0.076659
v -0.387607 -0.096177 0.067162
v -0.256644 0.024220 0.044470
v -0.322550 0.096178 0.055889
v -0.418616 0.049121 0.072535
v -0.312863 -0.030301 0.322065
v -0.274104 -0.096177 0.282165
v -0.181491 0.024220 0.186829
v -0.228097 0.096178 0.234805
v -0.296032 0.049121 0.304738
vn 0.458971 -0.215315 0.861966
vn 0.031824 -0.997532 0.062586
vn -0.470128 -0.037197 -0.881814
vn -0.070065 0.987598 -0.140502
vn 0.356080 0.656322 0.665168
vn -0.172008 -0.205296 0.963466
vn -0.002242 -0.997989 0.063342
vn 0.197857 -0.044396 -0.979225
vn 0.040514 0.983408 -0.176824
vn -0.132361 0.655243 0.743732
vn 0.891241 -0.206953 0.403560
vn 0.052820 -0.998042 0.033500
vn -0.919571 -0.035131 -0.391351
vn -0.162581 0.984836 -0.060548
vn 0.698431 0.641142 0.318011
vn 0.964201 -0.205920 -0.167071
vn 0.062348 -0.997996 -0.010803
vn -0.984315 -0.045103 0.170556
vn -0.176008 0.983916 0.030498
vn 0.743276 0.656471 -0.128790
vn 0.681853 -0.205921 -0.701906
vn 0.044090 -0.997996 -0.045385
vn -0.696077 -0.045104 0.716549
vn -0.124469 0.983916 0.128130
vn 0.525622 0.656471 -0.541081
vn 0.139059 -0.205920 -0.968638
vn 0.008992 -0.997996 -0.062635
vn -0.141961 -0.045104 0.988844
vn -0.025385 0.983916 0.176819
vn 0.107198 0.656470 -0.746697
vn -0.456848 -0.205921 -0.865382
vn -0.029542 -0.997996 -0.055961
vn 0.466380 -0.045103 0.883434
vn 0.083396 0.983916 0.157970
vn -0.352173 0.656467 -0.667102
vn -0.878257 -0.205920 -0.431581
vn -0.056791 -0.997996 -0.027908
vn 0.896578 -0.045104 0.440584
vn 0.160321 0.983916 0.078783
vn -0.677024 0.656470 -0.332694
vn -0.964201 -0.205920 0.167071
vn -0.062348 -0.997996 0.010803
vn 0.984315 -0.045103 -0.170555
vn 0.176008 0.983916 -0.030498
vn -0.743276 0.656471 0.128790
vn -0.681853 -0.205921 0.701906
vn -0.044090 -0.997996 0.045385
vn 0.696077 -0.045104 -0.716549
vn 0.124469 0.983916 -0.128130
vn -0.525621 0.656471 0.541081
vt 0.943949 0.576924
vt 0.986186 0.584243
vt 0.843816 0.853927
vt 0.813946 0.823180
vt 0.684862 0.532032
vt 0.767836 0.546409
vt 0.689406 0.694975
vt 0.630729 0.634573
vt 0.823667 0.556083
vt 0.728886 0.735618
vt 0.896288 0.568666
vt 0.780242 0.788484
vt 0.904377 0.301287
vt 0.942850 0.282382
vt 0.668384 0.417255
vt 0.743963 0.380116
vt 0.794816 0.355125
vt 0.860964 0.322620
vt 0.718907 0.085335
vt 0.741693 0.042176
vt 0.591898 0.325922
vt 0.636334 0.241755
vt 0.664750 0.187922
vt 0.697002 0.126830
vt 0.435972 0.054009
vt 0.429881 0.011576
vt 0.473339 0.314288
vt 0.461374 0.230934
vt 0.453320 0.174844
vt 0.442846 0.101888
vt 0.186054 0.176820
vt 0.156184 0.146073
vt 0.369271 0.365427
vt 0.310599 0.305025
vt 0.271114 0.264382
vt 0.219758 0.211516
vt 0.056051 0.423076
vt 0.013814 0.415757
vt 0.315138 0.467968
vt 0.232049 0.452759
vt 0.176333 0.443917
vt 0.103712 0.431333
vt 0.095623 0.698713
vt 0.057150 0.717618
vt 0.331616 0.582745
vt 0.256161 0.620715
vt 0.205184 0.644874
vt 0.139036 0.677380
vt 0.289653 0.898449
vt 0.269641 0.936358
vt 0.412411 0.665916
vt 0.373100 0.740384
vt 0.346644 0.790494
vt 0.312235 0.855673
vt 0.564028 0.945990
vt 0.570119 0.988423
vt 0.526661 0.685712
vt 0.538630 0.769066
vt 0.546680 0.825156
vt 0.557154 0.898112
g teslaCoil
usemtl teslaCoil_mat
f 16/1/16 17/2/17 22/3/22 21/4/21 
f 17/5/17 18/6/18 23/7/23 22/8/22 
f 18/6/18 19/9/19 24/10/24 23/7/23 
f 19/9/19 20/11/20 25/12/25 24/10/24 
f 20/11/20 16/1/16 21/4/21 25/12/25 
f 11/13/11 12/14/12 17/2/17 16/1/16 
f 12/15/12 13/16/13 18/6/18 17/5/17 
f 13/16/13 14/17/14 19/9/19 18/6/18 
f 14/17/14 15/18/15 20/11/20 19/9/19 
f 15/18/15 11/13/11 16/1/16 20/11/20 
f 1/19/1 2/20/2 12/14/12 11/13/11 
f 2/21/2 3/22/3 13/16/13 12/15/12 
f 3/22/3 4/23/4 14/17/14 13/16/13 
f 4/23/4 5/24/5 15/18/15 14/17/14 
f 5/24/5 1/19/1 11/13/11 15/18/15 
f 6/25/6 7/26/7 2/20/2 1/19/1 
f 7/27/7 8/28/8 3/22/3 2/21/2 
f 8/28/8 9/29/9 4/23/4 3/22/3 
f 9/29/9 10/30/10 5/24/5 4/23/4 
f 10/30/10 6/25/6 1/19/1 5/24/5 
f 46/31/46 47/32/47 7/26/7 6/25/6 
f 47/33/47 48/34/48 8/28/8 7/27/7 
f 48/34/48 49/35/49 9/29/9 8/28/8 
f 49/35/49 50/36/50 10/30/10 9/29/9 
f 50/36/50 46/31/46 6/25/6 10/30/10 
f 41/37/41 42/38/42 47/32/47 46/31/46 
f 42/39/42 43/40/43 48/34/48 47/33/47 
f 43/40/43 44/41/44 49/35/49 48/34/48 
f 44/41/44 45/42/45 50/36/50 49/35/49 
f 45/42/45 41/37/41 46/31/46 50/36/50 
f 36/43/36 37/44/37 42/38/42 41/37/41 
f 37/45/37 38/46/38 43/40/43 42/39/42 
f 38/46/38 39/47/39 44/41/44 43/40/43 
f 39/47/39 40/48/40 45/42/45 44/41/44 
f 40/48/40 36/43/36 41/37/41 45/42/45 
f 31/49/31 32/50/32 37/44/37 36/43/36 
f 32/51/32 33/52/33 38/46/38 37/45/37 
f 33/52/33 34/53/34 39/47/39 38/46/38 
f 34/53/34 35/54/35 40/48/40 39/47/39 
f 35/54/35 31/49/31 36/43/36 40/48/40 
f 26/55/26 27/56/27 32/50/32 31/49/31 
f 27/57/27 28/58/28 33/52/33 32/51/32 
f 28/58/28 29/59/29 34/53/34 33/52/33 
f 29/59/29 30/60/30 35/54/35 34/53/34 
f 30/60/30 26/55/26 31/49/31 35/54/35 
f 21/4/21 22/3/22 27/56/27 26/55/26 
f 22/8/22 23/7/23 28/58/28 27/57/27 
f 23/7/23 24/10/24 29/59/29 28/58/28 
f 24/10/24 25/12/25 30/60/30 29/59/29 
f 25/12/25 21/4/21 26/55/26 30/60/30 
