mtllib tesla_block_base.mtl
o tesla_block_base.obj
v 0.987021 -0.380216 0.000000
v -1.020181 -0.380216 0.000000
v 0.000000 -0.380216 0.141615
v 0.564133 -0.380216 0.234645
v -0.580731 -0.380216 -0.093177
v -0.871096 -0.380216 -0.100303
v 0.838259 -0.380216 0.188391
v 0.863689 -0.518986 -0.060025
v -1.124856 -0.518986 -0.089336
v 1.110352 -0.518986 0.060025
v -0.915507 -0.518986 0.089336
v 0.000000 -0.518986 0.002845
v 0.000000 -0.518986 0.280384
v 0.583137 -0.518986 0.097222
v 0.545129 -0.518986 0.372069
v -0.595902 -0.518986 -0.231090
v -0.565559 -0.518986 0.044736
v -0.921691 -0.518986 -0.229232
v -0.820502 -0.518986 0.028625
v 0.778697 -0.518986 0.063468
v 0.897822 -0.518986 0.313314
vn -0.029113 0.999267 0.024846
vn 0.002774 0.999988 0.004123
vn 0.001525 0.999982 -0.005888
vn -0.000700 1.000000 0.000619
vn -0.007663 0.999956 -0.005493
vn -0.008465 0.999961 0.002368
vn -0.014112 0.999818 0.012853
vn -0.623348 0.653750 -0.429009
vn -0.399804 0.697873 -0.594247
vn 0.584875 0.666800 0.461844
vn 0.403656 0.690721 0.599972
vn 0.199306 0.684069 -0.701660
vn -0.197117 0.693231 0.693236
vn -0.002144 0.702186 -0.711990
vn 0.001162 0.701186 0.712978
vn 0.150738 0.688519 -0.709379
vn -0.161001 0.695535 0.700221
vn -0.195834 0.717892 -0.668042
vn 0.184353 0.715600 0.673744
vn -0.388312 0.703018 -0.595801
vn 0.365652 0.703518 0.609395
vt 0.995049 0.995049
vt 0.871287 0.995049
vt 0.871287 0.500000
vt 0.995049 0.500000
vt 0.128713 0.500000
vt 0.004950 0.500000
vt 0.004950 0.004950
vt 0.128713 0.004950
vt 0.500000 0.004950
vt 0.500000 0.500000
vt 0.252475 0.500000
vt 0.252475 0.004950
vt 0.747525 0.004950
vt 0.747525 0.500000
vt 0.871287 0.004950
vt 0.995049 0.004950
vt 0.128713 0.995049
vt 0.004950 0.995049
vt 0.500000 0.995049
vt 0.747525 0.995049
vt 0.252475 0.995049
g cable
usemtl tesla_block_metal
f 8/1/8 20/2/20 7/3/7 1/4/1 
f 6/5/6 2/6/2 11/7/11 19/8/19 
f 13/9/13 3/10/3 5/11/5 17/12/17 
f 3/10/3 13/9/13 15/13/15 4/14/4 
f 7/3/7 4/14/4 15/13/15 21/15/21 
f 19/8/19 17/12/17 5/11/5 6/5/6 
f 1/4/1 7/3/7 21/15/21 10/16/10 
f 2/6/2 6/5/6 18/17/18 9/18/9 
f 12/19/12 3/10/3 4/14/4 14/20/14 
f 4/14/4 7/3/7 20/2/20 14/20/14 
f 16/21/16 5/11/5 3/10/3 12/19/12 
f 6/5/6 5/11/5 16/21/16 18/17/18 
v -1.164270 0.020273 -0.077333
v -0.836275 -0.130440 0.044437
v -1.260447 0.013915 0.076409
v -0.957649 -0.139211 0.262356
v -1.191019 -0.047106 -0.015696
v -1.114356 -0.205883 0.060675
v -0.763978 0.215844 0.089820
v -0.687316 0.057067 0.166191
v -1.211632 -0.032983 0.034961
v -1.134969 -0.191760 0.111332
v -0.784591 0.229968 0.140478
v -0.707928 0.071190 0.216849
v -0.477008 0.353293 -0.039498
v -0.625625 0.328722 -0.044048
v -0.608090 0.367663 0.039869
v -0.835417 -0.183429 0.042783
v -1.160951 -0.184747 -0.083736
v -0.956791 -0.192199 0.260701
v -1.257128 -0.191106 0.070006
v -1.343060 -0.185930 0.118315
v -0.958861 -0.185930 0.427777
v -1.343060 -0.524701 0.118315
v -0.958861 -0.524701 0.427777
v -1.150407 -0.187607 -0.158520
v -1.150407 -0.523024 -0.158520
v -0.774230 -0.524701 0.051105
v -0.774230 -0.185930 0.051105
v -0.600415 0.167280 0.026317
v -0.724292 0.264057 -0.017059
v -0.698425 0.320984 0.105060
v -0.582134 0.207497 0.110840
v -0.733427 0.271239 -0.037958
v -0.701303 0.342961 0.117012
v -0.839868 0.199025 -0.005707
v -0.799758 0.288482 0.187481
v -0.729410 -0.057251 0.090969
v -0.588164 0.155042 0.014677
v -0.689586 0.031258 0.282079
v -0.565758 0.204868 0.122425
vn -0.101119 0.611843 -0.784489
vn 0.850485 0.514463 -0.109560
vn -0.711524 0.593823 0.375644
vn 0.347142 0.456285 0.819327
vn -0.024519 0.406344 -0.913391
vn 0.552313 -0.756057 -0.351180
vn -0.024519 0.406344 -0.913391
vn 0.552313 -0.756057 -0.351180
vn -0.552315 0.756058 0.351177
vn 0.024520 -0.406348 0.913389
vn -0.552315 0.756058 0.351177
vn 0.024520 -0.406348 0.913389
vn 0.951426 0.104474 -0.289609
vn -0.294073 0.614596 -0.731979
vn -0.102645 0.988744 0.108858
vn 0.940525 0.025796 -0.338743
vn -0.315342 0.024513 -0.948662
vn 0.246098 -0.026277 0.968889
vn -0.975048 -0.022685 0.220834
vn -0.817948 0.563477 0.115998
vn 0.167193 0.625860 0.761804
vn -0.989882 0.000000 0.141894
vn 0.216755 0.000000 0.976226
vn -0.188505 0.558477 -0.807817
vn -0.225263 0.000000 -0.974298
vn 0.954348 0.000000 -0.298698
vn 0.784847 0.568229 -0.247244
vn 0.598885 -0.589218 -0.542363
vn -0.368475 0.299331 -0.880129
vn -0.047921 0.842371 0.536763
vn 0.811353 -0.224610 0.539683
vn 0.039866 0.548532 -0.835178
vn 0.212335 0.973248 0.087763
vn -0.863372 0.087014 -0.497009
vn -0.662787 0.540763 0.517965
vn -0.040131 -0.901989 -0.429889
vn 0.754223 -0.127834 -0.644055
vn 0.212597 -0.276655 0.937158
vn 0.931508 0.274029 0.239166
vt 0.995049 0.995049
vt 0.995049 0.995049
vt 0.004950 0.995049
vt 0.004950 0.995049
vt 0.995049 0.004950
vt 0.995049 0.004950
vt 0.004950 0.004950
vt 0.004950 0.004950
vt 0.995049 0.004950
vt 0.995049 0.004950
vt 0.004950 0.004950
vt 0.004950 0.995049
vt 0.004950 0.995049
vt 0.995049 0.995049
vt 0.995049 0.995049
vt 0.004950 0.995049
vt 0.004950 0.995049
vt 0.995049 0.004950
vt 0.995049 0.004950
vt 0.004950 0.004950
vt 0.004950 0.004950
vt 0.995049 0.995049
vt 0.995049 0.995049
vt 0.500000 0.995049
vt 0.500000 0.995049
vt 0.995049 0.004950
vt 0.500000 0.004950
vt 0.500000 0.004950
vt 0.500000 0.995049
vt 0.995049 0.004950
vt 0.004950 0.004950
vt 0.500000 0.004950
vt 0.500000 0.995049
vt 0.004950 0.995049
vt 0.004950 0.004950
vt 0.004950 0.995049
vt 0.995049 0.995049
vt 0.995049 0.995049
vt 0.004950 0.004950
vt 0.500000 0.995049
vt 0.500000 0.004950
vt 0.000000 0.000000
vt 0.000000 0.000000
vt 0.000000 0.000000
vt 0.000000 0.000000

f 23/22/23 37/23/37 38/24/38 22/25/22 
f 44/26/44 42/27/42 41/28/41 43/29/43 
f 25/30/25 39/31/39 37/23/37 23/22/23 
f 23/22/23 22/25/22 24/32/24 25/30/25 
f 43/29/43 41/28/41 45/33/45 46/34/46 
f 29/35/29 27/36/27 26/37/26 28/38/28 
f 31/39/31 33/40/33 32/41/32 30/42/30 
f 33/40/33 31/39/31 27/36/27 29/35/29 
f 30/42/30 32/41/32 28/38/28 26/37/26 
f 35/43/35 34/44/34 49/45/49 50/46/50 
f 34/47/34 36/51/36 51/48/51 52/49/52 
f 34/47/34 52/49/52 49/50/49 
f 36/51/36 34/44/34 35/43/35 
f 56/52/56 54/53/54 53/54/53 55/55/55 
f 59/56/59 56/52/56 55/55/55 57/57/57 
f 48/58/48 47/59/47 46/34/46 45/33/45 
f 39/31/39 25/30/25 24/32/24 40/60/40 
f 42/27/42 44/26/44 47/59/47 48/58/48 
f 40/60/40 24/32/24 22/25/22 38/24/38 
f 58/61/58 57/57/57 55/55/55 53/54/53 
f 54/53/54 56/52/56 59/56/59 60/62/60 
f 60/62/60 59/56/59 57/57/57 58/61/58 
f 51/48/51 36/51/36 35/43/35 50/46/50 
f 42/27/42 48/58/48 45/33/45 41/28/41 
f 60/63/60 58/64/58 53/65/53 54/66/54 
v 1.164270 0.020273 0.077333
v 0.836275 -0.130440 -0.044437
v 1.260447 0.013915 -0.076409
v 0.957649 -0.139211 -0.262356
v 1.191019 -0.047106 0.015696
v 1.114356 -0.205883 -0.060675
v 0.763978 0.215844 -0.089820
v 0.687316 0.057067 -0.166191
v 1.211632 -0.032983 -0.034961
v 1.134969 -0.191760 -0.111332
v 0.784591 0.229968 -0.140478
v 0.707928 0.071190 -0.216849
v 0.477008 0.353293 0.039498
v 0.625625 0.328722 0.044048
v 0.608090 0.367663 -0.039869
v 0.835417 -0.183429 -0.042783
v 1.160951 -0.184747 0.083736
v 0.956791 -0.192199 -0.260701
v 1.257128 -0.191106 -0.070006
v 1.340244 -0.187607 -0.119514
v 0.959849 -0.187607 -0.425912
v 1.340244 -0.523024 -0.119514
v 0.959849 -0.523024 -0.425912
v 1.150407 -0.187607 0.158520
v 1.150407 -0.523024 0.158520
v 0.777046 -0.523024 -0.052970
v 0.777046 -0.187607 -0.052970
v 0.600415 0.167280 -0.026317
v 0.724292 0.264057 0.017059
v 0.698425 0.320984 -0.105060
v 0.582134 0.207497 -0.110840
v 0.733427 0.271239 0.037958
v 0.701303 0.342961 -0.117012
v 0.839868 0.199025 0.005707
v 0.799758 0.288482 -0.187481
v 0.729410 -0.057251 -0.090969
v 0.588164 0.155042 -0.014677
v 0.689586 0.031258 -0.282079
v 0.565758 0.204868 -0.122425
vn 0.101119 0.611843 0.784489
vn -0.850485 0.514463 0.109560
vn 0.711524 0.593823 -0.375644
vn -0.347142 0.456285 -0.819327
vn 0.024519 0.406344 0.913391
vn -0.552313 -0.756057 0.351180
vn 0.024519 0.406344 0.913391
vn -0.552313 -0.756057 0.351180
vn 0.552315 0.756058 -0.351177
vn -0.024520 -0.406348 -0.913389
vn 0.552315 0.756058 -0.351177
vn -0.024520 -0.406348 -0.913389
vn -0.951426 0.104474 0.289609
vn 0.294073 0.614596 0.731979
vn 0.102645 0.988744 -0.108858
vn -0.940525 0.025796 0.338743
vn 0.315342 0.024513 0.948662
vn -0.246098 -0.026277 -0.968889
vn 0.975048 -0.022685 -0.220834
vn 0.817741 0.562738 -0.120935
vn -0.169183 0.625121 -0.761972
vn 0.989241 0.000000 -0.146298
vn -0.216755 0.000000 -0.976226
vn 0.187107 0.561905 0.805763
vn 0.226192 0.000000 0.974083
vn -0.955386 0.000000 0.295359
vn -0.787487 0.566211 0.243453
vn -0.598885 -0.589218 0.542363
vn 0.368475 0.299331 0.880129
vn 0.047921 0.842371 -0.536763
vn -0.811353 -0.224610 -0.539683
vn -0.039866 0.548532 0.835178
vn -0.212335 0.973248 -0.087763
vn 0.863372 0.087014 0.497009
vn 0.662787 0.540763 -0.517965
vn 0.040131 -0.901989 0.429889
vn -0.754223 -0.127834 0.644055
vn -0.212597 -0.276655 -0.937158
vn -0.931508 0.274029 -0.239166
vt 0.995049 0.995049
vt 0.995049 0.995049
vt 0.004950 0.995049
vt 0.004950 0.995049
vt 0.995049 0.004950
vt 0.995049 0.004950
vt 0.004950 0.004950
vt 0.004950 0.004950
vt 0.995049 0.004950
vt 0.995049 0.004950
vt 0.004950 0.004950
vt 0.004950 0.995049
vt 0.004950 0.995049
vt 0.995049 0.995049
vt 0.995049 0.995049
vt 0.004950 0.995049
vt 0.004950 0.995049
vt 0.995049 0.004950
vt 0.995049 0.004950
vt 0.004950 0.004950
vt 0.004950 0.004950
vt 0.995049 0.995049
vt 0.995049 0.995049
vt 0.500000 0.995049
vt 0.500000 0.995049
vt 0.995049 0.004950
vt 0.500000 0.004950
vt 0.500000 0.004950
vt 0.500000 0.995049
vt 0.995049 0.004950
vt 0.004950 0.004950
vt 0.500000 0.004950
vt 0.500000 0.995049
vt 0.004950 0.995049
vt 0.004950 0.004950
vt 0.004950 0.995049
vt 0.995049 0.995049
vt 0.995049 0.995049
vt 0.004950 0.004950
vt 0.500000 0.995049
vt 0.500000 0.004950
f 62/67/62 76/68/76 77/69/77 61/70/61 
f 83/71/83 81/72/81 80/73/80 82/74/82 
f 64/75/64 78/76/78 76/68/76 62/67/62 
f 62/67/62 61/70/61 63/77/63 64/75/64 
f 82/74/82 80/73/80 84/78/84 85/79/85 
f 68/80/68 66/81/66 65/82/65 67/83/67 
f 70/84/70 72/85/72 71/86/71 69/87/69 
f 72/85/72 70/84/70 66/81/66 68/80/68 
f 69/87/69 71/86/71 67/83/67 65/82/65 
f 74/88/74 73/89/73 88/90/88 89/91/89 
f 73/92/73 75/96/75 90/93/90 91/94/91 
f 73/92/73 91/94/91 88/95/88 
f 75/96/75 73/89/73 74/88/74 
f 95/97/95 93/98/93 92/99/92 94/100/94 
f 98/101/98 95/97/95 94/100/94 96/102/96 
f 87/103/87 86/104/86 85/79/85 84/78/84 
f 78/76/78 64/75/64 63/77/63 79/105/79 
f 81/72/81 83/71/83 86/104/86 87/103/87 
f 79/105/79 63/77/63 61/70/61 77/69/77 
f 97/106/97 96/102/96 94/100/94 92/99/92 
f 93/98/93 95/97/95 98/101/98 99/107/99 
f 99/107/99 98/101/98 96/102/96 97/106/97 
f 90/93/90 75/96/75 74/88/74 89/91/89 
f 81/72/81 87/103/87 84/78/84 80/73/80 
f 99/107/99 97/106/97 92/99/92 93/98/93 
