# This file uses centimeters as units for non-parametric coordinates.

mtllib tesla_block_coil.mtl
v 0.078989 -0.026330 0.382793
v 0.329627 -0.024439 0.223903
v 0.382793 -0.026330 0.078989
v 0.382793 -0.026330 -0.078989
v 0.329627 -0.024439 -0.223903
v 0.078989 -0.026330 -0.382793
v -0.078989 -0.026330 -0.382793
v -0.283297 -0.023967 -0.283297
v -0.382793 -0.026330 -0.078989
v -0.382793 -0.026330 0.078989
v -0.283297 -0.023967 0.283297
v -0.078989 -0.026330 0.382793
v 0.078989 0.026330 0.382793
v 0.329627 0.024439 0.223903
v 0.382793 0.026330 0.078989
v 0.382793 0.026330 -0.078989
v 0.329627 0.024439 -0.223903
v 0.078989 0.026330 -0.382793
v -0.078989 0.026330 -0.382793
v -0.283297 0.023967 -0.283297
v -0.382793 0.026330 -0.078989
v -0.382793 0.026330 0.078989
v -0.283297 0.023967 0.283297
v -0.078989 0.026330 0.382793
v 0.023967 -0.283297 0.283297
v 0.026330 -0.078989 0.382793
v 0.026330 -0.026330 0.382793
v 0.026330 0.026330 0.382793
v 0.026330 0.078989 0.382793
v 0.023967 0.283297 0.283297
v 0.026330 0.382793 0.078989
v 0.026330 0.382793 -0.078989
v 0.023967 0.283297 -0.283297
v 0.026330 0.078989 -0.382793
v 0.026330 0.026330 -0.382793
v 0.026330 -0.026330 -0.382793
v 0.026330 -0.078989 -0.382793
v 0.023967 -0.283297 -0.283297
v 0.026330 -0.382793 -0.078989
v 0.026330 -0.382793 0.078989
v -0.023967 -0.283297 0.283297
v -0.026330 -0.078989 0.382793
v -0.026330 -0.026330 0.382793
v -0.026330 0.026330 0.382793
v -0.026330 0.078989 0.382793
v -0.023967 0.283297 0.283297
v -0.026330 0.382793 0.078989
v -0.026330 0.382793 -0.078989
v -0.023967 0.283297 -0.283297
v -0.026330 0.078989 -0.382793
v -0.026330 0.026330 -0.382793
v -0.026330 -0.026330 -0.382793
v -0.026330 -0.078989 -0.382793
v -0.023967 -0.283297 -0.283297
v -0.026330 -0.382793 -0.078989
v -0.026330 -0.382793 0.078989
v 0.025636 -0.076909 -0.372711
v 0.025636 0.076909 -0.372711
v 0.023336 0.275836 -0.275836
v 0.025636 0.372711 -0.076909
v 0.025636 0.372711 0.076909
v 0.023336 0.275836 0.275836
v 0.025636 0.076909 0.372711
v 0.025636 -0.076909 0.372711
v 0.023336 -0.275836 0.275836
v 0.025636 -0.372711 0.076909
v 0.025636 -0.372711 -0.076909
v 0.023336 -0.275836 -0.275836
v -0.025636 -0.076909 -0.372711
v -0.025636 0.076909 -0.372711
v -0.023336 0.275836 -0.275836
v -0.025636 0.372711 -0.076909
v -0.025636 0.372711 0.076909
v -0.023336 0.275836 0.275836
v -0.025636 0.076909 0.372711
v -0.025636 -0.076909 0.372711
v -0.023336 -0.275836 0.275836
v -0.025636 -0.372711 0.076909
v -0.025636 -0.372711 -0.076909
v -0.023336 -0.275836 -0.275836
v 0.025636 0.025636 -0.372711
v -0.025636 0.025636 -0.372711
v -0.076909 0.025636 -0.372711
v -0.275836 0.023336 -0.275836
v -0.372711 0.025636 -0.076909
v -0.372711 0.025636 0.076909
v -0.275836 0.023336 0.275836
v -0.076909 0.025636 0.372711
v -0.025636 0.025636 0.372711
v 0.025636 0.025636 0.372711
v 0.076909 0.025636 0.372711
v 0.320946 0.023796 0.218007
v 0.372711 0.025636 0.076909
v 0.372711 0.025636 -0.076909
v 0.320946 0.023796 -0.218007
v 0.076909 0.025636 -0.372711
v 0.025636 -0.025636 -0.372711
v -0.025636 -0.025636 -0.372711
v -0.076909 -0.025636 -0.372711
v -0.275836 -0.023336 -0.275836
v -0.372711 -0.025636 -0.076909
v -0.372711 -0.025636 0.076909
v -0.275836 -0.023336 0.275836
v -0.076909 -0.025636 0.372711
v -0.025636 -0.025636 0.372711
v 0.025636 -0.025636 0.372711
v 0.076909 -0.025636 0.372711
v 0.320946 -0.023796 0.218007
v 0.372711 -0.025636 0.076909
v 0.372711 -0.025636 -0.076909
v 0.320946 -0.023796 -0.218007
v 0.076909 -0.025636 -0.372711
vt 0.846341 0.438494
vt 0.900214 0.447703
vt 0.944641 0.446803
vt 0.965656 0.840309
vt 0.989427 0.448816
vt 0.920703 0.840083
vt 0.818697 0.833686
vt 0.733183 0.826344
vt 0.657896 0.815146
vt 0.611921 0.813613
vt 0.609653 0.442222
vt 0.653005 0.443510
vt 0.717697 0.443158
vt 0.754083 0.436020
vt 0.845515 0.468386
vt 0.899641 0.462419
vt 0.944847 0.462274
vt 0.967838 0.824680
vt 0.987946 0.462922
vt 0.922939 0.819106
vt 0.821483 0.805155
vt 0.735863 0.797511
vt 0.664167 0.802955
vt 0.613865 0.795973
vt 0.608879 0.456393
vt 0.652799 0.458779
vt 0.717095 0.456948
vt 0.753217 0.466375
vt 0.808734 0.371503
vt 0.816428 0.407623
vt 0.827497 0.426659
vt 0.826024 0.479346
vt 0.813909 0.497762
vt 0.803925 0.533727
vt 0.802201 0.599404
vt 0.799272 0.644604
vt 0.798299 0.698678
vt 0.795694 0.773974
vt 0.805863 0.791825
vt 0.800838 0.844127
vt 0.780672 0.859871
vt 0.774782 0.932783
vt 0.810483 0.262682
vt 0.770449 0.983894
vt 0.809229 0.307118
vt 0.794859 0.370893
vt 0.785689 0.406644
vt 0.773571 0.425213
vt 0.772074 0.478171
vt 0.783129 0.497245
vt 0.790164 0.533845
vt 0.786913 0.599112
vt 0.786417 0.643414
vt 0.778589 0.696524
vt 0.767119 0.771326
vt 0.753729 0.787170
vt 0.748768 0.839656
vt 0.765741 0.857525
vt 0.759487 0.931527
vt 0.798030 0.261527
vt 0.750113 0.981326
vt 0.796222 0.307179
vt 0.780672 0.859871
vt 0.795694 0.773974
vt 0.798299 0.698678
vt 0.799272 0.644604
vt 0.802201 0.599404
vt 0.803925 0.533727
vt 0.813909 0.497762
vt 0.816428 0.407623
vt 0.808734 0.371503
vt 0.809229 0.307118
vt 0.770449 0.983894
vt 0.810483 0.262682
vt 0.774782 0.932783
vt 0.765741 0.857525
vt 0.767119 0.771326
vt 0.778589 0.696524
vt 0.786417 0.643414
vt 0.786913 0.599112
vt 0.790164 0.533845
vt 0.783129 0.497245
vt 0.785689 0.406644
vt 0.794859 0.370893
vt 0.796222 0.307179
vt 0.750113 0.981326
vt 0.798030 0.261527
vt 0.759487 0.931527
vt 0.805863 0.791825
vt 0.753729 0.787170
vt 0.735863 0.797511
vt 0.664167 0.802955
vt 0.608879 0.456393
vt 0.613865 0.795973
vt 0.652799 0.458779
vt 0.717095 0.456948
vt 0.753216 0.466375
vt 0.772074 0.478171
vt 0.826024 0.479347
vt 0.845515 0.468386
vt 0.899641 0.462419
vt 0.944847 0.462274
vt 0.987946 0.462922
vt 0.967838 0.824680
vt 0.922939 0.819106
vt 0.821483 0.805155
vt 0.800838 0.844128
vt 0.748768 0.839657
vt 0.733183 0.826344
vt 0.657896 0.815146
vt 0.609653 0.442222
vt 0.611921 0.813613
vt 0.653005 0.443510
vt 0.717697 0.443158
vt 0.754083 0.436020
vt 0.773571 0.425213
vt 0.827497 0.426659
vt 0.846341 0.438494
vt 0.900214 0.447703
vt 0.944641 0.446803
vt 0.989427 0.448816
vt 0.965656 0.840309
vt 0.920703 0.840083
vt 0.818697 0.833687
vn 0.778382 0.000000 0.627791
vn 0.778382 0.000000 0.627791
vn 0.369950 0.000000 0.929052
vn 0.184975 0.000000 0.982743
vn 0.984584 0.000000 0.174911
vn 0.984584 0.000000 0.174911
vn 0.984584 0.000000 -0.174911
vn 0.984584 0.000000 -0.174911
vn 0.843998 0.000000 -0.536346
vn 0.702905 0.000000 -0.711284
vn 0.278758 0.000000 -0.960361
vn 0.278758 0.000000 -0.960361
vn -0.224658 0.000000 -0.974438
vn 0.000000 0.000000 -1.000000
vn -0.224658 0.000000 -0.974438
vn 0.000000 0.000000 -1.000000
vn -0.707107 0.000000 -0.707107
vn -0.707107 0.000000 -0.707107
vn -0.974438 0.000000 -0.224658
vn -0.974438 0.000000 -0.224658
vn -0.974438 0.000000 0.224658
vn -0.974438 0.000000 0.224658
vn -0.783262 0.000000 0.621692
vn -0.621692 0.000000 0.783262
vn -0.149332 0.000000 0.988787
vn -0.298664 0.000000 0.954358
vn 0.000000 0.000000 1.000000
vn 0.000000 0.000000 1.000000
vn 0.000000 0.000000 1.000000
vn 0.000000 0.000000 1.000000
vn 0.000000 0.000000 -1.000000
vn 0.000000 0.000000 -1.000000
vn 0.000000 -0.149332 0.988787
vn 0.000000 -0.621692 0.783262
vn 0.000000 -0.298664 0.954358
vn 0.000000 -0.783262 0.621692
vn 0.000000 0.224658 0.974438
vn 0.000000 0.224658 0.974438
vn 0.000000 0.707107 0.707107
vn 0.000000 0.707107 0.707107
vn 0.000000 0.974438 0.224658
vn 0.000000 0.974438 0.224658
vn 0.000000 0.974438 -0.224658
vn 0.000000 0.974438 -0.224658
vn 0.000000 0.783262 -0.621692
vn 0.000000 0.621692 -0.783262
vn 0.000000 0.149332 -0.988787
vn 0.000000 0.298664 -0.954358
vn 0.000000 -0.224658 -0.974438
vn 0.000000 -0.224658 -0.974438
vn 0.000000 -0.707107 -0.707107
vn 0.000000 -0.707107 -0.707107
vn 0.000000 -0.974438 -0.224658
vn 0.000000 -0.974438 -0.224658
vn 0.000000 -0.974438 0.224658
vn 0.000000 -0.974438 0.224658
vn 0.000000 0.224658 0.974438
vn 0.000000 0.224658 0.974438
vn 0.000000 0.000000 1.000000
vn 0.000000 0.000000 1.000000
vn 0.000000 -0.707107 0.707107
vn 0.000000 -0.707107 0.707107
vn 0.000000 -0.298664 0.954358
vn 0.000000 -0.149332 0.988787
vn 0.000000 -0.988787 0.149332
vn 0.000000 -0.954358 0.298664
vn 0.000000 -0.954358 -0.298664
vn 0.000000 -0.988787 -0.149332
vn 0.000000 -0.783262 -0.621692
vn 0.000000 -0.621692 -0.783262
vn 0.000000 -0.224658 -0.974438
vn 0.000000 -0.224658 -0.974438
vn 0.000000 0.224658 -0.974438
vn 0.000000 0.000000 -1.000000
vn 0.000000 0.224658 -0.974438
vn 0.000000 0.000000 -1.000000
vn 0.000000 0.707107 -0.707107
vn 0.000000 0.707107 -0.707107
vn 0.000000 0.988787 -0.149332
vn 0.000000 0.954358 -0.298664
vn 0.000000 0.954358 0.298664
vn 0.000000 0.988787 0.149332
vn 0.000000 0.783262 0.621692
vn 0.000000 0.621692 0.783262
vn 0.000000 0.000000 1.000000
vn 0.000000 0.000000 1.000000
vn 0.000000 0.000000 -1.000000
vn 0.000000 0.000000 -1.000000
vn 0.298664 0.000000 0.954358
vn 0.149332 0.000000 0.988787
vn 0.621692 0.000000 0.783262
vn 0.783262 0.000000 0.621692
vn 0.988787 0.000000 0.149332
vn 0.954358 0.000000 0.298664
vn 0.974438 0.000000 -0.224658
vn 0.974438 0.000000 -0.224658
vn 0.707107 0.000000 -0.707107
vn 0.707107 0.000000 -0.707107
vn 0.149332 0.000000 -0.988787
vn 0.298664 0.000000 -0.954358
vn -0.369950 0.000000 -0.929052
vn -0.184975 0.000000 -0.982743
vn -0.702905 0.000000 -0.711284
vn -0.843999 0.000000 -0.536345
vn -0.993202 0.000000 -0.116403
vn -0.972523 0.000000 -0.232806
vn -0.984584 0.000000 0.174910
vn -0.984584 0.000000 0.174910
vn -0.702905 0.000000 0.711284
vn -0.843999 0.000000 0.536345
vn -0.278758 0.000000 0.960361
vn -0.278758 0.000000 0.960361
g teslaBlock_coil
usemtl teslaBlock_3_0:teslaBlock_coilMatSG
f 2/2/1 14/16/2 1/1/3
f 1/1/3 14/16/2 13/15/4
f 15/17/5 14/16/2 3/3/6
f 3/3/6 14/16/2 2/2/1
f 4/5/7 16/19/8 3/3/6
f 3/3/6 16/19/8 15/17/5
f 4/4/7 5/6/9 16/18/8
f 16/18/8 5/6/9 17/20/10
f 5/6/9 6/7/11 17/20/10
f 17/20/10 6/7/11 18/21/12
f 19/22/13 51/56/14 7/8/15
f 7/8/15 51/56/14 52/57/16
f 8/9/17 20/23/18 7/8/15
f 7/8/15 20/23/18 19/22/13
f 21/24/19 20/23/18 9/10/20
f 9/10/20 20/23/18 8/9/17
f 10/12/21 22/26/22 9/11/20
f 9/11/20 22/26/22 21/25/19
f 10/12/21 11/13/23 22/26/22
f 22/26/22 11/13/23 23/27/24
f 24/28/25 23/27/24 12/14/26
f 12/14/26 23/27/24 11/13/23
f 12/14/26 43/48/27 24/28/25
f 24/28/25 43/48/27 44/49/28
f 28/32/29 27/31/30 13/15/4
f 13/15/4 27/31/30 1/1/3
f 36/40/31 35/39/32 6/7/11
f 6/7/11 35/39/32 18/21/12
f 42/47/33 41/46/34 26/30/35
f 26/30/35 41/46/34 25/29/36
f 26/30/35 27/31/30 42/47/33
f 42/47/33 27/31/30 43/48/27
f 44/49/28 43/48/27 28/32/29
f 28/32/29 43/48/27 27/31/30
f 45/50/37 44/49/28 29/33/38
f 29/33/38 44/49/28 28/32/29
f 30/34/39 46/51/40 29/33/38
f 29/33/38 46/51/40 45/50/37
f 47/52/41 46/51/40 31/35/42
f 31/35/42 46/51/40 30/34/39
f 32/36/43 48/53/44 31/35/42
f 31/35/42 48/53/44 47/52/41
f 32/36/43 33/37/45 48/53/44
f 48/53/44 33/37/45 49/54/46
f 50/55/47 49/54/46 34/38/48
f 34/38/48 49/54/46 33/37/45
f 34/38/48 35/39/32 50/55/47
f 50/55/47 35/39/32 51/56/14
f 52/57/16 51/56/14 36/40/31
f 36/40/31 51/56/14 35/39/32
f 53/58/49 52/57/16 37/41/50
f 37/41/50 52/57/16 36/40/31
f 38/42/51 54/59/52 37/41/50
f 37/41/50 54/59/52 53/58/49
f 55/61/53 54/59/52 39/44/54
f 39/44/54 54/59/52 38/42/51
f 40/45/55 56/62/56 39/43/54
f 39/43/54 56/62/56 55/60/53
f 40/45/55 25/29/36 56/62/56
f 56/62/56 25/29/36 41/46/34
f 69/76/57 57/63/58 98/108/59
f 98/108/59 57/63/58 97/107/60
f 59/65/61 71/78/62 58/64/63
f 58/64/63 71/78/62 70/77/64
f 72/79/65 71/78/62 60/66/66
f 60/66/66 71/78/62 59/65/61
f 73/80/67 72/79/65 61/67/68
f 61/67/68 72/79/65 60/66/66
f 61/67/68 62/68/69 73/80/67
f 73/80/67 62/68/69 74/81/70
f 75/82/71 74/81/70 63/69/72
f 63/69/72 74/81/70 62/68/69
f 76/83/73 105/116/74 64/70/75
f 64/70/75 105/116/74 106/117/76
f 65/71/77 77/84/78 64/70/75
f 64/70/75 77/84/78 76/83/73
f 78/85/79 77/84/78 66/72/80
f 66/72/80 77/84/78 65/71/77
f 79/87/81 78/85/79 67/74/82
f 67/74/82 78/85/79 66/72/80
f 67/73/82 68/75/83 79/86/81
f 79/86/81 68/75/83 80/88/84
f 69/76/57 80/88/84 57/63/58
f 57/63/58 80/88/84 68/75/83
f 82/90/85 81/89/86 70/77/64
f 70/77/64 81/89/86 58/64/63
f 90/99/87 89/98/88 63/69/72
f 63/69/72 89/98/88 75/82/71
f 98/108/59 97/107/60 82/90/85
f 82/90/85 97/107/60 81/89/86
f 99/109/89 98/108/59 83/91/90
f 83/91/90 98/108/59 82/90/85
f 83/91/90 84/92/91 99/109/89
f 99/109/89 84/92/91 100/110/92
f 101/112/93 100/110/92 85/94/94
f 85/94/94 100/110/92 84/92/91
f 85/93/94 86/95/95 101/111/93
f 101/111/93 86/95/95 102/113/96
f 87/96/97 103/114/98 86/95/95
f 86/95/95 103/114/98 102/113/96
f 104/115/99 103/114/98 88/97/100
f 88/97/100 103/114/98 87/96/97
f 88/97/100 89/98/88 104/115/99
f 104/115/99 89/98/88 105/116/74
f 106/117/76 105/116/74 90/99/87
f 90/99/87 105/116/74 89/98/88
f 107/118/101 106/117/76 91/100/102
f 91/100/102 106/117/76 90/99/87
f 91/100/102 92/101/103 107/118/101
f 107/118/101 92/101/103 108/119/104
f 109/120/105 108/119/104 93/102/106
f 93/102/106 108/119/104 92/101/103
f 93/102/106 94/103/107 109/120/105
f 109/120/105 94/103/107 110/121/108
f 95/105/109 111/123/110 94/104/107
f 94/104/107 111/123/110 110/122/108
f 96/106/111 112/124/112 95/105/109
f 95/105/109 112/124/112 111/123/110
f 97/107/60 112/124/112 81/89/86
f 81/89/86 112/124/112 96/106/111
