# This file uses centimeters as units for non-parametric coordinates.

mtllib tesla_block_base.mtl
v -0.643695 -0.465815 0.243695
v -0.156305 -0.465815 0.243695
v -0.643695 -0.334185 0.243695
v -0.156305 -0.334185 0.243695
v -0.643695 -0.334185 -0.243695
v -0.156305 -0.334185 -0.243695
v -0.643695 -0.465815 -0.243695
v -0.156305 -0.465815 -0.243695
v -0.547461 -0.505815 0.145707
v -0.252539 -0.505815 0.145707
v -0.547461 -0.374185 0.145707
v -0.252539 -0.374185 0.145707
v -0.547461 -0.374185 -0.145707
v -0.252539 -0.374185 -0.145707
v -0.547461 -0.505815 -0.145707
v -0.252539 -0.505815 -0.145707
v -0.400000 -0.374185 -0.205163
v -0.400000 -0.505815 -0.205163
v -0.400000 -0.505815 0.205163
v -0.400000 -0.374185 0.205163
v -0.192369 -0.374185 0.000000
v -0.192369 -0.505815 0.000000
v -0.400000 -0.505815 0.000000
v -0.607631 -0.505815 0.000000
v -0.607631 -0.374185 0.000000
v 0.643695 0.465815 0.243695
v 0.156305 0.465815 0.243695
v 0.643695 0.334185 0.243695
v 0.156305 0.334185 0.243695
v 0.643695 0.334185 -0.243695
v 0.156305 0.334185 -0.243695
v 0.643695 0.465815 -0.243695
v 0.156305 0.465815 -0.243695
v 0.547461 0.505815 0.145707
v 0.252539 0.505815 0.145707
v 0.547461 0.374185 0.145707
v 0.252539 0.374185 0.145707
v 0.547461 0.374185 -0.145707
v 0.252539 0.374185 -0.145707
v 0.547461 0.505815 -0.145707
v 0.252539 0.505815 -0.145707
v 0.400000 0.374185 -0.205163
v 0.400000 0.505815 -0.205163
v 0.400000 0.505815 0.205163
v 0.400000 0.374185 0.205163
v 0.192369 0.374185 0.000000
v 0.192369 0.505815 0.000000
v 0.400000 0.505815 0.000000
v 0.607631 0.505815 0.000000
v 0.607631 0.374185 0.000000
v 0.560361 -0.425231 0.025357
v 0.560361 -0.374517 0.000000
v 0.560361 -0.425231 -0.025357
v 0.620765 -0.406265 0.025357
v 0.707697 -0.302178 0.025357
v 0.587569 -0.364399 0.000000
v 0.655057 -0.270439 0.000000
v 0.620765 -0.406265 -0.025357
v 0.707697 -0.302178 -0.025357
v 0.700546 0.183022 0.025458
v 0.587912 0.279238 0.025357
v 0.652757 0.145992 0.000000
v 0.556794 0.239193 0.000000
v 0.700546 0.183022 -0.025256
v 0.587912 0.279238 -0.025357
v 0.543599 0.292510 0.025357
v 0.392999 0.289144 0.025357
v 0.544732 0.241809 0.000000
v 0.394132 0.238443 -0.000000
v 0.543599 0.292510 -0.025357
v 0.392999 0.289144 -0.025357
v 0.383312 0.304483 0.025357
v 0.378987 0.455059 0.025357
v 0.332619 0.303027 -0.000000
v 0.328294 0.453603 0.000000
v 0.383312 0.304483 -0.025357
v 0.378987 0.455059 -0.025357
v -0.560361 -0.374517 -0.000000
v -0.560361 -0.425231 0.025357
v -0.560361 -0.425231 -0.025357
vt 0.739802 0.005461
vt 0.739802 0.005461
vt 0.489802 0.255461
vt 0.489802 0.255461
vt 0.489802 0.005461
vt 0.739802 0.005461
vt 0.489802 0.255461
vt 0.739802 0.255461
vt 0.489802 0.255461
vt 0.739802 0.255461
vt 0.739802 0.005461
vt 0.739802 0.255461
vt 0.489802 0.005461
vt 0.489802 0.255461
vt 0.572146 0.442282
vt 0.572146 0.442282
vt 0.042968 0.503106
vt 0.042968 0.503106
vt 0.572146 0.442282
vt 0.042968 0.442282
vt 0.572146 0.503106
vt 0.042968 0.503106
vt 0.554324 0.699738
vt 0.479206 0.515644
vt 0.572146 0.442282
vt 0.572146 0.503106
vt 0.042968 0.442282
vt 0.042968 0.503106
vt 0.739802 0.255461
vt 0.489802 0.255461
vt 0.739802 0.005461
vt 0.489802 0.005461
vt 0.489802 0.005461
vt 0.739802 0.255461
vt 0.489802 0.005461
vt 0.739802 0.005461
vt 0.739802 0.255461
vt 0.489802 0.005461
vt 0.042968 0.442282
vt 0.572146 0.503106
vt 0.042968 0.442282
vt 0.572146 0.503106
vt 0.295110 0.440524
vt 0.295110 0.699738
vt 0.307557 0.442282
vt 0.111015 0.515644
vt 0.307557 0.503106
vt 0.307557 0.442282
vt 0.035896 0.699738
vt 0.307557 0.503106
vt 0.307557 0.503106
vt 0.295110 0.958952
vt 0.307557 0.442282
vt 0.111015 0.883832
vt 0.307557 0.442282
vt 0.479206 0.883833
vt 0.307557 0.503106
vt 0.489802 0.005461
vt 0.739802 0.005461
vt 0.489802 0.255461
vt 0.739802 0.255461
vt 0.489802 0.005461
vt 0.739802 0.005461
vt 0.489802 0.255461
vt 0.739802 0.255461
vt 0.489802 0.005461
vt 0.739802 0.005461
vt 0.489802 0.255461
vt 0.739802 0.255461
vt 0.489802 0.005461
vt 0.739802 0.005461
vt 0.489802 0.255461
vt 0.739802 0.255461
vt 0.489802 0.005461
vt 0.739802 0.005461
vt 0.489802 0.255461
vt 0.739802 0.255461
vt 0.489802 0.005461
vt 0.739802 0.005461
vt 0.489802 0.255461
vt 0.739802 0.255461
vt 0.042968 0.503106
vt 0.042968 0.442282
vt 0.307557 0.442282
vt 0.307557 0.503106
vt 0.307557 0.503106
vt 0.307557 0.442282
vt 0.572146 0.442282
vt 0.572146 0.503106
vt 0.035896 0.699738
vt 0.111015 0.515644
vt 0.295110 0.440524
vt 0.295110 0.699738
vt 0.307557 0.503106
vt 0.307557 0.442282
vt 0.572146 0.442282
vt 0.572146 0.503106
vt 0.042968 0.503106
vt 0.042968 0.442282
vt 0.307557 0.442282
vt 0.307557 0.503106
vt 0.307557 0.442282
vt 0.307557 0.503106
vt 0.479206 0.515644
vt 0.554324 0.699738
vt 0.572146 0.442282
vt 0.572146 0.503106
vt 0.042968 0.503106
vt 0.042968 0.442282
vt 0.295110 0.958952
vt 0.479206 0.883833
vt 0.111015 0.883832
vt 0.572146 0.442282
vt 0.572146 0.503106
vt 0.303002 0.315139
vt 0.275319 0.315139
vt 0.272060 0.265139
vt 0.306128 0.415139
vt 0.275337 0.365139
vt 0.302884 0.365139
vt 0.161807 0.315139
vt 0.130257 0.315139
vt 0.127486 0.265139
vt 0.166112 0.415139
vt 0.130324 0.365139
vt 0.161880 0.365139
vt 0.119557 0.315139
vt 0.082386 0.315139
vt 0.088344 0.265139
vt 0.124633 0.415139
vt 0.082354 0.365139
vt 0.119619 0.365139
vt 0.077911 0.315139
vt 0.040583 0.315139
vt 0.040583 0.265139
vt 0.072426 0.415139
vt 0.040583 0.365139
vt 0.077889 0.365139
vt 0.316123 0.365139
vt 0.313705 0.415139
vt 0.316238 0.315139
vt 0.579820 0.415139
vt 0.579820 0.315139
vt 0.579820 0.365139
vt 0.313931 0.265139
vt 0.579820 0.265139
vt 0.088640 0.415139
vt 0.072080 0.265139
vt 0.127709 0.415139
vt 0.124404 0.265139
vt 0.272064 0.415139
vt 0.165880 0.265139
vt 0.306356 0.265139
vt 0.040583 0.415139
vn 0.000000 0.000000 1.000000
vn 0.000000 0.000000 1.000000
vn 0.000000 0.000000 1.000000
vn 0.000000 0.000000 1.000000
vn 0.000000 1.000000 0.000000
vn 0.000000 1.000000 0.000000
vn 0.000000 1.000000 0.000000
vn 0.000000 1.000000 0.000000
vn 0.000000 0.000000 -1.000000
vn 0.000000 0.000000 -1.000000
vn 0.000000 0.000000 -1.000000
vn 0.000000 0.000000 -1.000000
vn 0.000000 -1.000000 0.000000
vn 0.000000 -1.000000 0.000000
vn 0.000000 -1.000000 0.000000
vn 0.000000 -1.000000 0.000000
vn 1.000000 0.000000 0.000000
vn 1.000000 0.000000 0.000000
vn 1.000000 0.000000 0.000000
vn 1.000000 0.000000 0.000000
vn -1.000000 0.000000 0.000000
vn -1.000000 0.000000 0.000000
vn -1.000000 0.000000 0.000000
vn -1.000000 0.000000 0.000000
vn -0.373946 0.000000 0.927451
vn -0.373946 0.000000 0.927451
vn -0.133201 0.000000 0.991089
vn 0.133201 0.000000 0.991089
vn -0.373946 0.000000 -0.927451
vn -0.373946 0.000000 -0.927451
vn -0.133201 0.000000 -0.991089
vn 0.133201 0.000000 -0.991089
vn 0.000000 -1.000000 -0.000000
vn 0.000000 -1.000000 0.000000
vn 0.000000 -1.000000 -0.000000
vn 0.000000 -1.000000 0.000000
vn 0.990659 0.000000 0.136365
vn 0.990659 0.000000 -0.136365
vn 0.924291 0.000000 -0.381689
vn 0.924291 0.000000 -0.381689
vn -0.924291 0.000000 -0.381689
vn -0.924291 0.000000 -0.381689
vn -0.990659 0.000000 -0.136365
vn -0.990659 0.000000 0.136365
vn 0.373946 0.000000 -0.927451
vn 0.373946 0.000000 -0.927451
vn 0.000000 -1.000000 0.000000
vn 0.000000 -1.000000 -0.000000
vn 0.373946 0.000000 0.927451
vn 0.373946 0.000000 0.927451
vn 0.924291 0.000000 0.381689
vn 0.924291 0.000000 0.381689
vn 0.000000 -1.000000 0.000000
vn 0.000000 -1.000000 -0.000000
vn 0.000000 -1.000000 -0.000000
vn -0.924291 0.000000 0.381689
vn -0.924291 0.000000 0.381689
vn 0.000000 0.000000 1.000000
vn 0.000000 0.000000 1.000000
vn 0.000000 0.000000 1.000000
vn 0.000000 0.000000 1.000000
vn 0.000000 -1.000000 0.000000
vn 0.000000 -1.000000 0.000000
vn 0.000000 -1.000000 0.000000
vn 0.000000 -1.000000 0.000000
vn 0.000000 0.000000 -1.000000
vn 0.000000 0.000000 -1.000000
vn 0.000000 0.000000 -1.000000
vn 0.000000 0.000000 -1.000000
vn 0.000000 1.000000 0.000000
vn 0.000000 1.000000 0.000000
vn 0.000000 1.000000 0.000000
vn 0.000000 1.000000 0.000000
vn -1.000000 0.000000 0.000000
vn -1.000000 0.000000 0.000000
vn -1.000000 0.000000 0.000000
vn -1.000000 0.000000 0.000000
vn 1.000000 0.000000 0.000000
vn 1.000000 0.000000 0.000000
vn 1.000000 0.000000 0.000000
vn 1.000000 0.000000 0.000000
vn 0.373946 0.000000 0.927451
vn 0.373946 0.000000 0.927451
vn 0.133201 0.000000 0.991089
vn -0.133201 0.000000 0.991089
vn 0.373946 0.000000 -0.927451
vn 0.373946 0.000000 -0.927451
vn 0.133201 0.000000 -0.991089
vn -0.133201 0.000000 -0.991089
vn 0.000000 1.000000 -0.000000
vn 0.000000 1.000000 0.000000
vn 0.000000 1.000000 -0.000000
vn 0.000000 1.000000 0.000000
vn -0.990659 0.000000 0.136365
vn -0.990659 0.000000 -0.136365
vn -0.924291 0.000000 -0.381689
vn -0.924291 0.000000 -0.381689
vn 0.924291 0.000000 -0.381689
vn 0.924291 0.000000 -0.381689
vn 0.990659 0.000000 -0.136365
vn 0.990659 0.000000 0.136365
vn -0.373946 0.000000 -0.927451
vn -0.373946 0.000000 -0.927451
vn 0.000000 1.000000 0.000000
vn 0.000000 1.000000 -0.000000
vn -0.373946 0.000000 0.927451
vn -0.373946 0.000000 0.927451
vn -0.924291 0.000000 0.381689
vn -0.924291 0.000000 0.381689
vn 0.000000 1.000000 0.000000
vn 0.000000 1.000000 -0.000000
vn 0.000000 1.000000 -0.000000
vn 0.924291 0.000000 0.381689
vn 0.924291 0.000000 0.381689
vn 0.477909 -0.711912 0.514572
vn 0.061083 -0.036777 0.997455
vn -0.566147 0.824304 0.000000
vn -0.958897 0.283756 0.000000
vn 0.474938 -0.181032 -0.861198
vn 0.286215 -0.423717 -0.859386
vn 0.761799 0.367668 0.533370
vn 0.083040 0.231522 0.969279
vn -0.918773 -0.394785 -0.000767
vn -0.407716 -0.913109 -0.000000
vn 0.310303 0.626764 -0.714758
vn 0.446718 0.225139 -0.865884
vn 0.082558 0.691604 0.717543
vn -0.003859 -0.011553 0.999926
vn -0.067930 -0.926280 0.370662
vn -0.335361 -0.870632 -0.359908
vn 0.014601 0.045988 -0.998835
vn 0.241488 0.585992 -0.773497
vn 0.822196 0.246284 0.513164
vn 0.058890 0.001692 0.998263
vn -0.878708 -0.402054 0.257342
vn -0.831707 -0.023887 -0.554700
vn 0.193583 0.098851 -0.976091
vn 0.866169 0.024877 -0.499131
vn -0.135618 0.919206 -0.369686
vn 0.080283 -0.693918 -0.715565
vn -0.000062 -0.052190 0.998637
vn 0.000000 0.832050 0.554700
vn 0.000000 -0.866526 0.499132
vn -0.000000 -0.058914 -0.998263
g polySurface8
usemtl teslaBlock_coilMatSG
f 1/35/1 2/2/2 3/3/3
f 3/3/3 2/2/2 4/37/4
f 3/33/5 4/36/6 5/30/7
f 5/30/7 4/36/6 6/29/8
f 5/5/9 6/6/10 7/7/11
f 7/7/11 6/6/10 8/8/12
f 7/32/13 8/31/14 1/9/15
f 1/9/15 8/31/14 2/10/16
f 2/38/17 8/11/18 4/4/19
f 4/4/19 8/11/18 6/12/20
f 7/13/21 1/1/22 5/14/23
f 5/14/23 1/1/22 3/34/24
f 11/18/25 9/41/26 20/50/27
f 20/50/27 9/41/26 19/48/28
f 15/22/29 13/20/30 18/47/31
f 18/47/31 13/20/30 17/45/32
f 24/23/33 15/24/34 23/44/35
f 23/44/35 15/24/34 18/43/36
f 21/51/37 22/53/38 14/26/39
f 14/26/39 22/53/38 16/25/40
f 13/28/41 15/27/42 25/57/43
f 25/57/43 15/27/42 24/55/44
f 18/47/31 17/45/32 16/21/45
f 16/21/45 17/45/32 14/19/46
f 18/43/36 16/46/47 23/44/35
f 23/44/35 16/46/47 22/49/48
f 20/50/27 19/48/28 12/40/49
f 12/40/49 19/48/28 10/16/50
f 12/17/51 10/39/52 21/51/37
f 21/51/37 10/39/52 22/53/38
f 19/52/53 23/44/35 10/54/54
f 10/54/54 23/44/35 22/49/48
f 24/23/33 23/44/35 9/56/55
f 9/56/55 23/44/35 19/52/53
f 25/57/43 24/55/44 11/42/56
f 11/42/56 24/55/44 9/15/57
f 26/58/58 27/59/59 28/60/60
f 28/60/60 27/59/59 29/61/61
f 28/62/62 29/63/63 30/64/64
f 30/64/64 29/63/63 31/65/65
f 30/66/66 31/67/67 32/68/68
f 32/68/68 31/67/67 33/69/69
f 32/70/70 33/71/71 26/72/72
f 26/72/72 33/71/71 27/73/73
f 27/74/74 33/75/75 29/76/76
f 29/76/76 33/75/75 31/77/77
f 32/78/78 26/79/79 30/80/80
f 30/80/80 26/79/79 28/81/81
f 36/82/82 34/83/83 45/85/84
f 45/85/84 34/83/83 44/84/85
f 40/86/86 38/87/87 43/89/88
f 43/89/88 38/87/87 42/88/89
f 49/90/90 40/91/91 48/93/92
f 48/93/92 40/91/91 43/92/93
f 46/94/94 47/95/95 39/97/96
f 39/97/96 47/95/95 41/96/97
f 38/98/98 40/99/99 50/101/100
f 50/101/100 40/99/99 49/100/101
f 43/89/88 42/88/89 41/103/102
f 41/103/102 42/88/89 39/102/103
f 43/92/93 41/104/104 48/93/92
f 48/93/92 41/104/104 47/105/105
f 45/85/84 44/84/85 37/107/106
f 37/107/106 44/84/85 35/106/107
f 37/108/108 35/109/109 46/94/94
f 46/94/94 35/109/109 47/95/95
f 44/110/110 48/93/92 35/111/111
f 35/111/111 48/93/92 47/105/105
f 49/90/90 48/93/92 34/112/112
f 34/112/112 48/93/92 44/110/110
f 50/101/100 49/100/101 36/114/113
f 36/114/113 49/100/101 34/113/114
f 54/115/115 55/116/116 56/153/117
f 56/153/117 55/116/116 57/117/118
f 57/151/118 59/119/119 56/118/117
f 56/118/117 59/119/119 58/120/120
f 58/120/120 59/119/119 54/115/115
f 54/115/115 59/119/119 55/116/116
f 60/121/121 61/122/122 62/152/123
f 62/152/123 61/122/122 63/123/124
f 63/149/124 65/125/125 62/124/123
f 62/124/123 65/125/125 64/126/126
f 64/126/126 65/125/125 60/121/121
f 60/121/121 65/125/125 61/122/122
f 66/127/127 67/128/128 68/150/129
f 68/150/129 67/128/128 69/129/130
f 68/130/129 69/147/130 70/132/131
f 70/132/131 69/147/130 71/131/132
f 70/132/131 71/131/132 66/127/127
f 66/127/127 71/131/132 67/128/128
f 72/133/133 73/134/134 74/148/135
f 74/148/135 73/134/134 75/135/136
f 74/136/135 75/154/136 76/138/137
f 76/138/137 75/154/136 77/137/138
f 76/138/137 77/137/138 72/133/133
f 72/133/133 77/137/138 73/134/134
f 52/140/139 56/118/117 53/139/140
f 53/139/140 56/118/117 58/120/120
f 51/141/141 53/139/140 54/115/115
f 54/115/115 53/139/140 58/120/120
f 52/145/139 51/141/141 56/153/117
f 56/153/117 51/141/141 54/115/115
f 57/151/118 62/124/123 59/119/119
f 59/119/119 62/124/123 64/126/126
f 57/117/118 55/116/116 62/152/123
f 62/152/123 55/116/116 60/121/121
f 55/116/116 59/119/119 60/121/121
f 60/121/121 59/119/119 64/126/126
f 61/122/122 66/127/127 63/123/124
f 63/123/124 66/127/127 68/150/129
f 65/125/125 63/149/124 70/132/131
f 70/132/131 63/149/124 68/130/129
f 61/122/122 65/125/125 66/127/127
f 66/127/127 65/125/125 70/132/131
f 67/128/128 71/131/132 72/133/133
f 72/133/133 71/131/132 76/138/137
f 69/147/130 74/136/135 71/131/132
f 71/131/132 74/136/135 76/138/137
f 69/129/130 67/128/128 74/148/135
f 74/148/135 67/128/128 72/133/133
f 52/145/139 78/146/142 51/141/141
f 51/141/141 78/146/142 79/143/143
f 51/141/141 79/143/143 53/139/140
f 53/139/140 79/143/143 80/144/144
f 53/139/140 80/144/144 52/140/139
f 52/140/139 80/144/144 78/142/142
