# This file uses centimeters as units for non-parametric coordinates.

mtllib tesla_block_coil.mtl
v -0.056930 -0.224310 0.224310
v 0.056930 -0.224310 0.224310
v -0.056930 0.224310 0.224310
v 0.056930 0.224310 0.224310
v -0.056930 0.224310 -0.224310
v 0.056930 0.224310 -0.224310
v -0.056930 -0.224310 -0.224310
v 0.056930 -0.224310 -0.224310
v -0.224310 -0.056930 0.224310
v -0.224310 0.056930 0.224310
v -0.224310 0.056930 -0.224310
v -0.224310 -0.056930 -0.224310
v 0.062542 -0.062542 0.303090
v 0.062542 0.062542 0.303090
v -0.062542 0.062542 0.303090
v -0.062542 -0.062542 0.303090
v 0.062542 0.303090 0.062542
v 0.062542 0.303090 -0.062542
v -0.062542 0.303090 -0.062542
v -0.062542 0.303090 0.062542
v 0.062542 0.062542 -0.303090
v 0.062542 -0.062542 -0.303090
v -0.062542 -0.062542 -0.303090
v -0.062542 0.062542 -0.303090
v 0.062542 -0.303090 -0.062542
v 0.062542 -0.303090 0.062542
v -0.062542 -0.303090 0.062542
v -0.062542 -0.303090 -0.062542
v 0.260994 -0.058052 -0.177283
v 0.303090 -0.062542 -0.062542
v 0.303090 0.062542 -0.062542
v 0.260994 0.058052 -0.177283
v 0.260994 0.058052 0.177283
v 0.303090 0.062542 0.062542
v 0.303090 -0.062542 0.062542
v 0.260994 -0.058052 0.177283
v -0.303090 -0.062542 0.062542
v -0.303090 0.062542 0.062542
v -0.303090 0.062542 -0.062542
v -0.303090 -0.062542 -0.062542
v -0.055430 -0.218403 0.218403
v 0.055430 -0.218403 0.218403
v -0.055430 0.218403 0.218403
v 0.055430 0.218403 0.218403
v -0.055430 0.218403 -0.218403
v 0.055430 0.218403 -0.218403
v -0.055430 -0.218403 -0.218403
v 0.055430 -0.218403 -0.218403
v -0.218403 -0.055430 0.218403
v -0.218403 0.055430 0.218403
v -0.218403 0.055430 -0.218403
v -0.218403 -0.055430 -0.218403
v 0.060895 -0.060895 0.295107
v 0.060895 0.060895 0.295107
v -0.060895 0.060895 0.295107
v -0.060895 -0.060895 0.295107
v 0.060895 0.295107 0.060895
v 0.060895 0.295107 -0.060895
v -0.060895 0.295107 -0.060895
v -0.060895 0.295107 0.060895
v 0.060895 0.060895 -0.295107
v 0.060895 -0.060895 -0.295107
v -0.060895 -0.060895 -0.295107
v -0.060895 0.060895 -0.295107
v 0.060895 -0.295107 -0.060895
v 0.060895 -0.295107 0.060895
v -0.060895 -0.295107 0.060895
v -0.060895 -0.295107 -0.060895
v 0.254120 -0.056523 -0.172614
v 0.295107 -0.060895 -0.060895
v 0.295107 0.060895 -0.060895
v 0.254120 0.056523 -0.172614
v 0.254120 0.056523 0.172614
v 0.295107 0.060895 0.060895
v 0.295107 -0.060895 0.060895
v 0.254120 -0.056523 0.172614
v -0.295107 -0.060895 0.060895
v -0.295107 0.060895 0.060895
v -0.295107 0.060895 -0.060895
v -0.295107 -0.060895 -0.060895
v 0.109025 -0.224567 -0.108532
v 0.152386 -0.157212 -0.161737
v 0.178582 -0.022295 0.204224
v 0.221943 0.045060 0.151019
v -0.152386 0.157212 0.161737
v -0.109025 0.224567 0.108532
v -0.221943 -0.045060 -0.151019
v -0.178582 0.022295 -0.204224
v 0.071232 -0.248116 0.086373
v 0.088886 -0.196780 0.165750
v -0.242083 -0.017272 0.123262
v -0.259736 -0.068609 0.043886
v 0.237725 -0.112477 -0.044122
v 0.257119 -0.056079 0.043081
v 0.209482 -0.130075 0.101531
v 0.190088 -0.186473 0.014329
v 0.116952 0.148628 0.187996
v 0.024671 0.198679 0.176150
v -0.022966 0.124683 0.234601
v 0.069315 0.074633 0.246447
v -0.190088 0.186473 -0.014329
v -0.209482 0.130075 -0.101531
v -0.257119 0.056079 -0.043081
v -0.237725 0.112477 0.044122
v -0.069315 -0.074633 -0.246447
v 0.022966 -0.124683 -0.234601
v -0.024671 -0.198679 -0.176150
v -0.116952 -0.148628 -0.187996
v -0.040395 0.199158 -0.179220
v 0.059590 0.176124 -0.191155
v 0.078984 0.232521 -0.103952
v -0.022394 0.251506 -0.098278
v 0.239187 0.109632 -0.064699
v 0.171265 0.182471 -0.092106
v 0.151871 0.126073 -0.179309
v 0.221185 0.057284 -0.145641
v -0.078984 -0.232521 0.103952
v -0.059590 -0.176124 0.191155
v -0.151871 -0.126073 0.179309
v -0.171265 -0.182471 0.092106
v 0.106153 -0.218653 -0.105673
v 0.148373 -0.153072 -0.157477
v 0.173879 -0.021708 0.198845
v 0.216098 0.043873 0.147041
v -0.148373 0.153072 0.157477
v -0.106153 0.218653 0.105673
v -0.216098 -0.043873 -0.147041
v -0.173879 0.021708 -0.198845
v 0.069356 -0.241582 0.084098
v 0.086545 -0.191598 0.161384
v -0.235707 -0.016818 0.120016
v -0.252896 -0.066802 0.042730
v 0.231464 -0.109515 -0.042960
v 0.250347 -0.054602 0.041946
v 0.203965 -0.126649 0.098857
v 0.185082 -0.181562 0.013951
v 0.113872 0.144714 0.183045
v 0.024021 0.193446 0.171511
v -0.022361 0.121399 0.228422
v 0.067490 0.072667 0.239956
v -0.185082 0.181562 -0.013951
v -0.203965 0.126649 -0.098857
v -0.250347 0.054602 -0.041946
v -0.231464 0.109515 0.042960
v -0.067490 -0.072667 -0.239956
v 0.022361 -0.121399 -0.228422
v -0.024021 -0.193446 -0.171511
v -0.113872 -0.144714 -0.183045
v -0.039331 0.193912 -0.174500
v 0.058021 0.171485 -0.186120
v 0.076904 0.226398 -0.101215
v -0.021804 0.244882 -0.095690
v 0.232887 0.106745 -0.062995
v 0.166754 0.177665 -0.089680
v 0.147871 0.122753 -0.174586
v 0.215360 0.055775 -0.141805
v -0.076904 -0.226398 0.101215
v -0.058021 -0.171485 0.186120
v -0.147871 -0.122753 0.174586
v -0.166754 -0.177665 0.089680
vt 0.900787 0.432987
vt 0.821985 0.431771
vt 0.822610 0.372114
vt 0.780983 0.370282
vt 0.778772 0.430395
vt 0.899068 0.477134
vt 0.820824 0.473794
vt 0.817686 0.533608
vt 0.777553 0.473068
vt 0.776403 0.533964
vt 0.716493 0.470738
vt 0.718298 0.429369
vt 0.823664 0.599696
vt 0.756078 0.642224
vt 0.765449 0.598821
vt 0.829611 0.645794
vt 0.809487 0.722236
vt 0.762411 0.717091
vt 0.803204 0.791932
vt 0.755532 0.787513
vt 0.798556 0.839532
vt 0.894806 0.799698
vt 0.889465 0.849800
vt 0.792385 0.907901
vt 0.751061 0.835616
vt 0.745582 0.904902
vt 0.682046 0.829652
vt 0.686975 0.782947
vt 0.842523 0.263837
vt 0.773953 0.307240
vt 0.765990 0.260372
vt 0.831498 0.307057
vt 0.990907 0.418931
vt 0.944434 0.427124
vt 0.986466 0.495963
vt 0.945054 0.486161
vt 0.653210 0.419826
vt 0.608687 0.834445
vt 0.652594 0.478256
vt 0.613333 0.767187
vt 0.610426 0.408422
vt 0.608105 0.484933
vt 0.943909 0.795830
vt 0.938697 0.863311
vt 0.729144 0.976591
vt 0.795741 0.982725
vt 0.900787 0.432987
vt 0.822610 0.372114
vt 0.821985 0.431771
vt 0.780983 0.370282
vt 0.778772 0.430395
vt 0.899068 0.477134
vt 0.820824 0.473794
vt 0.817686 0.533608
vt 0.777553 0.473068
vt 0.776403 0.533964
vt 0.716493 0.470738
vt 0.718298 0.429369
vt 0.823664 0.599696
vt 0.756078 0.642224
vt 0.829611 0.645794
vt 0.765449 0.598821
vt 0.809487 0.722236
vt 0.762411 0.717091
vt 0.755532 0.787513
vt 0.803204 0.791932
vt 0.798556 0.839532
vt 0.889465 0.849800
vt 0.894806 0.799698
vt 0.792385 0.907901
vt 0.751061 0.835616
vt 0.745582 0.904902
vt 0.682046 0.829652
vt 0.686975 0.782947
vt 0.795741 0.982725
vt 0.773953 0.307240
vt 0.831498 0.307057
vt 0.842523 0.263837
vt 0.765990 0.260372
vt 0.729144 0.976591
vt 0.938697 0.863311
vt 0.944434 0.427124
vt 0.990907 0.418931
vt 0.943909 0.795830
vt 0.945054 0.486161
vt 0.986466 0.495963
vt 0.653210 0.419826
vt 0.610426 0.408422
vt 0.652594 0.478256
vt 0.613333 0.767187
vt 0.608105 0.484933
vt 0.608687 0.834445
vt 0.780983 0.370282
vt 0.822610 0.372114
vt 0.778772 0.430395
vt 0.821985 0.431771
vt 0.899068 0.477134
vt 0.820824 0.473794
vt 0.900787 0.432987
vt 0.777553 0.473068
vt 0.776403 0.533964
vt 0.817686 0.533608
vt 0.718298 0.429369
vt 0.716493 0.470738
vt 0.756078 0.642224
vt 0.765449 0.598821
vt 0.829611 0.645794
vt 0.823664 0.599696
vt 0.809487 0.722236
vt 0.762411 0.717091
vt 0.755532 0.787513
vt 0.803204 0.791932
vt 0.798556 0.839532
vt 0.889465 0.849800
vt 0.894806 0.799698
vt 0.751061 0.835616
vt 0.745582 0.904902
vt 0.792385 0.907901
vt 0.686975 0.782947
vt 0.682046 0.829652
vt 0.773953 0.307240
vt 0.765990 0.260372
vt 0.831498 0.307057
vt 0.842523 0.263837
vt 0.795741 0.982725
vt 0.729144 0.976591
vt 0.938697 0.863311
vt 0.943909 0.795830
vt 0.986466 0.495963
vt 0.945054 0.486161
vt 0.990907 0.418931
vt 0.944434 0.427124
vt 0.653210 0.419826
vt 0.652594 0.478256
vt 0.608105 0.484933
vt 0.610426 0.408422
vt 0.613333 0.767187
vt 0.608687 0.834445
vt 0.780983 0.370282
vt 0.778772 0.430395
vt 0.822610 0.372114
vt 0.821985 0.431771
vt 0.899068 0.477134
vt 0.900787 0.432987
vt 0.820824 0.473794
vt 0.777553 0.473068
vt 0.776403 0.533964
vt 0.817686 0.533608
vt 0.718298 0.429369
vt 0.716493 0.470738
vt 0.756078 0.642224
vt 0.829611 0.645794
vt 0.765449 0.598821
vt 0.823664 0.599696
vt 0.809487 0.722236
vt 0.762411 0.717091
vt 0.755532 0.787513
vt 0.803204 0.791932
vt 0.798556 0.839532
vt 0.889465 0.849800
vt 0.894806 0.799698
vt 0.751061 0.835616
vt 0.745582 0.904902
vt 0.792385 0.907901
vt 0.686975 0.782947
vt 0.682046 0.829652
vt 0.773953 0.307240
vt 0.831498 0.307057
vt 0.765990 0.260372
vt 0.842523 0.263837
vt 0.795741 0.982725
vt 0.729144 0.976591
vt 0.938697 0.863311
vt 0.943909 0.795830
vt 0.986466 0.495963
vt 0.990907 0.418931
vt 0.945054 0.486161
vt 0.944434 0.427124
vt 0.653210 0.419826
vt 0.652594 0.478256
vt 0.608105 0.484933
vt 0.610426 0.408422
vt 0.613333 0.767187
vt 0.608687 0.834445
vn 0.000000 -0.783262 0.621692
vn 0.000000 -0.621692 0.783262
vn -0.183957 -0.183957 0.965567
vn 0.140640 -0.115007 0.983359
vn 0.778382 0.000000 0.627791
vn 0.284032 0.116132 0.951756
vn 0.778382 0.000000 0.627791
vn -0.091251 0.182501 0.978962
vn 0.000000 0.783262 0.621692
vn 0.000000 0.621692 0.783262
vn -0.707107 0.000000 0.707107
vn -0.707107 0.000000 0.707107
vn 0.000000 0.974438 -0.224658
vn 0.000000 0.988787 0.149332
vn 0.000000 0.974438 -0.224658
vn 0.000000 0.954358 0.298664
vn 0.000000 0.621692 -0.783262
vn 0.000000 0.783262 -0.621692
vn -0.183957 0.183957 -0.965567
vn 0.226304 0.092529 -0.969652
vn 0.189228 -0.154739 -0.969664
vn 0.702905 0.000000 -0.711284
vn 0.843998 0.000000 -0.536346
vn -0.091251 -0.182501 -0.978962
vn 0.000000 -0.783262 -0.621692
vn 0.000000 -0.621692 -0.783262
vn -0.707107 0.000000 -0.707107
vn -0.707107 0.000000 -0.707107
vn 0.000000 -0.974438 0.224658
vn 0.000000 -0.988787 -0.149332
vn 0.000000 -0.974438 0.224658
vn 0.000000 -0.954358 -0.298664
vn 0.984584 0.000000 -0.174911
vn 0.984584 0.000000 -0.174911
vn 0.984584 0.000000 0.174911
vn 0.984584 0.000000 0.174911
vn -0.974438 0.000000 0.224658
vn -0.974438 0.000000 0.224658
vn -0.974438 0.000000 -0.224658
vn -0.974438 0.000000 -0.224658
vn 0.000000 0.783262 -0.621692
vn 0.183957 0.183957 -0.965567
vn 0.000000 0.621692 -0.783262
vn -0.140640 0.115007 -0.983358
vn -0.778382 0.000000 -0.627791
vn -0.778382 0.000000 -0.627791
vn -0.284032 -0.116132 -0.951756
vn 0.091251 -0.182501 -0.978962
vn 0.000000 -0.783262 -0.621692
vn 0.000000 -0.621692 -0.783262
vn 0.707107 0.000000 -0.707107
vn 0.707107 0.000000 -0.707107
vn 0.000000 -0.974438 0.224658
vn 0.000000 -0.974438 0.224658
vn 0.000000 -0.988787 -0.149332
vn 0.000000 -0.954358 -0.298664
vn 0.000000 -0.621692 0.783262
vn 0.000000 -0.783262 0.621692
vn 0.183957 -0.183957 0.965567
vn -0.226304 -0.092529 0.969652
vn -0.189228 0.154739 0.969664
vn -0.702905 0.000000 0.711284
vn -0.843999 0.000000 0.536345
vn 0.091251 0.182501 0.978962
vn 0.000000 0.783262 0.621692
vn 0.000000 0.621692 0.783262
vn 0.707107 0.000000 0.707107
vn 0.707107 0.000000 0.707107
vn 0.000000 0.974438 -0.224658
vn 0.000000 0.974438 -0.224658
vn 0.000000 0.988787 0.149332
vn 0.000000 0.954358 0.298664
vn -0.984584 0.000000 0.174910
vn -0.984584 0.000000 0.174910
vn -0.984584 0.000000 -0.174910
vn -0.984584 0.000000 -0.174910
vn 0.974438 0.000000 -0.224658
vn 0.974438 0.000000 -0.224658
vn 0.974438 0.000000 0.224658
vn 0.974438 0.000000 0.224658
vn 0.399254 -0.712662 -0.576810
vn 0.570043 -0.702955 -0.425330
vn 0.726694 -0.684491 0.058206
vn 0.901256 -0.428759 -0.062475
vn 0.899347 0.247769 -0.360258
vn 0.980739 -0.189964 0.045434
vn 0.899347 0.247769 -0.360258
vn 0.847469 -0.430276 0.310900
vn 0.686828 0.123603 0.716233
vn 0.798297 -0.039193 0.600987
vn 0.298810 -0.830261 0.470509
vn 0.298810 -0.830261 0.470509
vn -0.017354 0.626622 0.779130
vn 0.311956 0.457102 0.832911
vn -0.017354 0.626622 0.779130
vn 0.436076 0.367976 0.821238
vn -0.570043 0.702955 0.425329
vn -0.399254 0.712662 0.576809
vn -0.892590 0.426799 0.145349
vn -0.727952 0.667279 -0.157561
vn -0.790073 0.509316 -0.341149
vn -0.304353 0.829297 -0.468653
vn -0.087927 0.845243 -0.527099
vn -0.929761 0.302449 -0.209927
vn -0.686828 -0.123603 -0.716233
vn -0.798297 0.039193 -0.600987
vn -0.936490 -0.160270 0.311930
vn -0.936490 -0.160270 0.311930
vn 0.017354 -0.626622 -0.779130
vn -0.311956 -0.457102 -0.832911
vn 0.017354 -0.626622 -0.779130
vn -0.436076 -0.367976 -0.821238
vn 0.291174 0.772479 -0.564352
vn 0.291174 0.772479 -0.564352
vn 0.596739 0.606750 -0.525126
vn 0.596739 0.606750 -0.525126
vn -0.243145 -0.788941 0.564317
vn -0.243145 -0.788941 0.564317
vn -0.635618 -0.576075 0.513934
vn -0.635618 -0.576075 0.513934
vn -0.399254 0.712662 0.576810
vn -0.726694 0.684491 -0.058206
vn -0.570043 0.702955 0.425329
vn -0.901256 0.428760 0.062475
vn -0.899347 -0.247769 0.360258
vn -0.899347 -0.247769 0.360258
vn -0.980739 0.189964 -0.045434
vn -0.847469 0.430276 -0.310900
vn -0.686828 -0.123602 -0.716233
vn -0.798297 0.039193 -0.600987
vn -0.298810 0.830261 -0.470509
vn -0.298810 0.830261 -0.470509
vn 0.017354 -0.626622 -0.779130
vn 0.017354 -0.626622 -0.779131
vn -0.311956 -0.457102 -0.832911
vn -0.436076 -0.367976 -0.821238
vn 0.570043 -0.702955 -0.425329
vn 0.399254 -0.712662 -0.576810
vn 0.892590 -0.426799 -0.145349
vn 0.727952 -0.667279 0.157561
vn 0.790073 -0.509316 0.341149
vn 0.304354 -0.829297 0.468653
vn 0.087926 -0.845243 0.527099
vn 0.929761 -0.302450 0.209927
vn 0.686828 0.123603 0.716233
vn 0.798297 -0.039193 0.600987
vn 0.936490 0.160271 -0.311930
vn 0.936490 0.160271 -0.311930
vn -0.017354 0.626622 0.779131
vn -0.017354 0.626622 0.779131
vn 0.311956 0.457102 0.832911
vn 0.436076 0.367976 0.821238
vn -0.291174 -0.772479 0.564352
vn -0.291174 -0.772479 0.564352
vn -0.596739 -0.606750 0.525126
vn -0.596739 -0.606750 0.525126
vn 0.243145 0.788941 -0.564317
vn 0.243145 0.788941 -0.564317
vn 0.635618 0.576075 -0.513934
vn 0.635618 0.576075 -0.513934
g polySurface9
usemtl teslaBlock_coilMatSG
f 1/4/1 2/3/2 16/5/3
f 16/5/3 2/3/2 13/2/4
f 33/6/5 14/7/6 36/1/7
f 36/1/7 14/7/6 13/2/4
f 14/7/6 15/9/8 13/2/4
f 13/2/4 15/9/8 16/5/3
f 3/10/9 15/9/8 4/8/10
f 4/8/10 15/9/8 14/7/6
f 9/12/11 16/5/3 10/11/12
f 10/11/12 16/5/3 15/9/8
f 19/14/13 20/15/14 18/16/15
f 18/16/15 20/15/14 17/13/16
f 4/8/10 17/13/16 3/10/9
f 3/10/9 17/13/16 20/15/14
f 6/17/17 5/18/18 18/16/15
f 18/16/15 5/18/18 19/14/13
f 5/18/18 6/17/17 24/20/19
f 24/20/19 6/17/17 21/19/20
f 22/21/21 21/19/20 29/23/22
f 29/23/22 21/19/20 32/22/23
f 22/21/21 23/25/24 21/19/20
f 21/19/20 23/25/24 24/20/19
f 7/26/25 23/25/24 8/24/26
f 8/24/26 23/25/24 22/21/21
f 11/28/27 24/20/19 12/27/28
f 12/27/28 24/20/19 23/25/24
f 27/30/29 28/31/30 26/32/31
f 26/32/31 28/31/30 25/29/32
f 8/24/26 25/46/32 7/26/25
f 7/26/25 25/46/32 28/45/30
f 2/3/2 1/4/1 26/32/31
f 26/32/31 1/4/1 27/30/29
f 29/23/22 32/22/23 30/44/33
f 30/44/33 32/22/23 31/43/34
f 31/35/34 34/36/35 30/33/33
f 30/33/33 34/36/35 35/34/36
f 33/6/5 36/1/7 34/36/35
f 34/36/35 36/1/7 35/34/36
f 9/12/11 10/11/12 37/37/37
f 37/37/37 10/11/12 38/39/38
f 38/39/38 39/42/39 37/37/37
f 37/37/37 39/42/39 40/41/40
f 11/28/27 12/27/28 39/40/39
f 39/40/39 12/27/28 40/38/40
f 41/50/41 56/51/42 42/48/43
f 42/48/43 56/51/42 53/49/44
f 73/52/45 76/47/46 54/53/47
f 54/53/47 76/47/46 53/49/44
f 54/53/47 53/49/44 55/55/48
f 55/55/48 53/49/44 56/51/42
f 43/56/49 44/54/50 55/55/48
f 55/55/48 44/54/50 54/53/47
f 49/58/51 50/57/52 56/51/42
f 56/51/42 50/57/52 55/55/48
f 59/60/53 58/61/54 60/62/55
f 60/62/55 58/61/54 57/59/56
f 44/54/50 43/56/49 57/59/56
f 57/59/56 43/56/49 60/62/55
f 46/63/57 58/61/54 45/64/58
f 45/64/58 58/61/54 59/60/53
f 45/64/58 64/65/59 46/63/57
f 46/63/57 64/65/59 61/66/60
f 62/67/61 69/68/62 61/66/60
f 61/66/60 69/68/62 72/69/63
f 62/67/61 61/66/60 63/71/64
f 63/71/64 61/66/60 64/65/59
f 47/72/65 48/70/66 63/71/64
f 63/71/64 48/70/66 62/67/61
f 51/74/67 52/73/68 64/65/59
f 64/65/59 52/73/68 63/71/64
f 67/76/69 66/77/70 68/79/71
f 68/79/71 66/77/70 65/78/72
f 48/70/66 47/72/65 65/75/72
f 65/75/72 47/72/65 68/80/71
f 42/48/43 66/77/70 41/50/41
f 41/50/41 66/77/70 67/76/69
f 69/68/62 70/81/73 72/69/63
f 72/69/63 70/81/73 71/84/74
f 71/86/74 70/83/73 74/85/75
f 74/85/75 70/83/73 75/82/76
f 73/52/45 74/85/75 76/47/46
f 76/47/46 74/85/75 75/82/76
f 49/58/51 77/87/77 50/57/52
f 50/57/52 77/87/77 78/89/78
f 78/89/78 77/87/77 79/91/79
f 79/91/79 77/87/77 80/88/80
f 51/74/67 79/90/79 52/73/68
f 52/73/68 79/90/79 80/92/80
f 81/93/81 82/94/82 96/95/83
f 96/95/83 82/94/82 93/96/84
f 113/97/85 94/98/86 116/99/87
f 116/99/87 94/98/86 93/96/84
f 94/98/86 95/100/88 93/96/84
f 93/96/84 95/100/88 96/95/83
f 83/101/89 95/100/88 84/102/90
f 84/102/90 95/100/88 94/98/86
f 89/103/91 96/95/83 90/104/92
f 90/104/92 96/95/83 95/100/88
f 99/105/93 100/106/94 98/107/95
f 98/107/95 100/106/94 97/108/96
f 84/102/90 97/108/96 83/101/89
f 83/101/89 97/108/96 100/106/94
f 86/109/97 85/110/98 98/107/95
f 98/107/95 85/110/98 99/105/93
f 85/110/98 86/109/97 104/111/99
f 104/111/99 86/109/97 101/112/100
f 102/113/101 101/112/100 109/114/102
f 109/114/102 101/112/100 112/115/103
f 102/113/101 103/116/104 101/112/100
f 101/112/100 103/116/104 104/111/99
f 87/117/105 103/116/104 88/118/106
f 88/118/106 103/116/104 102/113/101
f 91/119/107 104/111/99 92/120/108
f 92/120/108 104/111/99 103/116/104
f 107/121/109 108/122/110 106/123/111
f 106/123/111 108/122/110 105/124/112
f 88/118/106 105/125/112 87/117/105
f 87/117/105 105/125/112 108/126/110
f 82/94/82 81/93/81 106/123/111
f 106/123/111 81/93/81 107/121/109
f 109/114/102 112/115/103 110/127/113
f 110/127/113 112/115/103 111/128/114
f 111/129/114 114/130/115 110/131/113
f 110/131/113 114/130/115 115/132/116
f 113/97/85 116/99/87 114/130/115
f 114/130/115 116/99/87 115/132/116
f 89/103/91 90/104/92 117/133/117
f 117/133/117 90/104/92 118/134/118
f 118/134/118 119/135/119 117/133/117
f 117/133/117 119/135/119 120/136/120
f 91/119/107 92/120/108 119/137/119
f 119/137/119 92/120/108 120/138/120
f 121/139/121 136/140/122 122/141/123
f 122/141/123 136/140/122 133/142/124
f 153/143/125 156/144/126 134/145/127
f 134/145/127 156/144/126 133/142/124
f 134/145/127 133/142/124 135/146/128
f 135/146/128 133/142/124 136/140/122
f 123/147/129 124/148/130 135/146/128
f 135/146/128 124/148/130 134/145/127
f 129/149/131 130/150/132 136/140/122
f 136/140/122 130/150/132 135/146/128
f 139/151/133 138/152/134 140/153/135
f 140/153/135 138/152/134 137/154/136
f 124/148/130 123/147/129 137/154/136
f 137/154/136 123/147/129 140/153/135
f 126/155/137 138/152/134 125/156/138
f 125/156/138 138/152/134 139/151/133
f 125/156/138 144/157/139 126/155/137
f 126/155/137 144/157/139 141/158/140
f 142/159/141 149/160/142 141/158/140
f 141/158/140 149/160/142 152/161/143
f 142/159/141 141/158/140 143/162/144
f 143/162/144 141/158/140 144/157/139
f 127/163/145 128/164/146 143/162/144
f 143/162/144 128/164/146 142/159/141
f 131/165/147 132/166/148 144/157/139
f 144/157/139 132/166/148 143/162/144
f 147/167/149 146/168/150 148/169/151
f 148/169/151 146/168/150 145/170/152
f 128/164/146 127/163/145 145/171/152
f 145/171/152 127/163/145 148/172/151
f 122/141/123 146/168/150 121/139/121
f 121/139/121 146/168/150 147/167/149
f 149/160/142 150/173/153 152/161/143
f 152/161/143 150/173/153 151/174/154
f 151/175/154 150/176/153 154/177/155
f 154/177/155 150/176/153 155/178/156
f 153/143/125 154/177/155 156/144/126
f 156/144/126 154/177/155 155/178/156
f 129/149/131 157/179/157 130/150/132
f 130/150/132 157/179/157 158/180/158
f 158/180/158 157/179/157 159/181/159
f 159/181/159 157/179/157 160/182/160
f 131/165/147 159/183/159 132/166/148
f 132/166/148 159/183/159 160/184/160
