# Alias OBJ Model File
# Exported from SketchUp, (c) 2000-2006 Google, Inc.
# File units = meters

mtllib block.mtl

g Mesh1 Model

usemtl BlockMetal
v -1 0.353553 0.353553
vt 2.97925 19.0582
vn -2.46846e-017 0.707107 0.707107
v 1 0.5 5.66112e-016
vt 4.13599 19.2276
vn -5.00307e-032 1 3.90551e-016
v -1 0.5 6.03947e-017
vt 2.97925 19.2276
f 1/1/1 2/2/2 3/3/2

v 1 0.353553 0.353553
vt 4.13599 19.0582
f 2/2/2 1/1/1 4/4/1

v -1 -2.97796e-017 0.5
vt 2.97925 18.6492
vn 0 -3.00424e-017 1
f 5/5/3 4/4/1 1/1/1

v 1 -2.97796e-017 0.5
vt 4.13599 18.6493
f 4/4/1 5/5/3 6/6/3

v -1 -0.353553 0.353553
vt 2.97925 18.2403
vn -2.46846e-017 -0.707107 0.707107
f 7/7/4 6/6/3 5/5/3

v 1 -0.353553 0.353553
vt 4.13599 18.2403
f 6/6/3 7/7/4 8/8/4

v 1 -0.5 5.18173e-016
vt 4.13599 18.0709
vn -4.56111e-017 -0.92388 0.382683
f 7/7/4 9/9/5 8/8/4

v -1 -0.5 1.24553e-017
vt 2.97924 18.0709
f 9/9/5 7/7/4 10/10/5

v -1.19655 -0.202075 0.202075
vt 2.86556 18.4155
vn -0.896647 -0.313069 0.313069
vn -0.73684 -0.676067 -8.647e-017
vn -0.73684 -0.478052 0.478052
f 11/11/6 10/10/7 7/7/8

v -1.19655 -0.285777 0
vt 2.86556 18.3187
vn -0.896647 -0.442747 -4.41868e-017
f 10/10/7 11/11/6 12/12/9

v -1.25 9.02389e-017 4.62475e-015
vt 2.83465 18.6492
vn -1 -2.47787e-017 1.06195e-017
f 12/12/9 11/11/6 13/13/10

vn -1 -2.30088e-017 2.12389e-017
vn -0.896647 -0.313069 0.313069
v -1.19655 1.12799e-017 0.285777
vt 2.86556 18.6492
vn -0.896647 -1.10467e-017 0.442747
f 13/13/11 11/11/12 14/14/13

vn -0.896647 -1.47289e-017 0.442747
f 7/7/8 14/14/14 11/11/12

vn -0.73684 0 0.676067
f 14/14/14 7/7/8 5/5/15

vn -0.73684 0.478052 0.478052
vn -0.896647 -1.47289e-017 0.442747
f 1/1/16 14/14/17 5/5/15

v -1.19655 0.202075 0.202075
vt 2.86556 18.883
vn -0.896647 0.313069 0.313069
f 14/14/17 1/1/16 15/15/18

vn -0.73684 0.676067 8.647e-017
f 3/3/19 15/15/18 1/1/16

v -1.19655 0.285777 4.51195e-017
vt 2.86556 18.9798
vn -0.896647 0.442747 7.36446e-017
f 15/15/18 3/3/19 16/16/20

v -1 0.353553 -0.353553
vn -0.73684 0.478052 -0.478052
f 17/1/21 16/16/20 3/3/19

v -1.19655 0.202075 -0.202075
vn -0.896647 0.313069 -0.313069
f 16/16/20 17/1/21 18/15/22

v -1.19655 -4.51195e-017 -0.285777
vn -0.896647 -5.89157e-017 -0.442747
vn -0.896647 0.313069 -0.313069
f 17/1/21 19/14/23 18/15/24

v -1 -3.14507e-017 -0.5
vn -0.73684 -1.15293e-016 -0.676067
f 19/14/23 17/1/21 20/5/25

vn 2.46846e-017 0.707107 -0.707107
v 1 -3.14507e-017 -0.5
vn 0 -9.01273e-017 -1
f 17/1/26 21/6/27 20/5/27

v 1 0.353553 -0.353553
f 21/6/27 17/1/26 22/4/26

f 17/1/26 2/2/2 22/4/26

f 2/2/2 17/1/26 3/3/2

v 1.19655 0.285777 4.96314e-016
vt 4.24967 18.9798
vn 0.896647 0.442747 1.3256e-016
vn 0.73684 0.478052 -0.478052
vn 0.73684 0.676067 4.61173e-016
f 23/17/28 22/4/29 2/2/30

v 1.19655 0.202075 -0.202075
vt 4.24967 18.883
vn 0.896647 0.313069 -0.313069
f 22/4/29 23/17/28 24/18/31

v 1.25 -2.25597e-017 7.44471e-016
vt 4.28058 18.6493
vn 1 -1.20354e-016 -6.37167e-017
f 24/18/31 23/17/28 25/19/32

vn 0.896647 0.442747 1.36243e-016
v 1.19655 0.202075 0.202075
vn 0.896647 0.313069 0.313069
vn 1 -1.16814e-016 -6.54866e-017
f 23/17/33 26/18/34 25/19/35

f 2/2/30 26/18/34 23/17/28

vn 0.73684 0.478052 0.478052
f 26/18/34 2/2/30 4/4/36

v 1.19655 -4.51195e-017 0.285777
vt 4.24967 18.6493
vn 0.896647 -4.41868e-017 0.442747
f 4/4/36 27/20/37 26/18/34

vn 0.73684 -2.88233e-017 0.676067
f 27/20/37 4/4/36 6/6/38

vn 0.73684 -0.478052 0.478052
vn 0.896647 -2.94579e-017 0.442747
f 8/8/39 27/20/40 6/6/38

v 1.19655 -0.202075 0.202075
vt 4.24967 18.4155
vn 0.896647 -0.313069 0.313069
f 27/20/40 8/8/39 28/21/41

vn 0.73684 -0.676067 3.74703e-016
f 9/9/42 28/21/41 8/8/39

v 1.19655 -0.285777 4.06075e-016
vt 4.24967 18.3187
vn 0.896647 -0.442747 0
f 28/21/41 9/9/42 29/22/43

v 1 -0.353553 -0.353553
vn 0.73684 -0.478052 -0.478052
f 30/8/44 29/22/43 9/9/42

v 1.19655 -0.202075 -0.202075
vn 0.896647 -0.313069 -0.313069
f 29/22/43 30/8/44 31/21/45

v 1.19655 -1.12799e-017 -0.285777
vn 0.896647 -7.36446e-017 -0.442747
f 30/8/44 32/20/46 31/21/45

vn 0.73684 0 -0.676067
f 32/20/46 30/8/44 21/6/47

vn 2.65834e-017 -0.707107 -0.707107
f 30/8/48 20/5/27 21/6/27

v -1 -0.353553 -0.353553
f 20/5/27 30/8/48 33/7/48

vn 4.91197e-017 -0.92388 -0.382683
f 9/9/49 33/7/48 30/8/48

f 33/7/48 9/9/49 10/10/49

vn -0.73684 -0.478052 -0.478052
f 12/12/9 33/7/50 10/10/7

v -1.19655 -0.202075 -0.202075
vn -0.896647 -0.313069 -0.313069
f 33/7/50 12/12/9 34/11/51

vn -0.896647 -0.313069 -0.313069
vn -0.896647 -0.442747 -5.15513e-017
vn -1 -2.83185e-017 1.76991e-017
f 34/11/52 12/12/53 13/13/54

vn -0.896647 -5.89157e-017 -0.442747
vn -0.896647 -0.313069 -0.313069
vn -1 -3.18584e-017 2.12389e-017
f 19/14/55 34/11/56 13/13/57

f 19/14/23 33/7/50 34/11/52

f 33/7/50 19/14/23 20/5/25

vn -0.896647 -5.52335e-017 -0.442747
vn -1 -2.65486e-017 1.76991e-017
f 19/14/58 13/13/59 18/15/24

vn -1 -2.12389e-017 1.23894e-017
vn -0.896647 0.442747 6.99624e-017
f 18/15/24 13/13/60 16/16/61

vn -0.896647 0.442747 6.99624e-017
vn -1 -2.47787e-017 1.59292e-017
vn -0.896647 0.313069 0.313069
f 16/16/62 13/13/63 15/15/64

vn -1 -2.65486e-017 1.41593e-017
vn -0.896647 -1.10467e-017 0.442747
vn -0.896647 0.313069 0.313069
f 13/13/65 14/14/66 15/15/67

f 22/4/29 32/20/46 21/6/47

vn 0.896647 0.313069 -0.313069
f 32/20/46 22/4/29 24/18/68

vn 0.896647 -6.62802e-017 -0.442747
vn 1 -1.27433e-016 -6.72565e-017
f 32/20/69 24/18/31 25/19/70

f 32/20/69 25/19/70 31/21/45

vn 1 -1.23894e-016 -7.07963e-017
vn 0.896647 -0.442747 7.36446e-018
f 31/21/45 25/19/71 29/22/72

vn 0.896647 -0.442747 3.68223e-018
vn 1 -1.20354e-016 -6.19468e-017
vn 0.896647 -0.313069 0.313069
f 29/22/73 25/19/74 28/21/75

vn 1 -1.23894e-016 -6.72565e-017
vn 0.896647 -2.94579e-017 0.442747
f 25/19/76 27/20/77 28/21/41

vn 1 -1.20354e-016 -7.43362e-017
vn 0.896647 0.313069 0.313069
vn 0.896647 -3.68223e-017 0.442747
f 25/19/78 26/18/79 27/20/80

