# Alias OBJ Model File
# Exported from SketchUp, (c) 2000-2006 Google, Inc.
# File units = meters

mtllib bomb_block.mtl

g Mesh1 Model

usemtl WhiteMetal
v -0.79 -0.25 0.433013
vt 1.11013 15.9751
vn 1.725e-015 -0.5 0.866025
v -0.964766 0.25 0.433013
vt 0.999558 16.6078
vn 1.73661e-015 0.5 0.866025
v -0.964766 -0.25 0.433013
vt 0.999558 15.9751
f 1/1/1 2/2/2 3/3/1

v -0.79 0.25 0.433013
vt 1.11013 16.6078
f 2/2/2 1/1/1 4/4/2

usemtl GreyMetal
vt 0.129232 9.45924
vn -2.01153e-016 -0.5 0.866025
v 0.33 0.25 0.433013
vt -0.757795 9.9722
vn -2.21424e-016 0.5 0.866025
vt 0.128518 9.97428
f 1/5/3 5/6/4 4/7/4

v 0.33 -0.25 0.433013
vt -0.757081 9.45716
f 5/6/4 1/5/3 6/8/3

v 0.33 -0.5 6.76792e-017
vt -0.756724 9.19964
vn -1.37495e-017 -1 3.20494e-016
f 1/5/3 7/9/5 6/8/3

v -0.79 -0.5 -1.24407e-016
vt 0.129589 9.20172
f 7/9/5 1/5/3 8/10/5

usemtl WhiteMetal
vt 1.11013 15.6588
vn -1.16093e-017 -1 4.16642e-016
f 3/3/1 8/11/6 1/1/1

v -0.964766 -0.5 3.00706e-016
vt 0.999558 15.6588
f 8/11/6 3/3/1 9/12/6

usemtl RedMetal
v -1.15885 -0.179617 0.311105
vt -0.919734 12.8632
vn -0.787036 -0.308453 0.534257
vt -0.758623 12.3313
vn -0.587126 -0.809495 6.12745e-017
vt -0.758623 12.7464
vn -0.587126 -0.404748 0.701043
f 10/13/7 9/14/8 3/15/9

v -1.15885 -0.359234 -9.02389e-017
vt -0.919735 12.565
vn -0.787036 -0.616907 9.18241e-017
f 9/14/8 10/13/7 11/16/10

v -1.23304 -0.0934391 0.161841
vt -0.981325 13.0063
vn -0.969752 -0.122047 0.211392
vn -0.787036 -0.616907 9.94762e-017
f 12/17/11 11/16/12 10/13/7

v -1.23304 -0.186878 -1.80478e-016
vt -0.981325 12.8512
vn -0.969752 -0.244094 7.83257e-017
f 11/16/12 12/17/11 13/18/13

vn -0.969752 -0.244094 7.65456e-017
vn -0.969752 -0.122047 0.211392
v -1.25 -9.02389e-017 -1.35358e-016
vt -0.995404 13.1614
vn -1 2.09307e-017 5.81408e-018
f 13/18/14 12/17/15 14/19/16

vn -1 1.58451e-017 4.65126e-018
vn -0.969752 -0.122047 0.211392
v -1.23304 0.0934391 0.161841
vt -0.981325 13.3166
vn -0.969752 0.122047 0.211392
f 14/19/17 12/17/18 15/20/19

v -1.15885 0.179617 0.311105
vt -0.919734 13.4597
vn -0.787036 0.308453 0.534257
f 12/17/11 16/21/20 15/20/19

f 16/21/20 12/17/11 10/13/7

vn -0.787036 -0.308453 0.534257
vt -0.758622 13.5765
vn -0.587126 0.404748 0.701043
f 10/13/21 2/22/22 16/21/20

f 2/22/22 10/13/21 3/15/9

v -1.15885 0.359234 -1.69198e-016
vt -0.919734 13.7579
vn -0.787036 0.616907 -9.18241e-017
f 2/22/22 17/23/23 16/21/20

v -0.964766 0.5 1.20228e-016
vt -0.758622 13.9916
vn -0.587126 0.809495 -1.22549e-016
f 17/23/23 2/22/22 18/24/24

usemtl WhiteMetal
vt 0.999558 16.9242
vn 1.40033e-016 1 0
f 4/4/2 18/25/25 2/2/2

v -0.79 0.5 -3.49676e-016
vt 1.11013 16.9242
f 18/25/25 4/4/2 19/26/25

usemtl GreyMetal
vt 0.128161 10.2318
vn 3.39801e-017 1 -2.24346e-016
f 5/6/4 19/27/26 4/7/4

v 0.33 0.5 0
vt -0.758152 10.2297
f 19/27/26 5/6/4 20/28/26

usemtl WhiteMetal
vt 1.81877 16.9242
vn 0.715961 0.687545 0.12117
vt 1.81877 16.6078
vn 0.72287 0.343745 0.599415
v 0.62 0.0931992 0.173205
vt 2.00225 16.4094
vn 0.722132 0.454534 0.521464
f 20/29/27 5/30/28 21/31/29

v 0.62 -0.120283 0.173205
vt 2.00225 16.1393
vn 0.706411 -0.366583 0.605475
vn 0.722132 0.454534 0.521464
f 5/30/28 22/32/30 21/31/31

vt 1.81877 15.9751
vn 0.697103 -0.477223 0.535075
f 22/32/30 5/30/28 6/33/32

vn 0.697103 -0.477223 0.535075
v 0.62 -0.227023 -0.0207846
vt 2.00225 16.0042
vn 0.679165 -0.721718 0.133633
f 22/32/30 6/33/33 23/34/34

vt 1.81877 15.6588
vn 0.670765 -0.728094 -0.141257
f 23/34/34 6/33/33 7/35/35

v 0.62 -0.120283 -0.214774
vn 0.658218 -0.495311 -0.566936
f 23/34/34 7/35/35 24/32/36

v 0.33 -0.25 -0.433013
vn 0.658657 -0.375216 -0.652215
f 24/32/36 7/35/35 25/33/37

usemtl GreyMetal
vn 1.64145e-016 -0.5 -0.866025
f 8/10/5 25/8/38 7/9/5

v -0.79 -0.25 -0.433013
f 25/8/38 8/10/5 26/5/38

usemtl WhiteMetal
vn -1.73661e-015 -0.5 -0.866025
f 9/12/6 26/1/39 8/11/6

v -0.964766 -0.25 -0.433013
f 26/1/39 9/12/6 27/3/39

usemtl RedMetal
vn -0.787036 -0.616907 1.07128e-016
vn -0.587126 -0.404748 -0.701043
f 11/16/40 27/15/41 9/14/8

v -1.15885 -0.179617 -0.311105
vn -0.787036 -0.308453 -0.534257
f 27/15/41 11/16/40 28/13/42

vn -0.969752 -0.244094 7.12052e-017
vn -0.787036 -0.308453 -0.534257
f 13/18/43 28/13/44 11/16/12

v -1.23304 -0.0934391 -0.161841
vn -0.969752 -0.122047 -0.211392
f 28/13/44 13/18/43 29/17/45

vn -0.969752 -0.122047 -0.211392
vn -0.969752 -0.244094 7.29853e-017
vn -1 1.8605e-017 8.13971e-018
f 29/17/46 13/18/47 14/19/48

vn -1 1.62794e-017 6.97689e-018
v -1.23304 0.0934391 -0.161841
vn -0.969752 0.122047 -0.211392
f 29/17/46 14/19/49 30/20/50

vn -1 1.62794e-017 8.13971e-018
v -1.23304 0.186878 -1.35358e-016
vt -0.981325 13.4717
vn -0.969752 0.244094 -2.6702e-017
f 30/20/50 14/19/51 31/36/52

vn -0.969752 0.244094 -3.02622e-017
f 14/19/16 15/20/19 31/36/53

vn -0.969752 0.244094 -2.84821e-017
f 15/20/19 17/23/23 31/36/54

f 17/23/23 15/20/19 16/21/20

vn -0.969752 0.244094 -2.84821e-017
f 17/23/23 30/20/50 31/36/55

v -1.15885 0.179617 -0.311105
vn -0.787036 0.308453 -0.534257
f 30/20/50 17/23/23 32/21/56

f 18/24/24 32/21/56 17/23/23

v -0.964766 0.25 -0.433013
vn -0.587126 0.404748 -0.701043
f 32/21/56 18/24/24 33/22/57

usemtl WhiteMetal
vn -1.59657e-015 0.5 -0.866025
f 19/26/25 33/2/58 18/25/25

v -0.79 0.25 -0.433013
f 33/2/58 19/26/25 34/4/58

usemtl GreyMetal
vn 2.32146e-016 0.5 -0.866025
f 20/28/26 34/7/59 19/27/26

v 0.33 0.25 -0.433013
f 34/7/59 20/28/26 35/6/59

usemtl WhiteMetal
v 0.62 0.19994 -0.0207846
vt 2.00225 16.5445
vn 0.702245 0.697806 -0.141134
vn 0.680634 0.477163 -0.555925
f 36/37/60 35/30/61 20/29/27

v 0.62 0.0931992 -0.214774
vn 0.677814 0.366475 -0.637388
f 37/31/62 35/30/61 36/37/60

f 24/32/36 35/30/61 37/31/62

f 35/30/61 24/32/36 25/33/37

usemtl GreyMetal
f 26/5/38 35/6/59 25/8/38

f 35/6/59 26/5/38 34/7/59

usemtl WhiteMetal
f 26/1/39 33/2/58 34/4/58

f 33/2/58 26/1/39 27/3/39

usemtl RedMetal
f 28/13/42 33/22/57 27/15/41

vn -0.787036 0.308453 -0.534257
f 33/22/57 28/13/42 32/21/63

f 29/17/45 32/21/56 28/13/44

f 32/21/56 29/17/45 30/20/50

usemtl GreyMetal
vt -0.987063 9.81014
vn 0.1449 0.658327 -0.738653
v 0.9 -0.104186 -0.181651
vt -1.20836 9.6063
vn 0.125533 -0.660668 -0.740107
vt -0.986758 9.59024
vn 0.129973 -0.504871 -0.853354
f 37/38/64 38/39/65 24/40/66

v 0.9 0.0687347 -0.181651
vt -1.20861 9.78442
vn 0.144748 0.503045 -0.852053
f 38/39/65 37/38/64 39/41/67

v 0.9 0.155195 -0.0245197
vt -1.20873 9.87348
vn 0.152938 0.971947 -0.178688
f 39/41/67 37/38/64 40/42/68

vt -0.987215 9.92009
vn 0.157601 0.971375 0.177743
f 40/42/68 37/38/64 36/43/69

v 0.9 0.0687347 0.132612
vn 0.164094 0.656644 0.736133
f 40/42/68 36/43/69 41/41/70

vn 0.166889 0.501692 0.848795
f 41/41/70 36/43/69 21/38/71

usemtl WhiteMetal
vn 0.702245 0.697806 -0.141134
f 36/37/72 20/29/27 21/31/29

usemtl GreyMetal
v 0.9 -0.104186 0.132612
vn 0.152237 -0.503759 0.850324
vn 0.164094 0.656644 0.736133
f 21/38/71 42/39/73 41/41/74

vn 0.144865 -0.659286 0.737805
f 42/39/73 21/38/71 22/40/75

v 0.9 -0.190646 -0.0245197
vt -1.20824 9.51724
vn 0.129109 -0.975421 0.17856
f 42/39/73 22/40/75 43/44/76

vt -0.986606 9.48028
vn 0.124396 -0.975891 -0.179336
f 43/44/76 22/40/75 23/45/77

vn 0.125533 -0.660668 -0.740107
f 43/44/76 23/45/77 38/39/78

f 38/39/78 23/45/77 24/40/66

usemtl WhiteMetal
v 0.9 -0.190142 -0.327058
vt -1.14682 -2.86097
vn -1 -4.68957e-016 5.88999e-017
vt -1.02048 -2.86139
vt -1.0861 -2.78918
f 44/46/79 43/47/79 38/48/79

v 0.9 -0.356611 -0.0245197
vt -1.02048 -3
f 45/49/79 43/47/79 44/46/79

vt -0.954861 -2.78918
f 45/49/79 42/50/79 43/47/79

v 0.9 -0.190142 0.278019
vt -0.89414 -2.86097
f 46/51/79 42/50/79 45/49/79

v 0.9 0.154691 0.278019
vt -0.89414 -2.57297
f 42/50/79 46/51/79 47/52/79

vt 1.88204 16.0509
vn -9.9487e-017 -0.508881 0.860837
v 1.25 0.154691 0.278019
vt 2.10349 16.4872
vn 2.51422e-017 0.508881 0.860837
vt 1.88204 16.4872
f 46/53/80 48/54/81 47/55/81

v 1.25 -0.190142 0.278019
vt 2.10349 16.0509
f 48/54/81 46/53/80 49/56/80

v 1.25 -0.356611 -0.0245197
vt 2.10349 15.8402
vn -1.78823e-016 -1 9.50395e-017
f 46/53/80 50/57/82 49/56/80

vt 1.88204 15.8402
f 50/57/82 46/53/80 45/58/82

v 1.25 -0.190142 -0.327058
vn -1.42059e-016 -0.876127 -0.48208
f 45/58/82 51/56/83 50/57/82

f 51/56/83 45/58/82 44/53/83

vn 2.08839e-016 -1.58976e-015 -1
v 1.25 0.154691 -0.327058
vn 1.92262e-016 0.508881 -0.860837
f 44/53/84 52/54/85 51/56/84

v 0.9 0.154691 -0.327058
f 52/54/85 44/53/84 53/55/85

vt -1.0861 -2.64476
vt -1.14682 -2.57297
f 39/59/79 53/60/79 44/46/79

v 0.9 0.32116 -0.0245197
vt -1.02048 -2.43393
f 39/59/79 54/61/79 53/60/79

vt -1.02048 -2.57255
f 40/62/79 54/61/79 39/59/79

v 0.9 0.308144 -0.000864165
vt -1.0106 -2.44481
f 40/62/79 55/63/79 54/61/79

vt -0.954861 -2.64476
f 41/64/79 55/63/79 40/62/79

f 41/64/79 47/52/79 55/63/79

f 47/52/79 41/64/79 42/50/79

vt 1.88204 16.6979
vn 4.32867e-017 0.876127 0.48208
vt 1.88204 16.6814
f 47/55/81 54/65/86 55/66/86

f 54/65/86 47/55/81 48/54/81

v 1.25 0.32116 -0.0245197
vt 2.10349 16.6979
f 54/65/86 48/54/81 56/67/86

v 1.25 0.308144 -0.000864165
vt 2.10349 16.6814
f 56/67/86 48/54/81 57/68/86

vt -1.12634 -2.57297
vn 1 0 0
vt -1 -3
vt -1.00988 -2.44481
f 48/69/87 50/70/87 57/71/87

vt -1.12634 -2.86097
f 50/70/87 48/69/87 49/72/87

vt -1 -2.43393
f 57/71/87 50/70/87 56/73/87

vt -0.873662 -2.86097
f 56/73/87 50/70/87 51/74/87

vt -0.873662 -2.57297
f 56/73/87 51/74/87 52/75/87

vn 1.22173e-016 0.876127 -0.48208
f 53/55/85 56/67/88 52/54/85

f 56/67/88 53/55/85 54/65/88

f 44/46/79 38/48/79 39/59/79

