# Alias OBJ Model File
# Exported from SketchUp, (c) 2000-2006 Google, Inc.
# File units = meters

mtllib cannon_block_base.mtl

g Mesh1 Model

usemtl cannon_base_metal
v 1.25 0.5 -0.19641
vt -9.36495 -5.85721
vn 0 1 0
v 0.9 0.5 -0.65
vt -9.87517 -6.64459
v 0.9 0.5 -0.19641
vt -9.36495 -6.64459
f 1/1/1 2/2/1 3/3/1

v 1.25 0.5 -0.65
vt -9.87517 -5.85721
f 2/2/1 1/1/1 4/4/1

vt -9.87517 -4.83678
vn 1 0 2.77658e-016
v 1.25 -0.5 -0.65
vt -11 -5.85721
vt -9.87517 -5.85721
f 1/5/2 5/6/2 4/7/2

v 1.25 -0.5 -0.19641
vt -11 -4.83678
f 5/6/2 1/5/2 6/8/2

v 1.075 -0.25 -0.19641
vt -10.7188 -4.44309
vn 0 0 1
vt -11 -4.83678
f 7/9/3 6/10/3 1/5/3

v 0.9 -0.5 -0.19641
vt -11 -4.0494
f 6/10/3 7/9/3 8/11/3

v 0.9 -0.25 -0.19641
vt -10.7188 -4.0494
f 9/12/3 8/11/3 7/9/3

v 0.9 -0.25 -0.65
vt -10.7188 -3.02897
vn -1 -1.41924e-015 -7.9439e-016
vt -11 -4.0494
vt -10.7188 -4.0494
f 10/13/4 8/14/4 9/15/4

v 0.9 -0.5 -0.65
vt -11 -3.02897
f 8/14/4 10/13/4 11/16/4

vt -10.7188 -6.64459
vn 0 0 -1
vt -11 -5.85721
vt -11 -6.64459
f 10/17/5 5/18/5 11/19/5

vt -9.87517 -5.85721
f 5/18/5 10/17/5 4/20/5

v 0.9 0.25 -0.65
vt -10.1564 -6.64459
f 4/20/5 10/17/5 12/21/5

usemtl cannon_base_wood
vt -10.0588 -3.88578e-016
v -0.9 0.25 -0.65
vt -7.94118 -1
vt -10.0588 -1
f 10/22/5 13/23/5 12/24/5

v -0.9 -0.25 -0.65
vt -7.94118 -3.88578e-016
f 13/23/5 10/22/5 14/25/5

v -0.85 -0.25 -0.4
vt -8 -0.441176
vn 6.69387e-018 -1 -2.56873e-017
vt -7.94118 0
vt -10.0588 0
f 15/26/6 14/27/6 10/28/6

v -0.9 -0.25 -0.19641
vt -7.94118 -0.800453
f 14/27/6 15/26/6 16/29/6

v -0.85 -0.25 -0.0964102
vt -8 -0.976923
f 17/30/6 16/29/6 15/26/6

v -1.075 -0.25 -0.0964102
vt -7.73529 -0.976923
f 18/31/6 16/29/6 17/30/6

v -1.075 -0.25 -0.19641
vt -7.73529 -0.800453
f 16/29/6 18/31/6 19/32/6

vt -9.11342 -3.88578e-016
vn -1 0 0
v -1.075 0.25 -0.19641
vt -9.23107 -1
vt -9.23107 -3.88578e-016
f 18/33/7 20/34/7 19/35/7

v -1.075 0.25 -0.0964102
vt -9.11342 -1
f 20/34/7 18/33/7 21/36/7

vt -10.2647 -3.88578e-016
v -0.85 0.25 -0.0964102
vt -10 -1
vt -10.2647 -1
f 18/37/3 22/38/3 21/39/3

vt -10 -2.77556e-016
f 22/38/3 18/37/3 17/40/3

vt -10.0588 -4.996e-016
vn 1 -2.40637e-016 -3.18679e-016
vt -9.65404 -1
vt -9.65404 -3.33067e-016
f 15/41/8 22/42/8 17/43/8

v -0.85 0.25 -0.4
vt -10.0588 -1
f 22/42/8 15/41/8 23/44/8

vt -10 -3.88578e-016
v -0.2 0.25 -0.4
vt -9.23529 -1
f 15/45/3 24/46/3 23/38/3

v -0.2 -0.25 -0.4
vt -9.23529 -3.88578e-016
f 24/46/3 15/45/3 25/47/3

vt -8.76471 -0.441176
f 15/26/6 10/28/6 25/48/6

v 0.2 -0.25 -0.4
vt -9.23529 -0.441176
f 25/48/6 10/28/6 26/49/6

v 0.85 -0.25 -0.4
vt -10 -0.441176
f 26/49/6 10/28/6 27/50/6

v 0.85 -0.25 -0.0964102
vt -10 -0.976923
f 27/50/6 10/28/6 28/51/6

vt -10.0588 -0.800453
f 28/51/6 10/28/6 9/52/6

v 1.075 -0.25 -0.0964102
vt -10.2647 -0.976923
f 28/51/6 9/52/6 29/53/6

vt -10.2647 -0.800453
f 29/53/6 9/52/6 7/54/6

vt -8.76893 -3.88578e-016
vn 1 0 0
v 1.075 0.25 -0.0964102
vt -8.88658 -1
vt -8.88658 -3.88578e-016
f 7/55/9 30/56/9 29/57/9

v 1.075 0.25 -0.19641
vt -8.76893 -1
f 30/56/9 7/55/9 31/58/9

usemtl cannon_base_metal
vt -10.1564 -4.44309
f 7/9/3 1/5/3 31/59/3

v 0.9 0.25 -0.19641
vt -10.1564 -4.0494
f 31/59/3 1/5/3 32/60/3

vt -9.87517 -4.0494
f 32/60/3 1/5/3 3/61/3

vt -9.87517 -3.02897
vn -1 8.4202e-016 -6.77333e-018
vt -10.1564 -4.0494
vt -9.87517 -4.0494
f 2/62/10 32/63/10 3/64/10

vt -10.1564 -3.02897
f 32/63/10 2/62/10 12/65/10

vt -9.87517 -6.64459
f 4/20/5 12/21/5 2/66/5

usemtl cannon_base_wood
vt -10.0588 -1
vn 1.43956e-063 1 1.36652e-047
v 0.85 0.25 -0.0964102
vt -10 -0.0230768
vt -10.0588 -0.199547
f 12/67/11 33/68/11 32/69/11

v 0.85 0.25 -0.4
vt -10 -0.558824
f 12/67/11 34/70/11 33/68/11

v 0.2 0.25 -0.4
vt -9.23529 -0.558824
f 12/67/11 35/71/11 34/70/11

vt -8.76471 -0.558824
f 12/67/11 24/72/11 35/71/11

vt -8 -0.558824
f 12/67/11 23/73/11 24/72/11

vt -7.94118 -1
f 13/74/11 23/73/11 12/67/11

v -0.9 0.25 -0.19641
vt -7.94118 -0.199547
f 23/73/11 13/74/11 36/75/11

usemtl cannon_base_metal
vt -10.1564 -1.02043
vn 1 -1.32398e-016 -3.90421e-016
v -0.9 0.5 -0.19641
vt -9.87517 -1.68838e-015
vt -10.1564 -1.34379e-015
f 13/76/12 37/77/12 36/78/12

v -0.9 0.5 -0.65
vt -9.87517 -1.02043
f 37/77/12 13/76/12 38/79/12

vt -10.1564 2.59519
v -1.25 0.5 -0.65
vt -9.87517 1.80781
vt -9.87517 2.59519
f 13/80/5 39/81/5 38/82/5

vt -10.7188 2.59519
f 14/83/5 39/81/5 13/80/5

v -0.9 -0.5 -0.65
vt -11 2.59519
f 40/84/5 39/81/5 14/83/5

v -1.25 -0.5 -0.65
vt -11 1.80781
f 39/81/5 40/84/5 41/85/5

vt -11.5102 1.10128e-007
vn 0 -1 0
v -1.25 -0.5 -0.19641
vt -11 0.787383
vt -11.5102 0.787383
f 40/86/13 42/87/13 41/88/13

v -0.9 -0.5 -0.19641
vt -11 1.07844e-015
f 42/87/13 40/86/13 43/89/13

vt -11 -1.02043
vt -10.7188 1.78057e-016
vt -11 5.22648e-016
f 40/90/9 16/91/9 43/92/9

vt -10.7188 -1.02043
f 16/91/9 40/90/9 14/93/9

vt -10.7188 -2.1574e-016
vt -11 0.787383
vt -11 1.26094e-017
f 16/94/3 42/95/3 43/96/3

vt -10.7188 0.393692
f 42/95/3 16/94/3 19/97/3

v -1.25 0.5 -0.19641
vt -9.87517 0.787383
f 42/95/3 19/97/3 44/98/3

vt -10.1564 0.393692
f 44/98/3 19/97/3 20/99/3

vt -9.87517 -1.34488e-015
f 44/98/3 20/99/3 37/100/3

vt -10.1564 -1.11653e-015
f 37/100/3 20/99/3 36/101/3

usemtl cannon_base_wood
vt -7.73529 -0.199547
vt -8 -0.0230768
f 20/102/11 22/103/11 36/75/11

vt -7.73529 -0.0230768
f 22/103/11 20/102/11 21/104/11

f 36/75/11 22/103/11 23/73/11

usemtl cannon_base_metal
vt -9.87517 -6.60905e-015
vt -9.36495 0.787383
vt -9.87517 0.787383
f 37/105/1 39/106/1 44/107/1

vt -9.36495 -2.34004e-007
f 39/106/1 37/105/1 38/108/1

vt -9.87517 1.80781
vn -1 1.80478e-016 -1.38829e-016
vt -11 0.787383
vt -9.87517 0.787383
f 39/109/14 42/110/14 44/111/14

vt -11 1.80781
f 42/110/14 39/109/14 41/112/14

usemtl cannon_base_wood
v 0.2 0.25 -0.21
vt -9.23529 -0.223529
f 35/71/11 24/72/11 45/113/11

v -0.2 0.25 -0.21
vt -8.76471 -0.223529
f 45/113/11 24/72/11 46/114/11

vt -1.25333 1
v -0.2 -0.25 -0.21
vt -1 1.66533e-016
vt -1 1
f 24/115/7 47/116/7 46/117/7

vt -1.25333 2.77556e-016
f 47/116/7 24/115/7 25/118/7

vt -8.76471 -0.776471
f 25/48/6 26/49/6 47/119/6

v 0.2 -0.25 -0.21
vt -9.23529 -0.776471
f 48/120/6 47/119/6 26/49/6

vt 2.21324e-007 1
vt -1 0
vt 0 0
f 45/121/3 47/122/3 48/123/3

vt -1 1
f 47/122/3 45/121/3 46/124/3

vt 0.253333 -1.26154e-007
vt 2.21324e-007 1
vt 0 -5.55112e-017
f 26/125/9 45/126/9 48/127/9

vt 0.253333 0.999999
f 45/126/9 26/125/9 35/128/9

vt -8.76471 -3.88578e-016
vt -8 -1
vt -8.76471 -1
f 26/129/3 34/130/3 35/131/3

vt -8 -3.88578e-016
f 34/130/3 26/129/3 27/132/3

vt -8.34596 -2.498e-015
vn -1 1.80478e-016 4.43239e-016
vt -7.94118 -1
vt -7.94118 -2.498e-015
f 28/133/15 34/134/15 27/135/15

vt -8.34596 -1
f 34/134/15 28/133/15 33/136/15

vt -7.73529 -1
f 28/132/3 30/137/3 33/130/3

vt -7.73529 -3.88578e-016
f 30/137/3 28/132/3 29/138/3

vt -10.2647 -0.0230768
f 32/69/11 33/68/11 30/139/11

vt -10.2647 -0.199547
f 32/69/11 30/139/11 31/140/11

usemtl cannon_base_metal
vt -11.5102 -5.85721
vt -11 -6.64459
vt -11 -5.85721
f 6/141/13 11/142/13 5/143/13

vt -11.5102 -6.64459
f 11/142/13 6/141/13 8/144/13

g Mesh2 Model

usemtl cannon_base_wood
v 0.0306744 0.14683 0.5
vt -8.86645 -0.436289
vn 0.282212 0.255894 0.924594
v 0 0 0.55
vt -8.89224 -0.123115
v 0.149123 0.0161999 0.5
vt -9.07577 -0.27734
f 49/145/16 50/146/16 51/147/16

vt -8.86645 -0.436289
vn -0.156162 0.347476 0.924594
v -0.130165 0.0745461 0.5
vt -9.05303 -0.282114
vt -8.89224 -0.123115
f 49/148/17 52/149/17 50/150/17

vt -9.05303 -0.282114
vn -0.378726 -0.0411428 0.924594
v -0.111121 -0.100758 0.5
vt -8.85491 -0.406518
vt -8.89224 -0.123115
f 52/151/18 53/152/18 50/153/18

vt -9.21784 -0.696099
vn -0.0779035 -0.372903 0.924594
vt -9.01261 -0.712817
v 0.0614885 -0.136818 0.5
vt -9.12992 -0.417423
f 50/154/19 53/155/19 54/156/19

vt -9.03284 -0.729096
vn 0.330578 -0.189324 0.924594
vt -9.21784 -0.696099
vt -9.12992 -0.417423
f 51/157/20 50/158/20 54/159/20

