# Alias OBJ Model File
# Exported from SketchUp, (c) 2000-2006 Google, Inc.
# File units = meters

mtllib deco_block.mtl

g Mesh1 Model

usemtl DecoBlockMaterial
v 1.25 0.5 -0.65
vt 6.01119 -2.60848
vn 0 -2.04079e-007 -1
v 1.25 -0.5 -0.65
vt 6.01119 -2.99019
v -1.25 -0.5 -0.65
vt 6.98858 -2.99019
f 1/1/1 2/2/1 3/3/1

v 1.25 0.5 0.687454
vt -1.97368 6.36839
vn 1 0 0
vt -1.56826 6.01677
vt -1.56826 6.36839
f 4/4/2 2/5/2 1/6/2

v 1.25 -0.5 0.687454
vt -1.97368 6.01677
f 2/5/2 4/4/2 5/7/2

v -1.25 0.5 0.687454
vt 5.41172 -3.00059
vn 0 0 1
vt 4.99745 -3.59242
vt 5.40918 -3.59301
f 6/8/3 5/9/3 4/10/3

v -1.25 -0.5 0.687454
vt 5 -3
f 6/8/3 7/11/3 5/9/3

vt -1.95687 6.02014
vn -1 0 0
vt -1.55146 6.02014
vt -1.55146 6.37177
f 3/12/4 7/13/4 6/14/4

v 1.25 -0.5 0.707454
vt 5.01159 -2.99593
vn 1.59088e-008 -1 1.11228e-007
vt 5.98688 -2.99227
vt 5.988 -2.61051
f 8/15/5 7/16/5 3/17/5

v -1.25 -0.5 0.707454
vt 5.98687 -2.99798
f 7/16/5 8/15/5 9/18/5

v -0.75 -0.5 0.821199
vt 4.86572 -3.47375
vn 1.29312e-008 -1 8.38429e-008
vt 4.91204 -3.5923
vt 4.91459 -2.99988
f 10/19/6 9/20/6 8/21/6

v -1.25 -0.5 0.821199
vt 4.86521 -3.59223
f 9/20/6 10/19/6 11/22/6

v -1.2008 -0.334383 0.821199
vt 5.06814 -3.01176
vn -7.21911e-016 2.14458e-016 1
vt 5 -3
vt 4.99949 -3.11848
f 12/23/7 11/24/7 10/25/7

v -1.2008 -0.334383 0.707454
vt 7.92159 -3.57135
vn -0.958596 0.28477 -1.77887e-015
vt 7.9571 -3.58254
vt 7.9571 -3.57135
f 13/26/8 11/27/8 12/28/8

vt 7.92159 -3.58254
f 11/27/8 13/26/8 9/29/8

vn -0.911555 0.411178 -2.01623e-015
v -1.12976 -0.176892 0.821199
vt 7.9571 -3.5552
f 13/26/9 12/28/9 14/30/9

vt 5.13291 -3.02868
vn 1.02096e-007 2.77901e-007 1
vt 5.06814 -3.01176
vt 4.99949 -3.11848
f 14/31/10 12/32/10 10/33/10

vt -10.3601 0.865668
vn -0.648012 -0.76163 1.87626e-007
v -1.12976 -0.176892 0.871199
vt -10.5059 0.875852
vt -10.5059 0.865668
f 10/34/11 15/35/11 14/36/11

v -0.75 -0.5 0.871199
vt -10.3601 0.875852
f 15/35/11 10/34/11 16/37/11

v 0.75 -0.5 0.821199
vt -10.1213 0.851165
vn 0 -1 2.27288e-007
vt -10.1315 0.545625
vt -10.1213 0.545625
f 17/38/12 16/39/12 10/40/12

v 0.75 -0.5 0.871199
vt -10.1315 0.851165
f 16/39/12 17/38/12 18/41/12

vt -10.3601 0.531122
vn 0.648012 -0.76163 1.87626e-007
v 1.12976 -0.176892 0.871199
vt -10.5059 0.520937
vt -10.3601 0.520937
f 17/42/13 19/43/13 18/44/13

v 1.12976 -0.176892 0.821199
vt -10.5059 0.531122
f 19/43/13 17/42/13 20/45/13

vt 5.13061 -3.56412
vn -1.02096e-007 2.77901e-007 1
vt 4.99796 -3.47394
v 1.2008 -0.334383 0.821199
vt 5.06569 -3.58086
f 20/46/14 17/47/14 21/48/14

vt 5.06569 -3.58086
vn 7.21911e-016 2.14459e-016 1
vt 4.99796 -3.47394
v 1.25 -0.5 0.821199
vt 4.99745 -3.59242
f 21/49/15 17/50/15 22/51/15

vt 4.86725 -3.1183
vt 4.86776 -2.99981
f 17/52/6 8/21/6 22/53/6

f 10/19/6 8/21/6 17/52/6

vt 7.92159 -3.01406
vn 0.958596 0.28477 1.48592e-015
vt 7.9571 -3.02525
vt 7.9571 -3.01406
f 8/54/16 21/55/16 22/56/16

v 1.2008 -0.334383 0.707454
vt 7.92159 -3.02525
vn 0.958596 0.284771 -9.55039e-008
f 23/57/17 21/55/17 8/54/17

vn 0.911555 0.411178 -1.37897e-007
vt 7.9571 -3.0414
f 23/57/18 20/58/18 21/55/18

v 1.12976 -0.176892 0.707454
vt 7.92159 -3.0414
vn 0.911555 0.411178 -1.37897e-007
f 24/59/19 20/58/19 23/57/19

vn 0.847956 0.530067 -1.77769e-007
v 1.03818 -0.03039 0.821199
vt 7.9571 -3.06223
f 24/59/20 25/60/20 20/58/20

v 1.03818 -0.03039 0.707454
vt 7.92159 -3.06223
vn 0.847956 0.530066 4.90987e-007
f 26/61/21 25/60/21 24/59/21

v 0.927718 0.102458 0.707454
vt 7.92159 -3.08735
vn 0.768917 0.639349 4.21937e-007
f 27/62/22 25/60/22 26/61/22

vn 0.768917 0.639348 -1.60814e-007
v 0.927718 0.102458 0.821199
vt 7.9571 -3.08735
f 27/62/23 28/63/23 25/60/23

vn 0.675922 0.736973 -1.8537e-007
v 0.864054 0.160848 0.707454
vt 7.92159 -3.10182
f 27/62/24 29/64/24 28/63/24

vn 0.675925 0.736971 -2.59665e-006
v 0.800391 0.219238 0.821199
vt 7.9571 -3.1163
f 28/63/25 29/64/25 30/65/25

vn 0.675927 0.736968 -1.23579e-007
v 0.800391 0.219238 0.707454
vt 7.92159 -3.1163
f 29/64/26 31/66/26 30/65/26

vn 0.570626 0.82121 -1.37705e-007
v 0.658509 0.317826 0.821199
vt 7.9571 -3.14856
f 31/66/27 32/67/27 30/65/27

vn 0.570626 0.82121 -1.37705e-007
v 0.658509 0.317826 0.707454
vt 7.92159 -3.14856
f 31/66/28 33/68/28 32/67/28

vn 0.454948 0.890518 -1.49327e-007
v 0.504653 0.396428 0.821199
vt 7.9571 -3.18355
f 33/68/29 34/69/29 32/67/29

vn 0.454948 0.890518 -2.98654e-007
v 0.504653 0.396428 0.707454
vt 7.92159 -3.18355
f 33/68/30 35/70/30 34/69/30

vn 0.331011 0.943627 -3.16466e-007
v 0.341622 0.453617 0.821199
vt 7.9571 -3.22062
f 34/69/31 35/70/31 36/71/31

vn 0.331011 0.943627 -6.32931e-007
v 0.341622 0.453617 0.707454
vt 7.92159 -3.22062
f 35/70/32 37/72/32 36/71/32

vn 0.20104 0.979583 -6.57048e-007
v 0.172378 0.488351 0.821199
vt 7.9571 -3.2591
f 37/72/33 38/73/33 36/71/33

vn 0.20104 0.979583 -6.57048e-007
v 0.172378 0.488351 0.707454
vt 7.92159 -3.2591
f 37/72/34 39/74/34 38/73/34

vn 0.0674248 0.997724 -6.69217e-007
v -6.53067e-008 0.5 0.707454
vt 7.92159 -3.2983
f 39/74/35 40/75/35 38/73/35

vn 0.0674248 0.997724 -6.69217e-007
v -6.53067e-008 0.5 0.821199
vt 7.9571 -3.2983
f 38/73/36 40/75/36 41/76/36

vn -0.0674248 0.997724 -6.69217e-007
v -0.172378 0.488351 0.821199
vt 7.9571 -3.3375
f 41/76/37 40/75/37 42/77/37

vn -0.0674248 0.997724 -6.69217e-007
v -0.172378 0.488351 0.707454
vt 7.92159 -3.3375
f 40/75/38 43/78/38 42/77/38

vn -0.20104 0.979583 -6.57048e-007
v -0.341622 0.453617 0.707454
vt 7.92159 -3.37598
f 43/78/39 44/79/39 42/77/39

vn -0.20104 0.979583 -9.85573e-007
v -0.341622 0.453617 0.821199
vt 7.9571 -3.37598
f 42/77/40 44/79/40 45/80/40

vn -0.331011 0.943627 -9.49397e-007
v -0.504653 0.396428 0.707454
vt 7.92159 -3.41305
f 44/79/41 46/81/41 45/80/41

vn -0.331011 0.943627 -3.16466e-007
v -0.504653 0.396428 0.821199
vt 7.9571 -3.41305
f 45/80/42 46/81/42 47/82/42

vn -0.454948 0.890518 -2.98654e-007
v -0.658509 0.317826 0.821199
vt 7.9571 -3.44804
f 46/81/43 48/83/43 47/82/43

vn -0.454948 0.890518 -1.49327e-007
v -0.658509 0.317826 0.707454
vt 7.92159 -3.44804
f 46/81/44 49/84/44 48/83/44

vn -0.570626 0.82121 -1.37705e-007
v -0.800391 0.219238 0.707454
vt 7.92159 -3.4803
f 49/84/45 50/85/45 48/83/45

vn -0.570626 0.82121 2.45038e-007
v -0.800391 0.219238 0.821199
vt 7.9571 -3.4803
f 48/83/46 50/85/46 51/86/46

vn -0.675927 0.736968 3.29794e-007
v -0.864054 0.160848 0.707454
vt 7.92159 -3.49478
f 51/86/47 50/85/47 52/87/47

vn -0.675925 0.736971 -2.33907e-006
v -0.927718 0.102458 0.821199
vt 7.9571 -3.50925
f 51/86/48 52/87/48 53/88/48

vn -0.675922 0.736973 -1.2358e-007
v -0.927718 0.102458 0.707454
vt 7.92159 -3.50925
vn -0.724067 0.68973 -1.15658e-007
f 52/87/49 54/89/50 53/88/50

v -1.03818 -0.03039 0.707454
vt 7.92159 -3.53437
vn -0.768917 0.639349 -1.0721e-007
f 54/89/50 55/90/51 53/88/50

vn -0.768917 0.639348 -4.02036e-008
v -1.03818 -0.0303899 0.821199
vt 7.9571 -3.53437
f 55/90/52 56/91/52 53/88/52

vn -0.847956 0.530067 -3.33317e-008
f 55/90/53 14/30/53 56/91/53

vn -0.847956 0.530067 -8.88846e-008
v -1.12976 -0.176892 0.707454
vt 7.92159 -3.5552
vn -0.881761 0.471696 -7.90966e-008
f 55/90/54 57/92/55 14/30/55

vn -0.911555 0.411178 -6.89487e-008
f 57/92/55 13/26/56 14/30/55

vt 5.19313 -3.05047
vn 6.42796e-008 3.08072e-007 1
vt 5.13291 -3.02868
v -0.61702 -0.283876 0.821199
vt 5.08834 -3.15012
f 56/93/57 14/94/57 58/95/57

vt -10.2401 0.469464
vn 0.204253 0.978918 -2.12618e-007
vt -10.2188 0.576892
vt -10.2501 0.47245
f 15/96/58 58/97/58 14/98/58

v -0.61702 -0.283876 0.871199
vt -10.2089 0.573906
f 58/97/58 15/96/58 59/99/58

vt -10.2362 0.46827
vn 4.36517e-008 2.09209e-007 1
vt -10.1417 0.545625
vt -10.2049 0.572712
f 15/100/59 16/101/59 59/102/59

vt -10.0485 0.875852
vn -0.851692 0.524042 -1.67662e-007
v -0.61702 -0.283876 0.921199
vt -10.1226 0.886037
vt -10.1226 0.875852
f 16/103/60 60/104/60 59/105/60

v -0.75 -0.5 0.921199
vt -10.0485 0.886037
f 60/104/60 16/103/60 61/106/60

v 0.75 -0.5 0.921199
vt -10.1417 0.851165
vt -10.1417 0.545625
f 16/39/12 62/107/12 61/108/12

f 62/107/12 16/39/12 18/41/12

vt -10.0485 0.520937
vn 0.851692 0.524042 -1.59255e-007
v 0.61702 -0.283876 0.921199
vt -10.1226 0.510753
vt -10.0485 0.510753
f 18/109/61 63/110/61 62/111/61

v 0.61702 -0.283876 0.871199
vt -10.1226 0.520937
f 63/110/61 18/109/61 64/112/61

vt -10.2362 0.928519
vn -4.20888e-008 2.07372e-007 1
vt -10.2049 0.824078
vt -10.1417 0.851165
f 19/113/62 64/114/62 18/115/62

vt -10.2401 0.927325
vn -0.204253 0.978918 -2.18398e-007
v 0.61702 -0.283876 0.821199
vt -10.2188 0.819898
vt -10.2089 0.822883
f 19/116/63 65/117/63 64/118/63

vt -10.2501 0.924339
f 65/117/63 19/116/63 20/119/63

vt 5.19102 -3.5425
vn -6.42796e-008 3.08072e-007 1
vt 5.08708 -3.44255
vt 5.13061 -3.56412
f 25/120/64 65/121/64 20/122/64

vt 5.24583 -3.5164
vn 8.07363e-008 6.71316e-008 1
vt 5.08708 -3.44255
vt 5.19102 -3.5425
f 28/123/65 65/124/65 25/125/65

vt 5.29404 -3.4863
vn -1.60898e-007 2.61459e-007 1
vt 5.08708 -3.44255
vt 5.24583 -3.5164
f 30/126/66 65/127/66 28/128/66

v 0.800391 0.219238 0.871199
vt -10.4282 0.520937
vn 0.939541 -0.342436 1.06499e-007
vt -10.2717 0.531122
vt -10.4282 0.531122
f 66/129/67 65/130/67 30/131/67

vt -10.2717 0.520937
f 65/130/67 66/129/67 64/132/67

vt -10.352 0.861429
vn -6.31078e-008 2.23056e-007 1
v 0.36713 -0.090474 0.871199
vt -10.2614 0.773177
vt -10.2049 0.824078
f 66/133/68 67/134/68 64/135/68

vt -10.3636 0.849528
vn -0.581536 0.81352 -1.62889e-007
vt -10.2647 0.769776
vt -10.3553 0.858029
f 30/136/69 67/137/69 66/138/69

v 0.36713 -0.090474 0.821199
vt -10.273 0.761275
f 67/137/69 30/136/69 68/139/69

vt 5.33477 -3.45274
vn 5.80443e-008 8.3534e-008 1
vt 5.16696 -3.38345
vt 5.29404 -3.4863
f 32/140/70 68/141/70 30/142/70

vt 5.36729 -3.41632
vn -1.96228e-007 2.64993e-007 1
vt 5.16696 -3.38345
vt 5.33477 -3.45274
f 34/143/71 68/144/71 32/145/71

vt 5.391 -3.37772
vn 6.6887e-008 1.90677e-007 1
vt 5.16696 -3.38345
vt 5.36729 -3.41632
f 36/146/72 68/147/72 34/148/72

v 0.341622 0.453617 0.871199
vt -10.4157 0.520937
vn 0.998903 0.0468304 -4.78726e-008
vt -10.2564 0.531122
vt -10.4157 0.531122
f 69/149/73 68/150/73 36/151/73

vt -10.2564 0.520937
f 68/150/73 69/149/73 67/152/73

vt -10.4205 0.767981
vn 7.03259e-008 1.90838e-007 1
v -6.86037e-008 -0.00249595 0.871199
vt -10.2871 0.698395
vt -10.2614 0.773177
f 69/153/74 70/154/74 67/155/74

vt -10.4229 0.763301
vn -0.80039 0.59948 -1.16178e-007
v -6.63311e-008 -0.00249596 0.821199
vt -10.2957 0.682015
vt -10.2896 0.693715
f 69/156/75 71/157/75 70/158/75

vt -10.429 0.751601
f 71/157/75 69/156/75 36/159/75

vt 5.40548 -3.33764
vn 3.97959e-008 1.93909e-007 1
vt 5.20356 -3.2965
vt 5.391 -3.37772
f 38/160/76 71/161/76 36/162/76

vt 5.41045 -3.2968
vn 1.37229e-008 2.03066e-007 1
vt 5.20356 -3.2965
vt 5.40548 -3.33764
f 41/163/77 71/164/77 38/165/77

vt 5.41045 -3.2968
vn -1.37229e-008 2.03066e-007 1
vt 5.40583 -3.25594
vt 5.20356 -3.2965
f 41/166/78 42/167/78 71/168/78

vt 5.40583 -3.25594
vn -3.97959e-008 1.93909e-007 1
vt 5.3917 -3.21582
vt 5.20356 -3.2965
f 42/169/79 45/170/79 71/171/79

v -0.341622 0.453617 0.871199
vt -10.4539 0.520937
vn 0.80039 0.59948 -7.73251e-008
vt -10.2873 0.531122
vt -10.4539 0.531122
f 72/172/80 71/173/80 45/174/80

vt -10.2873 0.520937
f 71/173/80 72/172/80 70/175/80

vt -10.4205 0.628809
vn -4.54526e-008 1.89672e-007 1
v -0.36713 -0.090474 0.871199
vt -10.2614 0.623613
vt -10.2871 0.698395
f 72/176/81 73/177/81 70/178/81

vt -10.4157 0.875852
vn -0.998903 0.0468304 2.36825e-009
v -0.36713 -0.090474 0.821199
vt -10.2564 0.865668
vt -10.2564 0.875852
f 72/179/82 74/180/82 73/181/82

vt -10.4157 0.865668
f 74/180/82 72/179/82 45/182/82

vt 5.3917 -3.21582
vn -6.6887e-008 1.90677e-007 1
vt 5.36832 -3.17715
vt 5.16771 -3.20945
f 45/183/83 47/184/83 74/185/83

vt 5.36832 -3.17715
vn 1.96228e-007 2.64993e-007 1
vt 5.33611 -3.14064
vt 5.16771 -3.20945
f 47/186/84 48/187/84 74/188/84

vt 5.33611 -3.14064
vn -5.80443e-008 8.35339e-008 1
vt 5.29567 -3.10696
vt 5.16771 -3.20945
f 48/189/85 51/190/85 74/191/85

v -0.800391 0.219238 0.871199
vt -10.3553 0.538761
vn 0.581536 0.81352 -2.1121e-007
vt -10.273 0.635514
vt -10.3636 0.547262
f 75/192/86 74/193/86 51/194/86

vt -10.2647 0.627013
f 74/193/86 75/192/86 73/195/86

vt -10.352 0.53536
vn 1.58901e-008 2.08608e-007 1
vt -10.2049 0.572712
vt -10.2614 0.623613
f 75/196/87 59/197/87 73/198/87

vt -10.4282 0.875852
vn -0.939541 -0.342436 1.11448e-007
vt -10.2717 0.865668
vt -10.2717 0.875852
f 75/199/88 58/200/88 59/201/88

vt -10.4282 0.865668
f 58/200/88 75/199/88 51/202/88

vt 5.29567 -3.10696
vn 1.60898e-007 2.61459e-007 1
vt 5.24772 -3.07672
vt 5.08834 -3.15012
f 51/203/89 53/204/89 58/205/89

vt 5.24772 -3.07672
vn -8.07363e-008 6.71316e-008 1
vt 5.19313 -3.05047
vt 5.08834 -3.15012
f 53/206/90 56/207/90 58/208/90

vt -10.0944 0.875852
vn -0.612052 0.790818 -2.23705e-007
v -0.36713 -0.0904739 0.921199
vt -10.1868 0.886037
vt -10.1868 0.875852
f 59/209/91 76/210/91 73/211/91

vt -10.0944 0.886037
f 76/210/91 59/209/91 60/212/91

vt -10.2049 0.572712
vn -5.80501e-017 2.27288e-007 1
v 0.36713 -0.0904739 0.921199
vt -10.2614 0.773177
vt -10.2614 0.623613
f 60/213/92 77/214/92 76/215/92

vt -10.2049 0.824078
f 60/213/92 63/216/92 77/214/92

vt -10.1417 0.545625
f 61/217/92 63/216/92 60/213/92

vt -10.1417 0.851165
f 63/216/92 61/217/92 62/218/92

vt -10.0944 0.510753
vn 0.612052 0.790818 -1.96376e-007
vt -10.1868 0.520937
vt -10.1868 0.510753
f 63/219/93 67/220/93 77/221/93

vt -10.0944 0.520937
f 67/220/93 63/219/93 64/222/93

vt -10.1773 0.520937
vn 0.233039 0.972467 -2.58503e-007
v -6.63311e-008 -0.00249594 0.921199
vt -10.2877 0.510753
vt -10.1773 0.510753
f 67/223/94 78/224/94 77/225/94

vt -10.2877 0.520937
f 78/224/94 67/223/94 70/226/94

vt -10.1773 0.875852
vn -0.233039 0.972467 -2.42357e-007
vt -10.2877 0.886037
vt -10.2877 0.875852
f 73/227/95 78/228/95 70/229/95

vt -10.1773 0.886037
f 78/228/95 73/227/95 76/230/95

vt -10.2871 0.698395
f 76/215/92 77/214/92 78/231/92

vt 5.988 -2.61051
vn -1.215e-011 -1 1.39035e-007
vt 5.0116 -2.99022
vt 5.01159 -2.99593
f 3/232/96 5/233/96 8/234/96

vt 5.01271 -2.60847
f 5/233/96 3/232/96 2/235/96

v -1.25 0.5 -0.65
vt -1.95687 6.37177
f 79/236/4 3/12/4 6/14/4

vn 1.10906e-023 -2.04079e-007 -1
vt 6.98858 -2.60848
f 1/1/97 3/3/97 79/237/97

vt 6.99291 -2.60792
vn -6.2001e-024 1 -1.14088e-007
vt 6.00837 -2.60792
vt 6.00837 -2.99158
f 1/238/98 79/239/98 6/240/98

vn 0 1 -1.14088e-007
vt 6.99291 -2.99158
f 1/238/99 6/240/99 4/241/99

