# Alias OBJ Model File
# Exported from SketchUp, (c) 2000-2006 Google, Inc.
# File units = meters

mtllib paddle_rocket.mtl

g Mesh1 Model

usemtl RedRocketMetal
v 0 0.749336 0.0707107
vt -0.939518 -1.06984
vn 0 1 0
v -0.0612372 0.749336 -0.0353553
vt -1 -0.860322
v -0.0612372 0.749336 0.0353553
vt -1 -1
f 1/1/1 2/2/1 3/3/1

v 8.65927e-018 0.749336 -0.0707107
vt -0.939518 -0.790483
f 2/2/1 1/1/1 4/4/1

v 0.0612372 0.749336 0.0353553
vt -0.879035 -1
f 4/4/1 1/1/1 5/5/1

v 0 0.380047 0.4
vt -0.939518 -1.7203
vn 0.395739 0.611197 0.685441
f 6/6/2 5/5/2 1/1/2

v 0.34641 0.380047 0.2
vt -0.597377 -1.32523
f 5/5/2 6/6/2 7/7/2

usemtl ExclamationMarkMetal
vt -7.23781 11.9904
vn 0.5 -6.31408e-018 0.866025
v 0.34641 4.69669e-005 0.2
vt -6.98236 11.5037
vt -6.9824 11.9905
f 6/8/3 8/9/3 7/10/3

v 0 -0.399953 0.4
vt -7.23771 10.9912
f 9/11/3 8/9/3 6/8/3

v 0.34641 -0.399953 0.2
vt -6.98231 10.9913
f 8/9/3 9/11/3 10/12/3

vt -7.26113 10.9439
vn 0 -1 0
v 0.266725 -0.399953 0.153994
vt -7.0351 10.842
vt -7.00573 10.944
f 9/13/4 11/14/4 10/15/4

v -1.12799e-017 -0.399953 0.307987
vt -7.23175 10.8419
f 9/13/4 12/16/4 11/14/4

v -0.266725 -0.399953 0.153994
vt -7.33004 10.5002
f 9/13/4 13/17/4 12/16/4

v -0.34641 -0.399953 0.2
vt -7.38879 10.5001
f 14/18/4 13/17/4 9/13/4

v -0.34641 -0.399953 -0.2
vt -7.26105 10.0564
f 13/17/4 14/18/4 15/19/4

vt -7.49311 10.9911
vn -1 -8.63413e-033 -6.76792e-016
v -0.34641 0.380047 -0.2
vt -7.74861 11.9902
vt -7.74851 10.991
f 14/20/5 16/21/5 15/22/5

v -0.34641 4.69669e-005 0.2
vt -7.49316 11.5036
f 17/23/5 16/21/5 14/20/5

v -0.34641 0.380047 0.2
vt -7.49321 11.9903
f 16/21/5 17/23/5 18/24/5

vt -7.49316 11.5036
vn -0.5 -4.20939e-018 0.866025
vt -7.23781 11.9904
vt -7.49321 11.9903
f 17/25/6 6/26/6 18/27/6

vt -7.49311 10.9911
f 14/28/6 6/26/6 17/25/6

vt -7.23771 10.9912
f 6/26/6 14/28/6 9/29/6

usemtl RedRocketMetal
v -0.36141 -0.399953 0.174019
vt -3.87891 -1.12109
vn 0.866025 0 -0.5
vt -3.92095 -4.467e-007
vt -3.92095 -1.12109
f 19/30/7 17/31/7 14/32/7

v -0.36141 4.69669e-005 0.174019
vt -3.87891 -4.47635e-007
f 17/31/7 19/30/7 20/33/7

vt -3.87891 -1.12109
vn -0.5 -5.56623e-017 -0.866025
v -0.553857 -0.346066 0.285128
vt -3.5675 -0.97006
vt -3.87891 -4.47635e-007
f 19/34/8 21/35/8 20/36/8

v -0.604224 -0.544299 0.314208
vt -3.486 -1.52565
f 19/34/8 22/37/8 21/35/8

v -0.52124 -0.545334 0.266297
vt -3.62028 -1.52855
f 23/38/8 22/37/8 19/34/8

v -0.621218 -0.749953 0.324019
vt -3.4585 -2.10205
f 22/37/8 23/38/8 24/39/8

v -0.49124 -0.545334 0.318259
vt -5.25863 -1.52855
vn 0.657536 -0.650791 -0.379628
vt -5.34718 -2.18468
vn 0.754261 -0.49138 -0.435473
vt -5.1854 -1.61119
f 25/40/9 24/41/10 23/42/9

v -0.591218 -0.749953 0.375981
vt -5.42041 -2.10204
f 24/41/10 25/40/9 26/43/10

vt -5.25863 -1.52855
vn 0.5 1.11325e-016 0.866025
v -0.574224 -0.544299 0.36617
vt -5.39291 -1.52565
vt -5.42041 -2.10204
f 25/44/11 27/45/11 26/46/11

v -0.33141 -0.399953 0.225981
vt -5 -1.12109
f 27/45/11 25/44/11 28/47/11

vt -5.25863 -1.52855
vt -4.97399 -1.18714
vn 0.535898 -0.785547 -0.309401
vt -5 -1.12109
f 25/48/9 14/49/12 28/50/12

vt -4.94797 -1.25319
f 25/48/9 19/51/12 14/49/12

vt -5.2066 -1.66065
f 19/51/12 25/48/9 23/52/9

vt -4.95796 -1.12109
vn 0.866025 0 -0.5
v -0.33141 4.69669e-005 0.225981
vt -5 -7.82802e-015
vt -5 -1.12109
f 14/53/13 29/54/13 28/55/13

vt -4.95796 -3.02481e-009
f 29/54/13 14/53/13 17/56/13

vt -5.06612 0.103884
vn -0.681016 0.617756 0.393185
vt -5 -2.25708e-013
vt -5.03306 0.051942
f 20/57/14 29/58/14 17/59/14

v -0.471933 -0.162408 0.23783
vt -5.24496 -0.351432
vn -0.728752 0.540271 0.420745
f 30/60/15 29/58/14 20/57/14

v -0.441933 -0.162408 0.289791
vt -5.17884 -0.455317
f 29/58/14 30/60/15 31/61/15

vt -5.38616 -0.893057
vn -0.804084 0.371391 0.464238
vt -5.17884 -0.455317
vt -5.25359 -0.378314
f 21/62/16 31/63/15 30/64/15

v -0.523857 -0.346066 0.33709
vt -5.31141 -0.970059
f 31/63/15 21/62/16 32/65/16

vt -5.47359 -1.47831
vn -0.850399 0.189108 0.490978
vt -5.31141 -0.970059
vt -5.39209 -0.922717
f 22/66/17 32/67/16 21/68/16

vt -5.39291 -1.52565
f 32/67/16 22/66/17 27/69/17

vt -5.50411 -2.08607
vn -0.86211 0.0949832 0.497739
vt -5.39291 -1.52565
vt -5.47661 -1.50968
f 24/70/18 27/71/17 22/72/17

vt -5.42041 -2.10204
f 27/71/17 24/70/18 26/73/18

vt -5.31141 -0.970059
f 27/45/11 28/47/11 32/74/11

vt -5 -5.76682e-015
f 32/74/11 28/47/11 29/75/11

vt -5.17884 -0.455317
f 32/74/11 29/75/11 31/76/11

vt -3.70007 -0.455317
f 20/36/8 21/35/8 30/77/8

vn -0.395739 0.611197 0.685441
vt -1.28166 -1.32523
f 1/1/19 18/78/19 6/6/19

f 18/78/19 1/1/19 3/3/19

vn -0.791479 0.611197 -5.53399e-016
vt -1.28166 -0.535091
f 3/3/20 16/79/20 18/78/20

f 16/79/20 3/3/20 2/2/20

vn -0.395739 0.611197 -0.685441
v 4.89843e-017 0.380047 -0.4
vt -0.939518 -0.140021
f 2/2/21 33/80/21 16/79/21

f 33/80/21 2/2/21 4/4/21

vn 0.395739 0.611197 -0.685441
v 0.34641 0.380047 -0.2
vt -0.597377 -0.535091
f 4/4/22 34/81/22 33/80/22

v 0.0612372 0.749336 -0.0353553
vt -0.879035 -0.860322
f 34/81/22 4/4/22 35/82/22

f 4/4/1 5/5/1 35/82/1

vn 0.791479 0.611197 6.43798e-017
f 5/5/23 34/81/23 35/82/23

f 34/81/23 5/5/23 7/7/23

usemtl ExclamationMarkMetal
vt -8.38711 11.99
vn 1 -1.48305e-018 1.23588e-020
v 0.34641 -0.399953 -0.2
vt -8.13162 10.9909
vt -8.13171 11.9901
f 7/83/24 36/84/24 34/85/24

vt -8.38702 10.9908
f 7/83/24 10/86/24 36/84/24

vt -8.38707 11.5032
f 10/86/24 7/83/24 8/87/24

usemtl RedRocketMetal
v 0.33141 -0.399953 0.225981
vt -3.87891 -1.12109
vn -0.866025 5.45822e-016 -0.5
vt -3.92095 -4.467e-007
f 37/88/25 8/89/25 10/32/25

v 0.33141 4.69669e-005 0.225981
vt -3.87891 -4.47635e-007
f 8/89/25 37/88/25 38/90/25

vn -0.5 -7.22608e-017 0.866025
v 0.501509 -0.356388 0.324187
vt -3.60366 -0.998991
vt -3.87891 -4.47635e-007
f 37/30/26 39/91/26 38/92/26

v 0.494064 -0.542539 0.319889
vt -3.61571 -1.52072
f 40/93/26 39/91/26 37/30/26

v 0.556869 -0.549978 0.35615
vt -3.51408 -1.54157
f 40/93/26 41/94/26 39/91/26

v 0.591218 -0.749953 0.375981
vt -3.4585 -2.10205
f 41/94/26 40/93/26 42/95/26

vt -5.18924 -1.60072
vn -0.657536 -0.650791 -0.379628
v 0.621218 -0.749953 0.324019
vt -5.42041 -2.10204
vn -0.761745 -0.475738 -0.439794
vt -5.34645 -2.18205
f 40/96/27 43/97/28 42/98/28

v 0.524064 -0.542539 0.267928
vt -5.2632 -1.52072
f 43/97/28 40/96/27 44/99/27

vt -5.21236 -1.65466
v 0.36141 -0.399953 0.174019
vt -5 -1.12109
vn -0.523656 -0.796479 -0.302333
vt -5.2632 -1.52072
f 40/100/27 45/101/29 44/102/27

vt -4.97458 -1.18806
f 40/100/27 10/103/29 45/101/29

vt -4.94916 -1.25503
f 10/103/29 40/100/27 37/104/29

vn -0.866025 5.76023e-016 -0.5
v 0.36141 4.69669e-005 0.174019
vt -5 -5.41971e-015
f 10/53/30 46/105/30 45/55/30

vt -4.95796 -3.02481e-009
f 46/105/30 10/53/30 8/106/30

vt -5.071 0.0900683
vn 0.731334 0.5356 0.422236
vt -5 -2.77556e-015
vt -5.0355 0.0450342
f 38/107/31 46/108/31 8/109/31

v 0.455974 -0.172116 0.228616
vt -5.15302 -0.482526
vn 0.758489 0.482623 0.437914
f 38/107/31 47/110/32 46/108/31

v 0.425974 -0.172116 0.280577
vt -5.22402 -0.392458
f 47/110/32 38/107/31 48/111/32

vt -3.72589 -0.482527
f 38/92/26 39/91/26 48/112/26

v 0.531509 -0.356388 0.272226
vt -5.27525 -0.99899
vn 0.804084 0.371391 0.464238
vt -5.22902 -0.410583
vt -5.35124 -0.927046
f 49/113/33 48/114/32 39/115/33

vt -5.15302 -0.482526
f 48/114/32 49/113/33 47/116/32

vt -5.27525 -0.99899
vn 0.5 2.16783e-016 -0.866025
vt -5 -5.52274e-015
vt -5.15302 -0.482526
f 49/117/34 46/118/34 47/119/34

f 49/117/34 45/55/34 46/118/34

vt -5.2632 -1.52072
f 49/117/34 44/120/34 45/55/34

v 0.586869 -0.549978 0.304188
vt -5.36483 -1.54157
f 50/121/34 44/120/34 49/117/34

vt -5.42041 -2.10204
f 44/120/34 50/121/34 43/122/34

vt -5.4473 -1.50885
vn 0.837502 0.254534 0.483532
vt -5.42041 -2.10204
vn 0.849479 0.194546 0.490447
vt -5.36483 -1.54157
f 41/123/35 43/124/36 50/125/35

vt -5.50288 -2.06933
f 43/124/36 41/123/35 42/126/36

vt -5.36483 -1.54157
vt -5.35509 -0.946261
vt -5.44467 -1.48884
f 50/127/35 39/128/33 41/129/35

vt -5.27525 -0.99899
f 39/128/33 50/127/35 49/130/33

usemtl ExclamationMarkMetal
vt -6.87799 10.5003
f 11/14/4 36/131/4 10/15/4

v 0.266725 -0.399953 -0.153994
vt -6.93674 10.5003
f 51/132/4 36/131/4 11/14/4

v 4.89843e-017 -0.399953 -0.4
vt -7.00565 10.0565
f 51/132/4 52/133/4 36/131/4

v -2.81997e-017 -0.399953 -0.307987
vt -7.03503 10.1586
f 53/134/4 52/133/4 51/132/4

v -0.266725 -0.399953 -0.153994
vt -7.23168 10.1585
f 54/135/4 52/133/4 53/134/4

f 54/135/4 15/19/4 52/133/4

f 15/19/4 54/135/4 13/17/4

usemtl PlainRocketMetal
vt 4.8732 -3
vn -0.866025 3.2793e-032 -0.5
v -0.266725 -0.599953 0.153994
vt 5.28668 -3.53701
vn -1 0 -5.85992e-016
vt 5.28668 -3
f 54/136/37 55/137/38 13/138/38

v -0.266725 -0.599953 -0.153994
vt 4.8732 -3.53701
f 55/137/38 54/136/37 56/139/37

vt 6.94059 -3
v -2.81997e-017 -0.599953 -0.307987
vt 6.52711 -3.53701
vn 6.40988e-017 5.28625e-032 -1
vt 6.94059 -3.537
f 54/140/37 57/141/39 56/142/37

vt 6.52711 -3
f 57/141/39 54/140/37 53/143/39

vt 6.52711 -3
v 0.266725 -0.599953 -0.153994
vt 6.11363 -3.53701
vn 0.866025 2.00695e-032 -0.5
vt 6.52711 -3.53701
f 53/144/39 58/145/40 57/146/39

vt 6.11363 -3
f 58/145/40 53/144/39 51/147/40

vt 5.70016 -3
vn 1 0 0
vt 6.11363 -3.53701
vt 6.11363 -3
f 11/148/41 58/149/40 51/150/40

v 0.266725 -0.599953 0.153994
vt 5.70016 -3.53701
f 58/149/40 11/148/41 59/151/41

vt 6.11363 -3
vn 0.5 2.20378e-032 0.866025
v -1.12799e-017 -0.599953 0.307987
vt 5.70016 -3.53701
vt 6.11363 -3.53701
f 11/152/42 60/153/42 59/154/42

vt 5.70016 -3
f 60/153/42 11/152/42 12/155/42

vt 5.70016 -3
vn -0.5 0 0.866025
vt 5.28668 -3.53701
vt 5.70016 -3.53701
f 12/156/43 55/157/43 60/158/43

vt 5.28668 -3
f 55/157/43 12/156/43 13/159/43

vt -1.47605 -2.39499
vt -1.73802 -3.30251
vt -1.47605 -3
f 56/160/4 60/161/4 55/162/4

vt -1.73802 -2.09248
f 60/161/4 56/160/4 57/163/4

vt -2 -2.39499
f 60/161/4 57/163/4 58/164/4

vt -2 -3
f 60/161/4 58/164/4 59/165/4

usemtl ExclamationMarkMetal
vt -7.74861 11.9902
vn -0.5 -1.05235e-017 -0.866025
vt -8.00392 10.9909
vt -7.74851 10.991
f 16/166/44 52/167/44 15/168/44

v 4.89843e-017 4.69669e-005 -0.4
vt -8.00396 11.5034
vn 3.52543e-016 -7.56091e-018 -1
f 52/167/44 16/166/44 61/169/45

vt -8.00401 11.9901
f 61/169/45 16/166/44 33/170/45

vt -8.13171 11.9901
vn 0.5 -2.5724e-018 -0.866025
vt -7.87626 11.5034
vt -7.87631 11.9902
f 34/171/46 61/172/45 33/173/45

vt -8.13162 10.9909
f 36/174/46 61/172/45 34/171/46

vt -7.87621 10.991
f 61/172/45 36/174/46 52/175/46

usemtl RedRocketMetal
vt -4.95796 -3.02481e-009
vn 0 4.51195e-016 1
v -0.03 -0.399953 -0.4
vt -5 -1.12109
vt -4.95796 -1.12109
f 61/176/47 62/177/47 52/178/47

v -0.03 4.69669e-005 -0.4
vt -5 -5.55177e-015
f 62/177/47 61/176/47 63/179/47

v 0.03 4.69669e-005 -0.4
vt -5.07093 0.0903192
vn 1.20611e-017 0.537091 -0.843524
vt -5 -6.66134e-015
vt -5.03546 0.0451596
f 64/180/48 63/181/48 61/182/48

v 0.03 -0.171954 -0.509517
vt -5.2244 -0.391754
vn 6.04222e-018 0.483655 -0.875259
f 65/183/49 63/181/48 64/180/48

v -0.03 -0.171954 -0.509517
vt -5.15347 -0.482073
f 63/181/48 65/183/49 66/184/49

v 0.03 -0.356208 -0.596861
vt -5.35185 -0.926454
vn 0 0.371391 -0.928477
vt -5.15347 -0.482073
vt -5.22945 -0.41004
f 67/185/50 66/186/49 65/187/49

v -0.03 -0.356208 -0.596861
vt -5.27587 -0.998487
f 66/186/49 67/185/50 68/188/50

v 0.03 -0.549871 -0.660684
vt -5.44517 -1.48864
vn 0 0.253394 -0.967363
vt -5.27587 -0.998487
vt -5.35573 -0.945852
f 69/189/51 68/190/50 67/191/50

v -0.03 -0.549871 -0.660684
vt -5.36531 -1.54127
f 68/190/50 69/189/51 70/192/51

v 0.03 -0.749953 -0.7
vt -5.50291 -2.06962
vn 0 0.192813 -0.981236
vt -5.36531 -1.54127
vt -5.44782 -1.50885
f 71/193/52 70/194/51 69/195/51

v -0.03 -0.749953 -0.7
vt -5.42041 -2.10204
f 70/194/51 71/193/52 72/196/52

v 0.03 -0.553041 -0.575564
vt -5.17495 -1.63999
vn 7.08057e-017 -0.650791 0.759257
vt -5.42041 -2.10204
vn 7.10134e-017 -0.534211 0.845351
vt -5.34933 -2.19188
f 73/197/53 72/198/54 71/199/54

v -0.03 -0.553041 -0.575564
vt -5.24603 -1.55016
f 72/198/54 73/197/53 74/200/53

vt -5.19077 -1.6769
vt -5 -1.12109
vn 6.9111e-017 -0.753703 0.657216
vt -5.24603 -1.55016
f 73/201/53 62/202/55 74/203/53

vt -4.97237 -1.18446
f 62/202/55 73/201/53 52/204/55

v 0.03 -0.399953 -0.4
vt -4.94474 -1.24784
f 52/204/55 73/201/53 75/205/55

vt -3.63288 -1.55016
vn 1 -4.80126e-018 -6.22528e-017
vt -3.87891 -4.47635e-007
f 73/206/56 64/207/56 75/30/56

vt -3.72544 -0.482074
f 64/207/56 73/206/56 65/208/56

vt -3.60304 -0.998487
f 65/208/56 73/206/56 67/209/56

vt -3.4585 -2.10205
f 67/209/56 73/206/56 71/210/56

vt -3.5136 -1.54127
f 67/209/56 71/210/56 69/211/56

vt -4.91592 -6.04962e-009
vn 0 4.51195e-016 1
vt -4.95796 -1.12109
vt -4.91592 -1.12109
f 64/212/57 52/213/57 75/214/57

vt -4.95796 -3.02481e-009
f 52/213/57 64/212/57 61/215/57

vt -5 -5.25198e-015
vn -1 4.80126e-018 6.22528e-017
vt -5.24603 -1.55016
f 63/216/58 74/217/58 62/55/58

vt -5.15347 -0.482073
f 74/217/58 63/216/58 66/218/58

vt -5.27587 -0.998487
f 74/217/58 66/218/58 68/219/58

vt -5.42041 -2.10204
f 74/217/58 68/219/58 72/220/58

vt -5.36531 -1.54127
f 72/220/58 68/219/58 70/221/58

