mtllib skybox.mtl

g Mesh1 Model

usemtl FrontColor
v 67.13 116.273 -1.15506e-014
vt 684.036 -1236.32
vn -0.498231 -0.867044 -2.03161e-016
v -2.02135e-014 134.26 -4.62023e-014
vt -1.96298e-012 1412.94
vn -2.88037e-017 -1 -3.84049e-017
v 58.1363 116.273 -33.565
vt -684.036 -1236.32
vn -0.431481 -0.867044 0.249116
f 1/1/1 2/2/2 3/3/3

vt -684.036 -1236.32
v 58.1363 116.273 33.565
vt 684.036 -1236.32
vn -0.431481 -0.867044 -0.249116
vt -1.55104e-012 1412.94
vn -9.60123e-018 -1 -3.1204e-017
f 1/4/1 4/5/4 2/6/5

v 116.273 67.13 8.66294e-015
vt -1184.79 -1171.02
vn -0.865033 -0.501714 -3.97738e-016
vt 684.036 1518.91
vt -684.036 1518.91
f 5/7/6 4/8/4 1/9/1

v 100.695 67.13 58.1363
vt 1184.79 -1171.02
vn -0.749141 -0.501714 -0.432517
f 4/8/4 5/7/6 6/10/7

v 134.26 1.64416e-014 1.58821e-014
vt -1368.07 -1279.3
vn -1 -1.03885e-016 -4.15541e-016
vt 1184.79 1450.7
vn -0.749141 -0.501714 -0.432517
vt -1184.79 1450.7
vn -0.865033 -0.501714 -3.97738e-016
f 7/11/8 6/12/9 5/13/10

v 116.273 1.64416e-014 67.13
vt 1368.07 -1279.3
vn -0.866025 -1.48408e-017 -0.5
f 6/12/9 7/11/8 8/14/11

vt -1368.07 1279.3
vn -1 -1.18726e-016 -4.15541e-016
v 100.695 -67.13 58.1363
vt 1184.79 -1450.7
vn -0.749141 0.501714 -0.432517
vt 1368.07 1279.3
vn -0.866025 0 -0.5
f 7/15/12 9/16/13 8/17/14

v 116.273 -67.13 8.66294e-015
vt -1184.79 -1450.7
vn -0.865033 0.501714 -3.83007e-016
f 9/16/13 7/15/12 10/18/15

v 116.273 1.64416e-014 -67.13
vt -1368.07 1279.3
vn -0.866025 -1.9293e-016 0.5
vt 1184.79 -1450.7
vt 1368.07 1279.3
f 11/19/16 10/20/15 7/21/8

v 100.695 -67.13 -58.1363
vt -1184.79 -1450.7
vn -0.749141 0.501714 0.432517
f 10/20/15 11/19/16 12/22/17

vt 1368.07 1279.3
vn -0.866025 -2.07771e-016 0.5
v 58.1363 -67.13 -100.695
vt -1184.79 -1450.7
vn -0.432517 0.501714 0.749141
vt 1184.79 -1450.7
vn -0.749141 0.501714 0.432517
f 11/23/18 13/24/19 12/25/20

v 67.13 1.64416e-014 -116.273
vt -1368.07 1279.3
vn -0.5 -1.33567e-016 0.866025
f 13/24/19 11/23/18 14/26/21

vt 1368.07 -1279.3
vn -0.866025 -1.9293e-016 0.5
v 58.1363 67.13 -100.695
vt -1184.79 1450.7
vn -0.432517 -0.501714 0.749141
vt -1368.07 -1279.3
f 11/27/22 15/28/23 14/29/21

v 100.695 67.13 -58.1363
vt 1184.79 1450.7
vn -0.749141 -0.501714 0.432517
f 15/28/23 11/27/22 16/30/24

vt -1368.07 -1279.3
vt 1184.79 1450.7
vn -0.865033 -0.501714 -4.12469e-016
vt -1184.79 1450.7
vn -0.749141 -0.501714 0.432517
f 11/31/16 5/32/25 16/33/26

vt 1368.07 -1279.3
f 5/32/25 11/31/16 7/34/8

vt 684.036 1518.91
vt -1184.79 -1171.02
vt 1184.79 -1171.02
f 1/35/1 16/36/26 5/37/6

vt -684.036 1518.91
f 16/36/26 1/35/1 3/38/3

vt 684.036 1518.91
vt -1184.79 -1171.02
vt 1184.79 -1171.02
f 3/39/3 15/40/23 16/41/24

v 33.565 116.273 -58.1363
vt -684.036 1518.91
vn -0.249116 -0.867044 0.431481
f 15/40/23 3/39/3 17/42/27

vt 684.036 -1236.32
vt -1.84894e-012 1412.94
vn -3.1204e-017 -1 -3.84049e-017
vt -684.036 -1236.32
f 3/43/3 2/44/28 17/45/27

vt -1.23948e-012 1412.94
vn -3.24042e-017 -1 -3.84049e-017
v -3.46517e-014 116.273 -67.13
vt -684.036 -1236.32
vn -4.71625e-017 -0.867044 0.498231
f 17/43/27 2/46/29 18/47/30

vt -2.97902e-013 1412.94
vn -1.68022e-017 -1 -2.88037e-017
v -33.565 116.273 -58.1363
vt -684.036 -1236.32
vn 0.249116 -0.867044 0.431481
vn -4.35346e-017 -0.867044 0.498231
f 2/48/31 19/49/32 18/1/33

vt 7.23499e-013 1412.94
vn -3.1204e-017 -1 -2.64034e-017
v -58.1363 116.273 -33.565
vt -684.036 -1236.32
vn 0.431481 -0.867044 0.249116
vt 684.036 -1236.32
vn 0.249116 -0.867044 0.431481
f 2/50/34 20/51/35 19/52/36

vt 1.55104e-012 1412.94
vn -2.88037e-017 -1 -4.32056e-017
v -67.13 116.273 3.46517e-014
vt -684.036 -1236.32
vn 0.498231 -0.867044 8.70692e-017
vt 684.036 -1236.32
f 2/53/37 21/54/38 20/55/35

vt 1.96298e-012 1412.94
vn -1.44019e-017 -1 -3.72048e-017
v -58.1363 116.273 33.565
vt -684.036 -1236.32
vn 0.431481 -0.867044 -0.249116
vt 684.036 -1236.32
vn 0.498231 -0.867044 9.06971e-017
f 2/56/39 22/57/40 21/58/41

vt 1.84894e-012 1412.94
vn -1.44019e-017 -1 -2.88037e-017
v -33.565 116.273 58.1363
vt -684.036 -1236.32
vn 0.249116 -0.867044 -0.431481
vt 684.036 -1236.32
f 2/59/42 23/60/43 22/61/40

v 2.31012e-014 116.273 67.13
vt -684.036 -1236.32
vn 1.45115e-016 -0.867044 -0.498231
vt 684.036 -1236.32
vn 0.249116 -0.867044 -0.431481
vt 1.23948e-012 1412.94
vn -2.40031e-017 -1 -4.32056e-017
f 24/62/44 23/63/45 2/64/46

v -2.31012e-014 67.13 116.273
vn 2.79889e-016 -0.501714 -0.865033
vt 684.036 1518.91
vt -684.036 1518.91
f 25/7/47 23/65/45 24/66/44

v -58.1363 67.13 100.695
vt 1184.79 -1171.02
vn 0.432517 -0.501714 -0.749141
f 23/65/45 25/7/47 26/67/48

v -2.31012e-014 1.64416e-014 134.26
vt -1368.07 -1279.3
vn 3.11656e-016 -1.03885e-016 -1
vt -1184.79 1450.7
f 27/68/49 26/30/48 25/69/47

v -67.13 1.64416e-014 116.273
vt 1368.07 -1279.3
vn 0.5 -1.03885e-016 -0.866025
f 26/30/48 27/68/49 28/70/50

v -1.15506e-014 -67.13 116.273
vn 2.06234e-016 0.501714 -0.865033
vt 1368.07 1279.3
vn 0.5 -8.90445e-017 -0.866025
vt -1368.07 1279.3
f 29/24/51 28/71/52 27/72/49

v -58.1363 -67.13 100.695
vt 1184.79 -1450.7
vn 0.432517 0.501714 -0.749141
f 28/71/52 29/24/51 30/73/53

v 1.15506e-014 -116.273 67.13
vt -684.036 -1518.91
vn 7.25576e-017 0.867044 -0.498231
vt 1184.79 1171.02
vn 0.432517 0.501714 -0.749141
vt -1184.79 1171.02
f 31/74/54 30/75/55 29/76/51

v -33.565 -116.273 58.1363
vt 684.036 -1518.91
vn 0.249116 0.867044 -0.431481
f 30/75/55 31/74/54 32/77/56

v 1.58821e-014 -134.26 -3.46517e-014
vt -2.5088e-013 -1412.94
vn -3.60046e-017 1 -7.68099e-017
vt 684.036 1236.32
vt -684.036 1236.32
f 33/78/57 32/79/56 31/80/54

vt 5.22527e-013 -1412.94
vn -2.64034e-017 1 -6.00077e-017
v -58.1363 -116.273 33.565
vt 684.036 1236.32
vn 0.431481 0.867044 -0.249116
vt -684.036 1236.32
vn 0.249116 0.867044 -0.431481
f 33/81/58 34/82/59 32/83/60

vt 1.15592e-012 -1412.94
vn -2.88037e-017 1 -5.76074e-017
v -67.13 -116.273 3.46517e-014
vt 684.036 1236.32
vn 0.498231 0.867044 1.23348e-016
vt -684.036 1236.32
vn 0.431481 0.867044 -0.249116
f 33/84/61 35/85/62 34/86/63

vt 1.47959e-012 -1412.94
vn -3.84049e-017 1 -7.32094e-017
v -58.1363 -116.273 -33.565
vt 684.036 1236.32
vn 0.431481 0.867044 0.249116
vt -684.036 1236.32
vn 0.498231 0.867044 1.26976e-016
f 33/87/64 36/88/65 35/89/66

vt 1.4068e-012 -1412.94
vn -3.36043e-017 1 -7.20093e-017
v -33.565 -116.273 -58.1363
vt 684.036 1236.32
vn 0.249116 0.867044 0.431481
vt -684.036 1236.32
vn 0.431481 0.867044 0.249116
f 33/90/67 37/91/68 36/92/69

vt 9.57064e-013 -1412.94
vn -3.60046e-017 1 -7.20093e-017
v -3.46517e-014 -116.273 -67.13
vt 684.036 1236.32
vn -3.62788e-017 0.867044 0.498231
vt -684.036 1236.32
f 33/93/70 38/94/71 37/95/68

v 33.565 -116.273 -58.1363
vt 684.036 1236.32
vn -0.249116 0.867044 0.431481
vt -684.036 1236.32
vn -4.35346e-017 0.867044 0.498231
vt 2.5088e-013 -1412.94
vn -3.84049e-017 1 -7.68099e-017
f 39/96/72 38/97/73 33/98/74

vt 1184.79 1171.02
vn -0.432517 0.501714 0.749141
vt 684.036 -1518.91
vn -0.249116 0.867044 0.431481
f 13/99/75 38/74/73 39/100/76

v -1.15506e-014 -67.13 -116.273
vt -1184.79 1171.02
vn -8.83861e-017 0.501714 0.865033
f 38/74/73 13/99/75 40/101/77

vn -0.5 -1.33567e-016 0.866025
vt 1184.79 -1450.7
f 14/23/78 40/24/77 13/102/19

v -1.15506e-014 1.64416e-014 -134.26
vn -1.03885e-016 -7.42038e-017 1
f 40/24/77 14/23/78 41/26/79

vt 1184.79 1450.7
vt -1368.07 -1279.3
vn -1.03885e-016 -7.42038e-017 1
vt 1368.07 -1279.3
vn -0.5 -1.18726e-016 0.866025
f 15/103/23 41/104/80 14/105/81

v -1.15506e-014 67.13 -116.273
vt -1184.79 1450.7
vn -8.83861e-017 -0.501714 0.865033
f 41/104/80 15/103/23 42/106/82

vt 684.036 1518.91
vt -1184.79 -1171.02
vn -8.83861e-017 -0.501714 0.865033
vt 1184.79 -1171.02
f 17/107/27 42/108/83 15/109/23

vt -684.036 1518.91
f 42/108/83 17/107/27 18/110/33

vt 684.036 1518.91
vn -4.35346e-017 -0.867044 0.498231
v -58.1363 67.13 -100.695
vt -1184.79 -1171.02
vn 0.432517 -0.501714 0.749141
vt 1184.79 -1171.02
f 18/111/84 43/112/85 42/113/82

vt -684.036 1518.91
f 43/112/85 18/111/84 19/114/36

vt -684.036 1518.91
vt 684.036 1518.91
f 20/115/35 43/10/85 19/116/36

v -100.695 67.13 -58.1363
vt -1184.79 -1171.02
vn 0.749141 -0.501714 0.432517
f 43/10/85 20/115/35 44/117/86

vt 684.036 1518.91
v -116.273 67.13 1.15506e-014
vt -1184.79 -1171.02
vn 0.865033 -0.501714 9.57516e-017
vt 1184.79 -1171.02
f 20/118/35 45/119/87 44/120/86

vt -684.036 1518.91
f 45/119/87 20/118/35 21/121/38

vt -684.036 1518.91
vt 1184.79 -1171.02
vn 0.865033 -0.501714 9.57516e-017
vt 684.036 1518.91
f 22/122/40 45/123/88 21/124/38

v -100.695 67.13 58.1363
vn 0.749141 -0.501714 -0.432517
f 45/123/88 22/122/40 46/117/89

vt 684.036 1518.91
vt -1184.79 -1171.02
vt 1184.79 -1171.02
f 22/125/40 26/126/48 46/127/89

vt -684.036 1518.91
f 26/126/48 22/125/40 23/128/43

v -116.273 1.64416e-014 67.13
vt 1368.07 -1279.3
vn 0.866025 -1.78089e-016 -0.5
vt 1184.79 1450.7
f 26/28/48 47/129/90 46/130/89

vt -1368.07 -1279.3
f 47/129/90 26/28/48 28/131/50

vt -1184.79 -1450.7
vn 0.432517 0.501714 -0.749141
vt 1368.07 1279.3
vn 0.866025 -1.78089e-016 -0.5
vt -1368.07 1279.3
f 30/132/91 47/133/92 28/134/50

v -100.695 -67.13 58.1363
vn 0.749141 0.501714 -0.432517
f 47/133/92 30/132/91 48/73/93

vt -1184.79 1171.02
vt 684.036 -1518.91
vn 0.749141 0.501714 -0.432517
f 30/135/55 34/136/63 48/75/94

vt -684.036 -1518.91
f 34/136/63 30/135/55 32/137/56

vt -684.036 -1518.91
v -116.273 -67.13 1.15506e-014
vt 1184.79 1171.02
vn 0.865033 0.501714 1.25214e-016
vt -1184.79 1171.02
f 34/138/63 49/139/95 48/140/93

vt 684.036 -1518.91
f 49/139/95 34/138/63 35/141/62

vt 684.036 -1518.91
vn 0.865033 0.501714 1.17848e-016
vt -684.036 -1518.91
vn 0.498231 0.867044 1.30604e-016
f 36/142/69 49/76/96 35/143/97

v -100.695 -67.13 -58.1363
vt 1184.79 1171.02
vn 0.749141 0.501714 0.432517
f 49/76/96 36/142/69 50/144/98

vt -684.036 -1518.91
v -58.1363 -67.13 -100.695
vt 1184.79 1171.02
vn 0.432517 0.501714 0.749141
f 36/145/65 51/146/99 50/135/98

vt 684.036 -1518.91
vn 0.249116 0.867044 0.431481
f 51/146/99 36/145/65 37/147/100

vt -684.036 -1518.91
vt 1184.79 1171.02
vn 0.432517 0.501714 0.749141
f 37/148/100 40/149/77 51/101/101

vt 684.036 -1518.91
f 40/149/77 37/148/100 38/150/71

vt 1368.07 1279.3
vn -1.18726e-016 -8.90445e-017 1
f 41/151/102 51/24/101 40/20/77

v -67.13 1.64416e-014 -116.273
vn 0.5 -1.18726e-016 0.866025
f 51/24/101 41/151/102 52/72/103

vt 1184.79 1450.7
vt 1368.07 -1279.3
vn -1.18726e-016 -7.42038e-017 1
f 42/152/82 52/68/103 41/153/104

vn 0.432517 -0.501714 0.749141
f 52/68/103 42/152/82 43/69/105

vn 0.432517 -0.501714 0.749141
v -116.273 1.64416e-014 -67.13
vn 0.866025 -1.78089e-016 0.5
vt 1368.07 -1279.3
vn 0.5 -1.03885e-016 0.866025
f 43/30/106 53/31/107 52/154/108

vt -1184.79 1450.7
vn 0.749141 -0.501714 0.432517
f 53/31/107 43/30/106 44/155/109

vt -1184.79 1450.7
vn 0.865033 -0.501714 1.03117e-016
vn 0.866025 -1.9293e-016 0.5
vt 1184.79 1450.7
f 45/156/110 53/154/111 44/157/86

v -134.26 1.64416e-014 1.15506e-014
vt -1368.07 -1279.3
vn 1 -1.9293e-016 5.9363e-017
f 53/154/111 45/156/110 54/158/112

vt 1368.07 -1279.3
vn 1 -1.9293e-016 7.42038e-017
f 46/28/89 54/159/113 45/152/110

vn 0.866025 -1.78089e-016 -0.5
f 54/159/113 46/28/89 47/158/114

vt -1184.79 -1450.7
vn 1 -1.78089e-016 7.42038e-017
f 48/160/94 54/21/115 47/134/114

vt 1184.79 -1450.7
vn 0.865033 0.501714 1.17848e-016
f 54/21/115 48/160/94 49/161/116

vt 1184.79 -1450.7
vt -1368.07 1279.3
vt -1184.79 -1450.7
f 50/162/98 54/163/112 49/164/116

vt 1368.07 1279.3
vn 0.866025 -1.63248e-016 0.5
f 54/163/112 50/162/98 53/165/117

vn 0.432517 0.501714 0.749141
vn 0.749141 0.501714 0.432517
f 51/73/118 53/134/107 50/132/119

vt 1368.07 1279.3
vn 0.5 -1.33567e-016 0.866025
f 53/134/107 51/73/118 52/166/120

v 58.1363 -116.273 -33.565
vt 684.036 -1518.91
vn -0.431481 0.867044 0.249116
vt -1184.79 1171.02
vn -0.432517 0.501714 0.749141
vt -684.036 -1518.91
f 55/167/121 13/168/122 39/169/72

vt 1184.79 1171.02
f 13/168/122 55/167/121 12/170/17

v 67.13 -116.273 -8.66294e-015
vt 684.036 -1518.91
vn -0.498231 0.867044 -3.41021e-016
vt -1184.79 1171.02
vt -684.036 -1518.91
f 56/171/123 12/172/17 55/173/121

vt 1184.79 1171.02
vn -0.865033 0.501714 -3.97738e-016
f 12/172/17 56/171/123 10/174/124

v 58.1363 -116.273 33.565
vt 684.036 -1518.91
vn -0.431481 0.867044 -0.249116
vt -1184.79 1171.02
vn -0.865033 0.501714 -3.90372e-016
vt -684.036 -1518.91
vn -0.498231 0.867044 -3.41021e-016
f 57/175/125 10/176/126 56/177/127

vt 1184.79 1171.02
vn -0.749141 0.501714 -0.432517
f 10/176/126 57/175/125 9/178/128

vt -684.036 -1518.91
vn -0.431481 0.867044 -0.249116
v 58.1363 -67.13 100.695
vn -0.432517 0.501714 -0.749141
f 57/179/129 58/144/130 9/135/13

v 33.565 -116.273 58.1363
vt 684.036 -1518.91
vn -0.249116 0.867044 -0.431481
f 58/144/130 57/179/129 59/180/131

vt -684.036 1236.32
vt -1.4068e-012 -1412.94
vn -3.60046e-017 1 -5.76074e-017
vt 684.036 1236.32
f 57/181/129 33/182/132 59/183/131

vt -684.036 1236.32
vt -1.47959e-012 -1412.94
vn -2.40031e-017 1 -6.2408e-017
vt 684.036 1236.32
f 56/184/123 33/185/133 57/186/129

vt 684.036 1236.32
vn -0.498231 0.867044 -3.44649e-016
vt -684.036 1236.32
vt -1.15592e-012 -1412.94
vn -3.36043e-017 1 -6.2408e-017
f 56/187/134 55/188/121 33/189/135

vt 684.036 1236.32
vn -0.431481 0.867044 0.249116
vt -684.036 1236.32
vn -0.249116 0.867044 0.431481
vt -5.22527e-013 -1412.94
vn -3.36043e-017 1 -6.72086e-017
f 55/190/136 39/191/137 33/192/138

vt -684.036 1236.32
vn -0.249116 0.867044 -0.431481
vt -9.57064e-013 -1412.94
vn -2.52032e-017 1 -6.2408e-017
vt 684.036 1236.32
vn 7.61855e-017 0.867044 -0.498231
f 59/193/139 33/194/140 31/195/141

vt -684.036 -1518.91
vt 684.036 -1518.91
vn 7.25576e-017 0.867044 -0.498231
f 29/144/51 59/196/131 31/197/142

f 59/196/131 29/144/51 58/135/130

vn 3.26497e-016 -8.90445e-017 -1
f 27/21/143 58/24/130 29/20/51

v 67.13 1.64416e-014 116.273
vn -0.5 -8.90445e-017 -0.866025
f 58/24/130 27/21/143 60/26/144

vn 2.9462e-016 -0.501714 -0.865033
vn 3.26497e-016 -1.03885e-016 -1
f 25/152/145 60/29/144 27/34/146

v 58.1363 67.13 100.695
vn -0.432517 -0.501714 -0.749141
f 60/29/144 25/152/145 61/28/147

vt 684.036 1518.91
vn 1.3786e-016 -0.867044 -0.498231
vt -1184.79 -1171.02
vn -0.432517 -0.501714 -0.749141
vt 1184.79 -1171.02
vn 2.87255e-016 -0.501714 -0.865033
f 24/198/148 61/199/149 25/200/150

v 33.565 116.273 58.1363
vt -684.036 1518.91
vn -0.249116 -0.867044 -0.431481
f 61/199/149 24/198/148 62/201/151

vt -684.036 -1236.32
vt 684.036 -1236.32
vn 1.3786e-016 -0.867044 -0.498231
vt 2.97902e-013 1412.94
vn -9.60123e-018 -1 -3.36043e-017
f 62/202/151 24/203/152 2/204/153

vt -684.036 -1236.32
vn -0.431481 -0.867044 -0.249116
vt 684.036 -1236.32
vt -7.23499e-013 1412.94
vn -1.20015e-017 -1 -3.36043e-017
f 4/205/154 62/206/151 2/207/155

vt -684.036 1518.91
f 4/208/154 61/67/149 62/65/151

vt -1184.79 -1171.02
f 61/67/149 4/208/154 6/209/7

vn -0.866025 -1.48408e-017 -0.5
vt 1184.79 1450.7
vn -0.749141 -0.501714 -0.432517
f 8/68/156 61/210/147 6/33/157

vn -0.5 -7.42038e-017 -0.866025
f 61/210/147 8/68/156 60/129/158

f 9/132/13 60/165/158 8/72/156

f 60/165/158 9/132/13 58/161/130

