# Alias OBJ Model File
# Exported from SketchUp, (c) 2000-2006 Google, Inc.
# File units = meters

mtllib switch_block.mtl

g Mesh1 Model

usemtl switch_current
v 1.25 -0.15 -0.2
vt 9 -3
vn 1 4.35336e-009 -3.75295e-011
v 1.25 0.15 0.3
vt 8 -2
v 1.25 -0.15 0.3
vt 8 -3
f 1/1/1 2/2/1 3/3/1

v 1.25 0.149999 -0.2
vt 9 -2
f 2/2/1 1/1/1 4/4/1

vt -8 1
vn 0.5547 -2.47391e-007 -0.83205
v 0.95 0.25 -0.4
vt -7 2
vt -8 2
f 1/5/2 5/6/2 4/7/2

v 0.95 -0.25 -0.4
vt -7 1
f 5/6/2 1/5/2 6/8/2

vt 3.59712e-015 19
vn 0.316228 -0.948683 2.11606e-007
vt 1 18
vt 1 19
f 3/9/3 6/10/3 1/11/3

v 0.95 -0.25 0.5
vt 3.33067e-015 18
f 6/10/3 3/9/3 7/12/3

vt 8 -3
vn 0.5547 6.79051e-008 0.83205
v 0.95 0.25 0.5
vt 7 -2
vt 7 -3
f 3/13/4 8/14/4 7/15/4

vt 8 -2
f 8/14/4 3/13/4 2/16/4

vt 1.11022e-015 -19
vn 0.316229 0.948683 4.07983e-008
vt -1 -18
vt -1 -19
f 4/17/5 8/18/5 2/19/5

vt 1.4803e-015 -18
f 8/18/5 4/17/5 5/20/5

vt -1.94289e-016 -5
vn 0.780869 0.624695 9.43186e-008
v 0.75 0.5 0.2
vt -1 -4
vt -1 -5
f 5/21/6 9/22/6 8/23/6

v 0.75 0.5 -0.15
vt -1.07057e-016 -4
f 9/22/6 5/21/6 10/24/6

vt -7 4
vn -1.37054e-016 0.707107 -0.707106
v -7.62939e-008 0.5 -0.15
vt -6.5 5
vt -7 5
f 5/25/7 11/26/7 10/27/7

vt -7 4
vn 1.70862e-017 0.707107 -0.707106
v -0.95 0.25 -0.4
vt -6 4
vt -6.5 5
f 5/28/8 12/29/8 11/30/8

usemtl switch_metal
vt -7 -6
vn 1.06995e-017 0.83205 -0.5547
v -8.08231e-008 0.15 -0.55
vt -6.5 -6.83902
vt -6 -6
f 5/31/9 13/32/9 12/33/9

vt -7 -6
vn -1.31268e-008 0.83205 -0.5547
v 0.8 0.15 -0.55
vt -6.92105 -6.83902
vt -6.5 -6.83902
f 5/34/10 14/35/10 13/36/10

vt -2 -2
vn 0.707107 -2.22558e-007 -0.707107
v 0.8 -0.15 -0.55
vt -2.8 -2.84853
vt -2.2 -2.84853
f 5/37/11 15/38/11 14/39/11

vt -3 -2
f 15/38/11 5/37/11 6/40/11

vt -7 7
vn -3.14955e-008 -0.832051 -0.5547
v -8.08231e-008 -0.15 -0.55
vt -7.5 6.14329
vt -7.07895 6.14329
f 6/41/12 16/42/12 15/43/12

vt -7 7
vn 1.0131e-008 -0.83205 -0.5547
v -0.95 -0.25 -0.4
vt -8 7
vt -7.5 6.1433
f 6/44/13 17/45/13 16/46/13

usemtl switch_current
vt -8 -1
vn 9.33178e-009 -0.768221 -0.640184
v -8.03755e-008 -0.5 -0.0999998
vt -7.5 -2
vt -7 -1
f 6/47/14 18/48/14 17/49/14

vt -8 -1
vn 4.22732e-009 -0.768221 -0.640184
v 0.75 -0.5 -0.0999998
vt -8 -2
vt -7.5 -2
f 6/50/15 19/51/15 18/52/15

vt -2 6
vn 0.780869 -0.624695 1.74586e-007
v 0.75 -0.5 0.250381
vt -3 5
vt -2 5
f 6/53/16 20/54/16 19/55/16

vt -3 6
f 20/54/16 6/53/16 7/56/16

vt -5 -3
vn 1.26439e-008 -0.706567 0.707646
v -5.87502e-008 -0.5 0.250381
vt -5.5 -4
vt -5 -4
f 7/57/17 21/58/17 20/59/17

vt -5 -3
vn 8.14819e-008 -0.706567 0.707646
v -0.95 -0.25 0.5
vt -6 -3
vt -5.5 -4
f 7/60/18 22/61/18 21/62/18

usemtl switch_metal
vt -8 6
vn 9.81773e-008 -0.83205 0.5547
v -0.00500008 -0.15 0.65
vt -7.49737 4.99957
vt -7 6
f 7/63/19 23/64/19 22/65/19

vt -8 6
vn -1.14483e-008 -0.832051 0.554699
v 0.75 -0.15 0.65
vt -7.89473 4.99957
vt -7.49737 4.99957
f 7/66/20 24/67/20 23/68/20

vt 2 -2
vn 0.6 3.84588e-008 0.8
vt 2.8 -3
vt 3 -2
f 8/69/21 24/70/21 7/71/21

v 0.75 0.15 0.65
vt 2.2 -3
f 24/70/21 8/69/21 25/72/21

vt -5.14954 -6
vn 8.62283e-008 0.83205 0.5547
v -0.00500008 0.15 0.65
vt -6.66974 -6.96589
vt -5.45509 -6.93283
f 8/73/22 26/74/22 25/75/22

vt -5.14954 -6
vn 8.40898e-008 0.83205 0.5547
v -0.95 0.25 0.5
vt -8.31991 -6
vt -6.66974 -6.96589
f 8/76/23 27/77/23 26/78/23

usemtl switch_current
vt -4 2
vn 8.12308e-008 0.768221 0.640184
v -7.62939e-008 0.5 0.2
vt -4.5 3
vt -5 2
f 8/79/24 28/80/24 27/81/24

vt -4 2
vn 6.89347e-017 0.768221 0.640184
vt -4 3
vt -4.5 3
f 8/82/25 9/83/25 28/84/25

usemtl switch_on
vt -4 -2
vn 0 1 -0
vt -3 -1
vt -4 -1
f 10/85/26 28/86/26 9/87/26

vt -3 -2
f 28/86/26 10/85/26 11/88/26

usemtl switch_off
vt -2.12476e-006 -1.03286e-006
v -0.75 0.5 0.2
vt 1 1
vt -2.08654e-006 1
f 11/89/26 29/90/26 28/91/26

v -0.75 0.5 -0.15
vt 1 1.04124e-008
f 29/90/26 11/89/26 30/92/26

usemtl switch_current
vt -6.5 5
vn -1.82738e-016 0.707107 -0.707106
vt -6 4
vt -6 5
f 11/93/27 12/94/27 30/95/27

vt -6 4
vn -0.780869 0.624695 1.96542e-016
vt -5 5
vt -6 5
f 12/96/28 29/97/28 30/98/28

vt -5 4
f 29/97/28 12/96/28 27/99/28

vt -1.23358e-015 -21
vn -0.316228 0.948683 -7.30591e-008
v -1.25 0.15 0.3
vt 1 -22
vt 1 -21
f 12/100/29 31/101/29 27/102/29

v -1.25 0.15 -0.2
vt -1.33227e-015 -22
f 31/101/29 12/100/29 32/103/29

vt 6 -2.56155e-016
vn -0.5547 -2.71708e-007 -0.83205
v -1.25 -0.2 -0.2
vt 7 -1
vt 7 -3.65937e-016
f 12/104/30 33/105/30 32/106/30

vt 6 -1
f 33/105/30 12/104/30 17/107/30

usemtl switch_metal
vt 3 -2
vn -0.707107 -2.15591e-007 -0.707107
v -0.8 -0.15 -0.55
vt 3.8 -2.84853
vt 4 -2
f 12/108/31 34/109/31 17/110/31

v -0.8 0.15 -0.55
vt 3.2 -2.84853
f 34/109/31 12/108/31 35/111/31

vt -6.5 -6.83902
vn -1.31268e-008 0.83205 -0.5547
vt -6.07895 -6.83902
vt -6 -6
f 13/112/32 35/113/32 12/114/32

usemtl switch_off
vt 2 2
vn -4.0222e-008 -1.93982e-007 -1
vt 3 1
vt 3 2
f 13/115/33 34/116/33 35/117/33

vt 2 1
f 34/116/33 13/115/33 16/118/33

usemtl switch_on
vt -4 1.11022e-016
vn -4.0222e-008 -1.79719e-007 -1
vt -3 -1
vt -3 -2.27669e-007
f 14/119/34 16/120/34 13/121/34

vt -4 -1
f 16/120/34 14/119/34 15/122/34

usemtl switch_metal
vt -7.5 6.1433
vn -3.14955e-008 -0.83205 -0.5547
vt -8 7
vt -7.92105 6.1433
f 16/123/35 17/124/35 34/125/35

usemtl switch_current
vt -1 20
vn -0.164399 -0.986394 4.98292e-008
v -1.25 -0.2 0.3
vt 2.79776e-015 21
vt -1 21
f 17/126/36 36/127/36 33/128/36

vt 2.66454e-015 20
f 36/127/36 17/126/36 22/129/36

vt -7 -2
vn -0.780869 -0.624695 5.573e-008
v -0.75 -0.5 0.250381
vt -6 -3
vt -6 -2
f 17/130/37 37/131/37 22/132/37

v -0.75 -0.5 -0.0999998
vt -7 -3
f 37/131/37 17/130/37 38/133/37

vt -7.5 -2
vn 4.22732e-009 -0.768221 -0.640184
vt -7 -2
vt -7 -1
f 18/134/38 38/135/38 17/136/38

usemtl switch_off
vn 1.31133e-008 -1 3.03233e-009
vt 3 1
vt 3 2
f 18/115/39 37/137/39 38/138/39

f 37/137/39 18/115/39 21/118/39

usemtl switch_on
vt -4 1.11022e-016
vn 1.31133e-008 -1 3.48357e-008
vt -3 -1
vt -3 -2.09585e-007
f 19/139/40 21/140/40 18/141/40

vt -4 -1
f 21/140/40 19/139/40 20/142/40

usemtl switch_current
vt -6 -3
vn 1.26439e-008 -0.706567 0.707646
vt -6 -4
vt -5.5 -4
f 22/143/41 37/144/41 21/145/41

vt -5 -1
vn -0.5547 4.71927e-008 0.83205
vt -5 -2
f 27/146/42 36/132/42 22/147/42

vt -6 -1
f 36/132/42 27/146/42 31/148/42

vt 1 6.74605e-008
vn -1 4.69905e-014 1.63263e-007
vt -5.55112e-017 -1
vt 1 -1
f 31/149/43 33/150/43 36/151/43

vt -5.55112e-017 1.66534e-016
f 33/150/43 31/149/43 32/152/43

usemtl switch_metal
v -0.76 -0.15 0.65
vt -4.52277 -0.996973
vn -0.619644 -5.03573e-008 0.784883
vt -4 4.44088e-016
vt -4.65346 9.54875e-008
f 39/153/44 27/154/44 22/155/44

v -0.76 0.15 0.65
vt -4.13069 -0.996972
f 27/154/44 39/153/44 40/156/44

usemtl switch_on
vt -4 -1
vn -1.03194e-008 -7.79113e-008 1
vt -3.00001 -3.25082e-007
vt -4 -1.11022e-016
f 39/157/45 26/158/45 40/159/45

vt -3 -1
f 26/158/45 39/157/45 23/160/45

usemtl switch_metal
vt -7.49737 4.99958
vn -1.14483e-008 -0.83205 0.5547
vt -7.1 4.99958
vt -7 6
f 23/161/46 39/162/46 22/163/46

usemtl switch_off
vt 2 1
vn -1.03194e-008 -2.59705e-008 1
vt 2.99465 2.01651
vt 2 2
f 23/164/47 25/165/47 26/166/47

vt 2.99465 1.01651
f 25/165/47 23/164/47 24/167/47

usemtl switch_metal
vt -6.66974 -6.96589
vn 8.62283e-008 0.83205 0.5547
vt -8.31991 -6
vt -7.97365 -7.00138
f 26/168/48 27/169/48 40/170/48

usemtl switch_current
vt -4.5 3
vn 6.89347e-017 0.768222 0.640184
vt -5 3
vt -5 2
f 28/171/49 29/172/49 27/173/49

