# This file uses centimeters as units for non-parametric coordinates.

mtllib tesla_block_coil.mtl
v 0.218152 -0.413234 0.348650
v 0.192687 -0.364996 0.282774
v 0.130636 -0.247456 0.403171
v 0.164182 -0.311001 0.475129
v 0.208102 -0.394196 0.428072
v -0.063807 -0.444452 0.348650
v -0.055902 -0.389391 0.282774
v -0.037014 -0.257825 0.403171
v -0.046519 -0.324034 0.475129
v -0.060374 -0.420542 0.428072
v 0.402982 -0.198027 0.348650
v 0.353058 -0.173494 0.282774
v 0.233768 -0.114875 0.403171
v 0.293799 -0.144375 0.475129
v 0.381302 -0.187374 0.428072
v 0.442417 0.076659 0.348650
v 0.387607 0.067162 0.282774
v 0.256644 0.044470 0.403171
v 0.322550 0.055889 0.475129
v 0.418616 0.072535 0.428072
v 0.312863 0.322065 0.348650
v 0.274104 0.282165 0.282774
v 0.181491 0.186829 0.403171
v 0.228097 0.234805 0.475129
v 0.296032 0.304738 0.428072
v 0.063807 0.444452 0.348650
v 0.055902 0.389391 0.282774
v 0.037014 0.257825 0.403171
v 0.046519 0.324034 0.475129
v 0.060374 0.420542 0.428072
v -0.209621 0.397074 0.348650
v -0.183652 0.347882 0.282774
v -0.121601 0.230341 0.403171
v -0.152827 0.289492 0.475129
v -0.198344 0.375713 0.428072
v -0.402982 0.198027 0.348650
v -0.353058 0.173494 0.282774
v -0.233768 0.114875 0.403171
v -0.293799 0.144374 0.475129
v -0.381302 0.187374 0.428072
v -0.442417 -0.076659 0.348650
v -0.387607 -0.067162 0.282774
v -0.256644 -0.044470 0.403171
v -0.322550 -0.055889 0.475129
v -0.418616 -0.072535 0.428072
v -0.312863 -0.322065 0.348650
v -0.274104 -0.282165 0.282774
v -0.181491 -0.186829 0.403171
v -0.228097 -0.234805 0.475129
v -0.296032 -0.304738 0.428072
vt 0.553121 0.246591
vt 0.577272 0.238785
vt 0.576997 0.419346
vt 0.552870 0.411466
vt 0.404981 0.294476
vt 0.452424 0.279141
vt 0.452272 0.378610
vt 0.404876 0.363130
vt 0.484347 0.268822
vt 0.484163 0.389026
vt 0.525870 0.255400
vt 0.525645 0.402574
vt 0.456414 0.113058
vt 0.471364 0.092548
vt 0.364711 0.238872
vt 0.394080 0.198580
vt 0.413840 0.171468
vt 0.439544 0.136203
vt 0.299703 0.051014
vt 0.299748 0.022117
vt 0.299458 0.212093
vt 0.299545 0.155740
vt 0.299599 0.119698
vt 0.299661 0.078796
vt 0.142805 0.112581
vt 0.127918 0.092024
vt 0.234124 0.238674
vt 0.204880 0.198292
vt 0.185200 0.171119
vt 0.159603 0.135776
vt 0.045691 0.245819
vt 0.021564 0.237939
vt 0.193685 0.294155
vt 0.146292 0.278674
vt 0.114399 0.268259
vt 0.072916 0.254711
vt 0.045440 0.410693
vt 0.021290 0.418499
vt 0.193580 0.362808
vt 0.145848 0.377740
vt 0.114215 0.388463
vt 0.072691 0.401884
vt 0.142147 0.544226
vt 0.127197 0.564737
vt 0.233850 0.418412
vt 0.204775 0.459106
vt 0.184721 0.485816
vt 0.159017 0.521082
vt 0.298874 0.595414
vt 0.298836 0.620795
vt 0.299112 0.439727
vt 0.299037 0.489585
vt 0.298985 0.523135
vt 0.298918 0.566774
vt 0.455756 0.544703
vt 0.470643 0.565261
vt 0.364437 0.418611
vt 0.393683 0.458992
vt 0.413361 0.486165
vt 0.438958 0.521509
vn 0.964201 0.167071 -0.205920
vn 0.062348 0.010803 -0.997996
vn 0.681853 0.701906 -0.205921
vn 0.044090 0.045385 -0.997996
vn -0.984315 -0.170556 -0.045103
vn -0.696077 -0.716549 -0.045104
vn -0.176008 -0.030498 0.983916
vn -0.124469 -0.128130 0.983916
vn 0.743276 0.128790 0.656471
vn 0.525622 0.541081 0.656471
vn 0.891241 -0.403560 -0.206953
vn 0.052820 -0.033500 -0.998042
vn -0.919571 0.391351 -0.035131
vn -0.162581 0.060548 0.984836
vn 0.698431 -0.318011 0.641142
vn 0.458971 -0.861966 -0.215315
vn 0.031824 -0.062586 -0.997532
vn -0.470128 0.881814 -0.037197
vn -0.070065 0.140502 0.987598
vn 0.356080 -0.665168 0.656322
vn -0.002242 -0.063342 -0.997989
vn -0.172008 -0.963466 -0.205296
vn 0.197857 0.979225 -0.044396
vn 0.040514 0.176824 0.983408
vn -0.132361 -0.743732 0.655243
vn -0.681853 -0.701906 -0.205921
vn -0.044090 -0.045385 -0.997996
vn 0.696077 0.716549 -0.045104
vn 0.124469 0.128130 0.983916
vn -0.525621 -0.541081 0.656471
vn -0.964201 -0.167071 -0.205920
vn -0.062348 -0.010803 -0.997996
vn 0.984315 0.170555 -0.045103
vn 0.176008 0.030498 0.983916
vn -0.743276 -0.128790 0.656471
vn -0.878257 0.431581 -0.205920
vn -0.056791 0.027908 -0.997996
vn 0.896578 -0.440584 -0.045104
vn 0.160321 -0.078783 0.983916
vn -0.677024 0.332694 0.656470
vn -0.456848 0.865382 -0.205921
vn -0.029542 0.055961 -0.997996
vn 0.466380 -0.883434 -0.045103
vn 0.083396 -0.157970 0.983916
vn -0.352173 0.667102 0.656467
vn 0.139059 0.968638 -0.205920
vn 0.008992 0.062635 -0.997996
vn -0.141961 -0.988844 -0.045104
vn -0.025385 -0.176819 0.983916
vn 0.107198 0.746697 0.656470
g teslaBlock_Coil
usemtl teslaBlock_coilMatSG
f 16/1/1 17/2/2 21/4/3
f 21/4/3 17/2/2 22/3/4
f 17/5/2 18/6/5 22/8/4
f 22/8/4 18/6/5 23/7/6
f 18/6/5 19/9/7 23/7/6
f 23/7/6 19/9/7 24/10/8
f 19/9/7 20/11/9 24/10/8
f 24/10/8 20/11/9 25/12/10
f 20/11/9 16/1/1 25/12/10
f 25/12/10 16/1/1 21/4/3
f 11/13/11 12/14/12 16/1/1
f 16/1/1 12/14/12 17/2/2
f 12/15/12 13/16/13 17/5/2
f 17/5/2 13/16/13 18/6/5
f 13/16/13 14/17/14 18/6/5
f 18/6/5 14/17/14 19/9/7
f 14/17/14 15/18/15 19/9/7
f 19/9/7 15/18/15 20/11/9
f 15/18/15 11/13/11 20/11/9
f 20/11/9 11/13/11 16/1/1
f 1/19/16 2/20/17 11/13/11
f 11/13/11 2/20/17 12/14/12
f 2/21/17 3/22/18 12/15/12
f 12/15/12 3/22/18 13/16/13
f 4/23/19 14/17/14 3/22/18
f 3/22/18 14/17/14 13/16/13
f 5/24/20 15/18/15 4/23/19
f 4/23/19 15/18/15 14/17/14
f 1/19/16 11/13/11 5/24/20
f 5/24/20 11/13/11 15/18/15
f 7/26/21 2/20/17 6/25/22
f 6/25/22 2/20/17 1/19/16
f 8/28/23 3/22/18 7/27/21
f 7/27/21 3/22/18 2/21/17
f 8/28/23 9/29/24 3/22/18
f 3/22/18 9/29/24 4/23/19
f 9/29/24 10/30/25 4/23/19
f 4/23/19 10/30/25 5/24/20
f 10/30/25 6/25/22 5/24/20
f 5/24/20 6/25/22 1/19/16
f 46/31/26 47/32/27 6/25/22
f 6/25/22 47/32/27 7/26/21
f 47/33/27 48/34/28 7/27/21
f 7/27/21 48/34/28 8/28/23
f 48/34/28 49/35/29 8/28/23
f 8/28/23 49/35/29 9/29/24
f 49/35/29 50/36/30 9/29/24
f 9/29/24 50/36/30 10/30/25
f 50/36/30 46/31/26 10/30/25
f 10/30/25 46/31/26 6/25/22
f 41/37/31 42/38/32 46/31/26
f 46/31/26 42/38/32 47/32/27
f 42/39/32 43/40/33 47/33/27
f 47/33/27 43/40/33 48/34/28
f 43/40/33 44/41/34 48/34/28
f 48/34/28 44/41/34 49/35/29
f 44/41/34 45/42/35 49/35/29
f 49/35/29 45/42/35 50/36/30
f 45/42/35 41/37/31 50/36/30
f 50/36/30 41/37/31 46/31/26
f 36/43/36 37/44/37 41/37/31
f 41/37/31 37/44/37 42/38/32
f 37/45/37 38/46/38 42/39/32
f 42/39/32 38/46/38 43/40/33
f 38/46/38 39/47/39 43/40/33
f 43/40/33 39/47/39 44/41/34
f 39/47/39 40/48/40 44/41/34
f 44/41/34 40/48/40 45/42/35
f 40/48/40 36/43/36 45/42/35
f 45/42/35 36/43/36 41/37/31
f 31/49/41 32/50/42 36/43/36
f 36/43/36 32/50/42 37/44/37
f 32/51/42 33/52/43 37/45/37
f 37/45/37 33/52/43 38/46/38
f 33/52/43 34/53/44 38/46/38
f 38/46/38 34/53/44 39/47/39
f 34/53/44 35/54/45 39/47/39
f 39/47/39 35/54/45 40/48/40
f 35/54/45 31/49/41 40/48/40
f 40/48/40 31/49/41 36/43/36
f 26/55/46 27/56/47 31/49/41
f 31/49/41 27/56/47 32/50/42
f 27/57/47 28/58/48 32/51/42
f 32/51/42 28/58/48 33/52/43
f 28/58/48 29/59/49 33/52/43
f 33/52/43 29/59/49 34/53/44
f 29/59/49 30/60/50 34/53/44
f 34/53/44 30/60/50 35/54/45
f 30/60/50 26/55/46 35/54/45
f 35/54/45 26/55/46 31/49/41
f 21/4/3 22/3/4 26/55/46
f 26/55/46 22/3/4 27/56/47
f 22/8/4 23/7/6 27/57/47
f 27/57/47 23/7/6 28/58/48
f 23/7/6 24/10/8 28/58/48
f 28/58/48 24/10/8 29/59/49
f 24/10/8 25/12/10 29/59/49
f 29/59/49 25/12/10 30/60/50
f 25/12/10 21/4/3 30/60/50
f 30/60/50 21/4/3 26/55/46
