# Alias OBJ Model File
# Exported from SketchUp, (c) 2000-2006 Google, Inc.
# File units = meters

mtllib triangle_prism_block.mtl

g Mesh1 Model

usemtl prism_material
v 1.25 -0.5 -0.55
vt 21.6535 -19.685
vn 1 0 9.25527e-017
v 1.25 0.5 0.55
vt -21.6535 19.685
v 1.25 -0.5 0.55
vt -21.6535 -19.685
f 1/1/1 2/2/1 3/3/1

v 1.25 0.5 -0.55
vt 21.6535 19.685
f 2/2/1 1/1/1 4/4/1

v 0.85 -0.0807418 -0.8
vt -11.685 -3.17881
vn 0.529999 1.40187e-017 -0.847998
vt -30.2558 19.685
vt -30.2558 -19.685
f 5/5/2 4/6/2 1/7/2

v 0.85 0.3 -0.8
vt -11.685 11.811
f 4/6/2 5/5/2 6/8/2

vt -33.4646 11.811
vn 0 0 -1
vt -33.4646 -3.17881
v -0.101854 0.3 -0.8
vt 4.01002 11.811
f 6/9/3 5/10/3 7/11/3

vt -42.5571 9.23634
vn -0.267534 -0.668835 -0.693604
v -1.25 0.5 -0.55
vt 38.1229 39.9917
vt -7.59324 29.3999
f 5/12/4 8/13/4 7/14/4

vt -53.7079 -12.967
f 8/13/4 5/12/4 1/15/4

vt 21.6535 -53.0036
vn -0.371391 -0.928477 -5.23848e-017
vt -21.6535 53.0036
vt -21.6535 -53.0036
f 3/16/5 8/17/5 1/18/5

v -1.25 0.5 0.55
vt 21.6535 53.0036
f 8/17/5 3/16/5 9/19/5

v 0.85 -0.0807418 0.8
vt 42.5571 9.23634
vn -0.267534 -0.668835 0.693604
vt -38.1229 39.9917
vt 53.7079 -12.967
f 10/20/6 9/21/6 3/22/6

v -0.101854 0.3 0.8
vt 7.59324 29.3999
f 9/21/6 10/20/6 11/23/6

v 0.85 0.3 0.8
vt 33.4646 11.811
vn 0 0 1
vt -4.01002 11.811
vt 33.4646 -3.17881
f 12/24/7 11/25/7 10/26/7

vt 49.2126 -4.61143
vn -7.66689e-017 0.780869 0.624695
vt -4.01002 -17.216
vt 33.4646 -17.216
f 2/27/8 11/28/8 12/29/8

vt -49.2126 -4.61143
f 11/28/8 2/27/8 9/30/8

vt 49.2126 -21.6535
vn 0 1 0
vt -49.2126 21.6535
vt -49.2126 -21.6535
f 2/31/9 8/32/9 9/33/9

vt 49.2126 21.6535
f 8/32/9 2/31/9 4/34/9

vt -49.2126 -4.61143
vn 2.90813e-017 0.780869 -0.624695
vt 4.01002 -17.216
vt 49.2126 -4.61143
f 4/35/10 7/36/10 8/37/10

vt -33.4646 -17.216
f 7/36/10 4/35/10 6/38/10

vt 11.685 -3.17881
vn 0.529999 -6.30842e-017 0.847998
vt 30.2558 19.685
vt 11.685 11.811
f 10/39/11 2/40/11 12/41/11

vt 30.2558 -19.685
f 2/40/11 10/39/11 3/42/11

